<?xml version="1.0" encoding="UTF-8" standalone="no"?>
<!-- Generator: Adobe Illustrator 15.1.0, SVG Export Plug-In . SVG Version: 6.00 Build 0)  -->

<svg
   xmlns:dc="http://purl.org/dc/elements/1.1/"
   xmlns:cc="http://creativecommons.org/ns#"
   xmlns:rdf="http://www.w3.org/1999/02/22-rdf-syntax-ns#"
   xmlns:svg="http://www.w3.org/2000/svg"
   xmlns="http://www.w3.org/2000/svg"
   xmlns:sodipodi="http://sodipodi.sourceforge.net/DTD/sodipodi-0.dtd"
   xmlns:inkscape="http://www.inkscape.org/namespaces/inkscape"
   version="1.1"
   id="flash0.ai"
   x="0px"
   y="0px"
   width="256"
   height="256"
   viewBox="0 0 256 256"
   xml:space="preserve"
   sodipodi:docname="easter_egg_03.svg"
   inkscape:version="0.92.4 (5da689c313, 2019-01-14)"><title
   id="title910">Easter Egg</title><metadata
   id="metadata103"><rdf:RDF><cc:Work
       rdf:about=""><dc:format>image/svg+xml</dc:format><dc:type
         rdf:resource="http://purl.org/dc/dcmitype/StillImage" /><dc:title>Easter Egg</dc:title><cc:license
         rdf:resource="http://creativecommons.org/publicdomain/zero/1.0/" /><dc:creator><cc:Agent><dc:title>Glitch</dc:title></cc:Agent></dc:creator><dc:source>https://opengameart.org/node/20149</dc:source></cc:Work><cc:License
       rdf:about="http://creativecommons.org/publicdomain/zero/1.0/"><cc:permits
         rdf:resource="http://creativecommons.org/ns#Reproduction" /><cc:permits
         rdf:resource="http://creativecommons.org/ns#Distribution" /><cc:permits
         rdf:resource="http://creativecommons.org/ns#DerivativeWorks" /></cc:License></rdf:RDF></metadata><defs
   id="defs101" /><sodipodi:namedview
   pagecolor="#ffffff"
   bordercolor="#666666"
   borderopacity="1"
   objecttolerance="10"
   gridtolerance="10"
   guidetolerance="10"
   inkscape:pageopacity="0"
   inkscape:pageshadow="2"
   inkscape:window-width="1920"
   inkscape:window-height="1025"
   id="namedview99"
   showgrid="false"
   inkscape:zoom="0.55625734"
   inkscape:cx="362.68719"
   inkscape:cy="-138.96527"
   inkscape:window-x="-8"
   inkscape:window-y="-8"
   inkscape:window-maximized="1"
   inkscape:current-layer="flash0.ai"
   fit-margin-top="0"
   fit-margin-left="0"
   fit-margin-right="0"
   fit-margin-bottom="0" />
<g
   id="g96"
   transform="matrix(10.837773,0,0,10.837773,0.15704223,26.628973)">
	
		<radialGradient
   id="SVGID_1_"
   cx="9.5497999"
   cy="-5.6845999"
   r="13.0155"
   gradientTransform="matrix(0.533,0.8461,0.8461,-0.533,9.6199,-6.0605)"
   gradientUnits="userSpaceOnUse">
		<stop
   offset="0"
   style="stop-color:#FBE6FF"
   id="stop2" />
		<stop
   offset="0.4627"
   style="stop-color:#F1D4F7"
   id="stop4" />
		<stop
   offset="0.7922"
   style="stop-color:#E8C5F0"
   id="stop6" />
		<stop
   offset="1"
   style="stop-color:#99819E"
   id="stop8" />
	</radialGradient>
	<path
   style="clip-rule:evenodd;fill:url(#SVGID_1_);fill-rule:evenodd"
   d="M 14.3,0.05 14.25,0 16,0.2 c 0.1,0.033 0.184,0.066 0.25,0.1 0.533,0.233 0.783,0.467 0.75,0.7 -0.1,0.333 -0.066,0.533 0.1,0.6 0.134,0.033 0.5,0.117 1.101,0.25 0.899,0.3 1.416,0.467 1.55,0.5 0.467,0.3 0.65,0.8 0.55,1.5 l -0.1,1.7 c 0.033,0.333 0.283,0.583 0.75,0.75 0.5,0.167 0.767,0.534 0.8,1.1 0.033,0.533 -0.167,1.133 -0.6,1.8 -0.334,0.667 -0.483,1.166 -0.45,1.5 0,0.267 0.2,0.517 0.6,0.75 l 0.2,0.1 -0.8,1.05 c -0.834,-0.433 -1.25,-0.816 -1.25,-1.149 0.267,-0.601 0.483,-1.134 0.649,-1.6 0.367,-0.934 0.45,-1.533 0.25,-1.8 -0.1,-0.133 -0.466,-0.4 -1.1,-0.8 -0.6,-0.333 -0.934,-0.65 -1,-0.95 l 0.1,-1.65 c 0.101,-0.733 -0.033,-1.2 -0.399,-1.4 -0.8,-0.3 -1.4,-0.517 -1.8,-0.65 -0.733,-0.333 -1.067,-0.717 -1,-1.15 C 15.283,0.817 15,0.35 14.3,0.05 Z"
   id="path11"
   inkscape:connector-curvature="0" />
	
		<radialGradient
   id="SVGID_2_"
   cx="8.625"
   cy="-5.6518998"
   r="12.0442"
   gradientTransform="matrix(0.4803,0.8771,1.0522,-0.5762,10.904,-5.9711)"
   gradientUnits="userSpaceOnUse">
		<stop
   offset="0"
   style="stop-color:#F6CCFF"
   id="stop13" />
		<stop
   offset="0.251"
   style="stop-color:#EC96FF"
   id="stop15" />
		<stop
   offset="0.3804"
   style="stop-color:#DC8BED"
   id="stop17" />
		<stop
   offset="0.6392"
   style="stop-color:#B16EBF"
   id="stop19" />
		<stop
   offset="0.9961"
   style="stop-color:#6D4076"
   id="stop21" />
		<stop
   offset="1"
   style="stop-color:#6C4075"
   id="stop23" />
	</radialGradient>
	<path
   style="clip-rule:evenodd;fill:url(#SVGID_2_);fill-rule:evenodd"
   d="m 7.15,18.45 0.7,-0.101 -1.5,-0.6 c -0.6,-0.267 -1.15,-0.6 -1.65,-1 l -0.65,-0.5 2.15,0.1 c 0.833,0 1.716,-0.133 2.65,-0.399 L 7.35,15.5 C 6.683,15.366 6,15.033 5.3,14.5 L 4.5,13.75 5.45,13.35 C 6.05,13.083 7.1,12.234 8.6,10.8 L 3.8,11.85 4.4,10.4 C 4.533,10.066 4.917,9.35 5.55,8.25 L 6.45,6.75 5.3,7.5 C 4.567,7.967 3.7,8.65 2.7,9.55 V 8.8 L 3.25,5.15 2.3,6.3 C 1.7,7.1 1.183,8.15 0.75,9.45 L 0.65,7.35 C 0.75,7.083 0.867,6.817 1,6.55 c 1.1,-2.3 2.667,-3.966 4.7,-5 2.433,-1.267 5.3,-1.767 8.6,-1.5 0.7,0.3 0.983,0.767 0.851,1.4 -0.067,0.433 0.267,0.816 1,1.15 0.399,0.133 1,0.35 1.8,0.65 0.366,0.2 0.5,0.667 0.399,1.4 l -0.1,1.65 c 0.066,0.3 0.4,0.617 1,0.95 0.634,0.4 1,0.667 1.1,0.8 0.2,0.267 0.117,0.867 -0.25,1.8 -0.166,0.466 -0.383,1 -0.649,1.6 0,0.333 0.416,0.717 1.25,1.149 l 0.8,-1.05 -0.2,-0.1 c -0.399,-0.233 -0.6,-0.483 -0.6,-0.75 -0.033,-0.334 0.116,-0.833 0.45,-1.5 0.433,-0.667 0.633,-1.267 0.6,-1.8 -0.033,-0.566 -0.3,-0.933 -0.8,-1.1 -0.467,-0.167 -0.717,-0.417 -0.75,-0.75 l 0.1,-1.7 c 0.101,-0.7 -0.083,-1.2 -0.55,-1.5 -0.134,-0.033 -0.65,-0.2 -1.55,-0.5 C 17.6,1.717 17.233,1.633 17.1,1.6 16.934,1.533 16.9,1.333 17,1 17.033,0.767 16.783,0.533 16.25,0.3 c 3.767,0.534 6.1,1.917 7,4.15 0.934,2.466 0.033,5.25 -2.7,8.35 -2.2,2.5 -4.55,4.217 -7.05,5.15 0.167,-0.066 0.333,-0.15 0.5,-0.25 0.066,-0.167 -0.267,-0.517 -1,-1.05 -0.4,-0.301 -0.616,-0.617 -0.65,-0.95 -0.033,-0.4 0.15,-0.967 0.551,-1.7 0.966,-1.667 0.883,-2.783 -0.25,-3.35 -0.5,-0.2 -0.784,-0.483 -0.851,-0.851 0,-0.133 0.05,-0.783 0.15,-1.95 0.033,-0.8 -0.2,-1.4 -0.7,-1.8 C 11.15,5.983 10.583,5.716 9.55,5.249 9.017,5.082 8.717,4.949 8.65,4.849 8.617,4.817 8.483,4.6 8.25,4.2 7.683,3.067 6.433,2.433 4.5,2.3 l -1,0.85 c 1,0.1 1.733,0.317 2.2,0.65 0.4,0.267 0.566,0.534 0.5,0.8 -0.1,0.5 0.283,0.95 1.15,1.35 0.433,0.233 1.1,0.566 2,1 0.367,0.2 0.517,0.733 0.45,1.6 0,0.434 -0.05,1.05 -0.15,1.851 0.067,0.399 0.417,0.8 1.05,1.199 0.767,0.5 1.2,0.851 1.3,1.051 0.2,0.333 0.116,1 -0.25,2 L 11,16.5 c 0,0.333 0.5,0.816 1.5,1.45 l 0.1,0.3 c -0.1,0.033 -0.216,0.066 -0.35,0.1 -1.7,0.466 -3.4,0.5 -5.1,0.1 z M 16.1,3.7 C 15.667,3.433 15.034,3.383 14.201,3.55 c -0.934,0.2 -1.417,0.55 -1.45,1.05 -0.134,1.367 0.533,1.883 2,1.55 0.833,-0.233 1.417,-0.6 1.75,-1.1 C 16.8,4.55 16.667,4.1 16.1,3.7 Z M 12.95,0 C 11.75,0 10.6,0.117 9.5,0.35 8.867,0.417 8.433,0.667 8.2,1.1 7.933,1.567 8.117,1.817 8.75,1.85 9.617,1.883 10.633,1.65 11.8,1.15 12.9,0.65 13.283,0.267 12.95,0 Z m 2.85,10.6 c -1,0.834 -1.149,1.467 -0.45,1.9 0.7,0.366 1.483,0.134 2.351,-0.7 0.866,-0.8 1.017,-1.434 0.45,-1.9 C 17.583,9.467 16.8,9.7 15.8,10.6 Z m 3.05,3.5 c -0.233,0 -0.683,0.301 -1.35,0.9 -0.6,0.6 -0.884,1 -0.85,1.2 0.833,-0.566 1.649,-1.217 2.449,-1.95 C 19.1,14.15 19.017,14.1 18.85,14.1 Z"
   id="path26"
   inkscape:connector-curvature="0" />
	
		<radialGradient
   id="SVGID_3_"
   cx="6.7651"
   cy="-8.1519003"
   r="14.2815"
   gradientTransform="matrix(0.4254,0.905,0.9208,-0.4184,14.9278,-6.7832)"
   gradientUnits="userSpaceOnUse">
		<stop
   offset="0"
   style="stop-color:#FBE6FF"
   id="stop28" />
		<stop
   offset="0.4627"
   style="stop-color:#F1D4F7"
   id="stop30" />
		<stop
   offset="0.7922"
   style="stop-color:#E8C5F0"
   id="stop32" />
		<stop
   offset="1"
   style="stop-color:#99819E"
   id="stop34" />
	</radialGradient>
	<path
   style="clip-rule:evenodd;fill:url(#SVGID_3_);fill-rule:evenodd"
   d="m 16.1,3.7 c 0.567,0.4 0.7,0.85 0.4,1.35 -0.333,0.5 -0.917,0.867 -1.75,1.1 -1.467,0.333 -2.134,-0.183 -2,-1.55 0.033,-0.5 0.517,-0.85 1.45,-1.05 0.833,-0.167 1.467,-0.117 1.9,0.15 z"
   id="path37"
   inkscape:connector-curvature="0" />
	
		<radialGradient
   id="SVGID_4_"
   cx="7.3793998"
   cy="-7.3853002"
   r="18.0256"
   gradientTransform="matrix(0.4195,0.9077,0.9077,-0.4195,13.4074,-6.1975)"
   gradientUnits="userSpaceOnUse">
		<stop
   offset="0"
   style="stop-color:#FBE6FF"
   id="stop39" />
		<stop
   offset="0.4627"
   style="stop-color:#F1D4F7"
   id="stop41" />
		<stop
   offset="0.7922"
   style="stop-color:#E8C5F0"
   id="stop43" />
		<stop
   offset="1"
   style="stop-color:#99819E"
   id="stop45" />
	</radialGradient>
	<path
   style="clip-rule:evenodd;fill:url(#SVGID_4_);fill-rule:evenodd"
   d="M 12.95,0 C 13.283,0.267 12.9,0.65 11.8,1.15 10.633,1.65 9.617,1.883 8.75,1.85 8.117,1.817 7.933,1.567 8.2,1.1 8.433,0.666 8.867,0.416 9.5,0.35 10.6,0.117 11.75,0 12.95,0 Z"
   id="path48"
   inkscape:connector-curvature="0" />
	
		<radialGradient
   id="SVGID_5_"
   cx="8.0966997"
   cy="-8.1171999"
   r="15.1322"
   gradientTransform="matrix(0.5386,0.8426,0.8426,-0.5386,13.6784,-8.7437)"
   gradientUnits="userSpaceOnUse">
		<stop
   offset="0"
   style="stop-color:#FBE6FF"
   id="stop50" />
		<stop
   offset="0.4627"
   style="stop-color:#F1D4F7"
   id="stop52" />
		<stop
   offset="0.7922"
   style="stop-color:#E8C5F0"
   id="stop54" />
		<stop
   offset="1"
   style="stop-color:#99819E"
   id="stop56" />
	</radialGradient>
	<path
   style="clip-rule:evenodd;fill:url(#SVGID_5_);fill-rule:evenodd"
   d="m 12.6,18.25 -0.1,-0.3 C 11.5,17.316 11,16.833 11,16.5 l 0.75,-1.85 c 0.366,-1 0.45,-1.667 0.25,-2 -0.1,-0.2 -0.533,-0.551 -1.3,-1.051 C 10.067,11.2 9.717,10.8 9.65,10.4 9.75,9.6 9.8,8.983 9.8,8.55 9.867,7.683 9.717,7.15 9.35,6.95 8.45,6.516 7.783,6.183 7.35,5.95 6.483,5.55 6.1,5.1 6.2,4.6 6.266,4.333 6.1,4.067 5.7,3.8 5.233,3.467 4.5,3.25 3.5,3.15 l 1,-0.85 c 1.933,0.133 3.183,0.767 3.75,1.9 0.233,0.4 0.367,0.617 0.4,0.65 0.067,0.1 0.367,0.233 0.9,0.4 1.034,0.467 1.6,0.733 1.7,0.8 0.5,0.4 0.733,1 0.7,1.8 -0.1,1.167 -0.15,1.816 -0.15,1.95 0.067,0.367 0.351,0.65 0.851,0.851 1.133,0.566 1.216,1.683 0.25,3.35 -0.4,0.733 -0.584,1.3 -0.551,1.7 0.034,0.333 0.25,0.649 0.65,0.95 0.733,0.533 1.066,0.883 1,1.05 -0.167,0.1 -0.333,0.184 -0.5,0.25 -0.3,0.099 -0.6,0.199 -0.9,0.299 z"
   id="path59"
   inkscape:connector-curvature="0" />
	
		<radialGradient
   id="SVGID_6_"
   cx="4.0932999"
   cy="-7.7382998"
   r="18.2423"
   gradientTransform="matrix(0.4009,0.9161,0.8668,-0.4235,13.6668,-6.6768)"
   gradientUnits="userSpaceOnUse">
		<stop
   offset="0"
   style="stop-color:#FBE6FF"
   id="stop61" />
		<stop
   offset="0.4627"
   style="stop-color:#F1D4F7"
   id="stop63" />
		<stop
   offset="0.7922"
   style="stop-color:#E8C5F0"
   id="stop65" />
		<stop
   offset="1"
   style="stop-color:#99819E"
   id="stop67" />
	</radialGradient>
	<path
   style="clip-rule:evenodd;fill:url(#SVGID_6_);fill-rule:evenodd"
   d="m 15.8,10.6 c 1,-0.899 1.783,-1.133 2.351,-0.7 0.566,0.466 0.416,1.1 -0.45,1.9 -0.867,0.834 -1.65,1.066 -2.351,0.7 -0.7,-0.434 -0.55,-1.066 0.45,-1.9 z"
   id="path70"
   inkscape:connector-curvature="0" />
	
		<radialGradient
   id="SVGID_7_"
   cx="7.7509999"
   cy="-7.4745998"
   r="13.5561"
   gradientTransform="matrix(0.3781,0.9258,0.9258,-0.3781,13.8399,-5.6517)"
   gradientUnits="userSpaceOnUse">
		<stop
   offset="0"
   style="stop-color:#C17BD1"
   id="stop72" />
		<stop
   offset="0.1569"
   style="stop-color:#B170BF"
   id="stop74" />
		<stop
   offset="0.4667"
   style="stop-color:#865491"
   id="stop76" />
		<stop
   offset="0.902"
   style="stop-color:#422848"
   id="stop78" />
		<stop
   offset="1"
   style="stop-color:#321D36"
   id="stop80" />
	</radialGradient>
	<path
   style="clip-rule:evenodd;fill:url(#SVGID_7_);fill-rule:evenodd"
   d="m 0.65,7.35 0.1,2.1 C 1.183,8.15 1.7,7.1 2.3,6.3 L 3.25,5.15 2.7,8.8 V 9.55 C 3.7,8.65 4.567,7.967 5.3,7.5 L 6.45,6.75 5.55,8.25 C 4.917,9.35 4.533,10.066 4.4,10.4 L 3.8,11.85 8.6,10.8 c -1.5,1.434 -2.55,2.283 -3.15,2.55 l -0.95,0.4 0.8,0.75 c 0.7,0.533 1.383,0.866 2.05,1 l 1.5,0.45 c -0.933,0.267 -1.817,0.4 -2.65,0.4 l -2.15,-0.1 0.65,0.5 c 0.5,0.4 1.05,0.733 1.65,1 l 1.5,0.6 -0.7,0.101 C 6.983,18.417 6.8,18.366 6.6,18.3 5.067,17.866 3.783,17.151 2.75,16.151 L 0.7,13.4 C 0.033,12.066 -0.167,10.65 0.1,9.15 L 0.4,8 C 0.433,7.733 0.517,7.483 0.65,7.25 Z"
   id="path83"
   inkscape:connector-curvature="0" />
	
		<radialGradient
   id="SVGID_8_"
   cx="6.9619002"
   cy="-8.5156002"
   r="13.7137"
   gradientTransform="matrix(0.4193,0.9079,0.9079,-0.4193,15.4623,-7.141)"
   gradientUnits="userSpaceOnUse">
		<stop
   offset="0"
   style="stop-color:#FBE6FF"
   id="stop85" />
		<stop
   offset="0.4627"
   style="stop-color:#F1D4F7"
   id="stop87" />
		<stop
   offset="0.7922"
   style="stop-color:#E8C5F0"
   id="stop89" />
		<stop
   offset="1"
   style="stop-color:#99819E"
   id="stop91" />
	</radialGradient>
	<path
   style="clip-rule:evenodd;fill:url(#SVGID_8_);fill-rule:evenodd"
   d="m 18.85,14.1 c 0.167,0 0.25,0.051 0.25,0.15 -0.8,0.733 -1.616,1.384 -2.449,1.95 C 16.616,16 16.9,15.6 17.5,15 c 0.667,-0.6 1.116,-0.9 1.35,-0.9 z"
   id="path94"
   inkscape:connector-curvature="0" />
</g>
</svg>