<?xml version="1.0" encoding="UTF-8" standalone="no"?>
<!-- Generator: Adobe Illustrator 15.1.0, SVG Export Plug-In . SVG Version: 6.00 Build 0)  -->

<svg
   xmlns:dc="http://purl.org/dc/elements/1.1/"
   xmlns:cc="http://creativecommons.org/ns#"
   xmlns:rdf="http://www.w3.org/1999/02/22-rdf-syntax-ns#"
   xmlns:svg="http://www.w3.org/2000/svg"
   xmlns="http://www.w3.org/2000/svg"
   xmlns:sodipodi="http://sodipodi.sourceforge.net/DTD/sodipodi-0.dtd"
   xmlns:inkscape="http://www.inkscape.org/namespaces/inkscape"
   version="1.1"
   id="Layer_1"
   x="0px"
   y="0px"
   width="256"
   height="256"
   viewBox="0 0 256.00001 256.00001"
   xml:space="preserve"
   sodipodi:docname="easter_egg_04.svg"
   inkscape:version="0.92.4 (5da689c313, 2019-01-14)"><title
   id="title858">Easter Egg</title><metadata
   id="metadata48"><rdf:RDF><cc:Work
       rdf:about=""><dc:format>image/svg+xml</dc:format><dc:type
         rdf:resource="http://purl.org/dc/dcmitype/StillImage" /><dc:title>Easter Egg</dc:title><cc:license
         rdf:resource="http://creativecommons.org/publicdomain/zero/1.0/" /><dc:creator><cc:Agent><dc:title>Glitch</dc:title></cc:Agent></dc:creator><dc:source>https://opengameart.org/node/20149</dc:source></cc:Work><cc:License
       rdf:about="http://creativecommons.org/publicdomain/zero/1.0/"><cc:permits
         rdf:resource="http://creativecommons.org/ns#Reproduction" /><cc:permits
         rdf:resource="http://creativecommons.org/ns#Distribution" /><cc:permits
         rdf:resource="http://creativecommons.org/ns#DerivativeWorks" /></cc:License></rdf:RDF></metadata><defs
   id="defs46" /><sodipodi:namedview
   pagecolor="#ffffff"
   bordercolor="#666666"
   borderopacity="1"
   objecttolerance="10"
   gridtolerance="10"
   guidetolerance="10"
   inkscape:pageopacity="0"
   inkscape:pageshadow="2"
   inkscape:window-width="1920"
   inkscape:window-height="1025"
   id="namedview44"
   showgrid="false"
   inkscape:zoom="0.61076606"
   inkscape:cx="121.74405"
   inkscape:cy="102.29699"
   inkscape:window-x="-8"
   inkscape:window-y="-8"
   inkscape:window-maximized="1"
   inkscape:current-layer="Layer_1"
   fit-margin-top="0"
   fit-margin-left="0"
   fit-margin-right="0"
   fit-margin-bottom="0" />
<g
   id="g41"
   transform="matrix(8.6572035,0,0,8.6572035,-1.988125e-7,23.292663)">
	
		<radialGradient
   id="SVGID_1_"
   cx="0.029300001"
   cy="-16.1968"
   r="18.784201"
   gradientTransform="matrix(-0.2885,0.9575,1.4761,0.4447,39.4174,11.8749)"
   gradientUnits="userSpaceOnUse">
		<stop
   offset="0"
   style="stop-color:#E3F6FF"
   id="stop2" />
		<stop
   offset="0.302"
   style="stop-color:#8AD9FF"
   id="stop4" />
		<stop
   offset="0.4235"
   style="stop-color:#7DC9ED"
   id="stop6" />
		<stop
   offset="0.6667"
   style="stop-color:#5C9EBF"
   id="stop8" />
		<stop
   offset="1"
   style="stop-color:#285D78"
   id="stop10" />
	</radialGradient>
	<path
   style="clip-rule:evenodd;fill:url(#SVGID_1_);fill-rule:evenodd"
   d="M 7.65,0.4 C 2.983,2.6 1.084,7.05 1.95,13.75 2.031,13.886 2.123,14.035 2.225,14.2 2.117,14.036 2.008,13.886 1.9,13.75 L 1.6,13.2 C 0.633,11.433 0.1,9.25 0,6.65 0,6.617 0.017,6.567 0.05,6.5 c 0,-0.067 0,-0.117 0,-0.15 0,-0.033 0.034,-0.067 0.1,-0.1 C 0.183,5.883 0.283,5.533 0.45,5.2 0.483,5.167 0.5,5.133 0.5,5.1 0.533,5 0.55,4.933 0.55,4.9 V 4.85 C 1.55,3.083 2.6,2.017 3.7,1.65 L 5.45,0.9 C 5.534,0.872 5.618,0.847 5.7,0.825 5.748,0.809 5.799,0.793 5.85,0.775 L 6.725,0.55 C 7.031,0.491 7.339,0.44 7.65,0.4 Z m 12.7,23.5 c -0.198,0.021 -0.39,0.047 -0.574,0.074 0.652,-0.12 1.344,-0.312 2.074,-0.574 -3.966,-1.334 -5.233,-4.117 -3.8,-8.351 0.9,-2.833 2.417,-4.8 4.55,-5.9 1.867,-0.967 3.801,-1.066 5.801,-0.3 0.033,0.1 0.1,0.217 0.199,0.35 0,0.066 0.017,0.117 0.051,0.15 0.042,0.104 0.084,0.204 0.125,0.3 L 29,10.325 c 0.2,0.68 0.333,1.388 0.4,2.125 0.066,0.566 0.1,1.083 0.1,1.55 l -0.1,-0.35 c -0.167,-1.5 -1.117,-2.067 -2.851,-1.7 -1.8,0.367 -3.066,1.533 -3.8,3.5 -0.667,1.866 -0.717,3.333 -0.15,4.399 0.567,1.134 1.733,1.483 3.5,1.051 0.301,-0.2 0.584,-0.434 0.851,-0.7 -0.834,0.899 -1.783,1.649 -2.851,2.25 l -1.85,0.85 c -0.2,0.101 -0.417,0.167 -0.65,0.2 z"
   id="path13"
   inkscape:connector-curvature="0" />
	
		<radialGradient
   id="SVGID_2_"
   cx="-2.085"
   cy="-16.062"
   r="19.9226"
   gradientTransform="matrix(-0.411,0.9117,0.9117,0.411,29.2861,13.2019)"
   gradientUnits="userSpaceOnUse">
		<stop
   offset="0"
   style="stop-color:#FFFEE3"
   id="stop15" />
		<stop
   offset="0.302"
   style="stop-color:#FFFBAD"
   id="stop17" />
		<stop
   offset="0.5137"
   style="stop-color:#F2EB9B"
   id="stop19" />
		<stop
   offset="0.9333"
   style="stop-color:#D1C26E"
   id="stop21" />
		<stop
   offset="1"
   style="stop-color:#CCBB66"
   id="stop23" />
	</radialGradient>
	<path
   style="clip-rule:evenodd;fill:url(#SVGID_2_);fill-rule:evenodd"
   d="m 26.95,20.2 c -0.267,0.267 -0.55,0.5 -0.851,0.7 -1.767,0.433 -2.933,0.083 -3.5,-1.051 -0.566,-1.066 -0.517,-2.533 0.15,-4.399 0.733,-1.967 2,-3.133 3.8,-3.5 1.733,-0.367 2.684,0.2 2.851,1.7 L 29.5,14 c -0.066,1.033 -0.233,1.983 -0.5,2.85 0,0.067 -0.033,0.134 -0.1,0.2 l -0.5,1 -1,1.5 c -0.034,0.066 -0.051,0.117 -0.051,0.15 z M 2.225,14.2 C 2.123,14.035 2.031,13.886 1.95,13.75 1.083,7.05 2.983,2.6 7.65,0.4 7.925,0.35 8.192,0.308 8.45,0.275 l 3.1,-0.225 c 0.633,-0.033 1.25,-0.033 1.85,0 0.1,0 0.217,0 0.35,0 0.233,0.067 0.5,0.117 0.8,0.15 C 9.584,1.166 6.317,3.367 4.75,6.8 3.583,9.567 3.5,13 4.5,17.1 3.867,16.367 3.283,15.651 2.75,14.951 2.617,14.718 2.483,14.501 2.35,14.301 H 2.3 Z M 28.4,8.85 c -2,-0.767 -3.934,-0.667 -5.801,0.3 -2.133,1.1 -3.649,3.067 -4.55,5.9 -1.434,4.233 -0.166,7.017 3.8,8.351 -0.73,0.263 -1.422,0.454 -2.074,0.574 L 19.6,24 h -0.1 c -0.066,0 -0.134,0 -0.2,0 l -0.55,0.1 c -0.1,0 -0.167,0 -0.2,0 -0.066,0 -0.133,0 -0.2,0 -0.166,0 -0.35,0 -0.55,0 -1.833,-1.033 -2.916,-2.666 -3.25,-4.899 -0.366,-2.467 0.184,-5.283 1.65,-8.45 1.1,-2.433 2.717,-4.05 4.85,-4.85 1.7,-0.633 3.5,-0.667 5.4,-0.1 0.333,0.366 0.65,0.766 0.95,1.199 0.066,0.133 0.149,0.25 0.25,0.35 0.133,0.2 0.233,0.4 0.3,0.6 l 0.149,0.2 c 0.134,0.2 0.234,0.433 0.301,0.7 z"
   id="path26"
   inkscape:connector-curvature="0" />
	
		<radialGradient
   id="SVGID_3_"
   cx="0.029300001"
   cy="-16.1968"
   r="18.784201"
   gradientTransform="matrix(-0.2885,0.9575,1.4761,0.4447,39.4174,11.8749)"
   gradientUnits="userSpaceOnUse">
		<stop
   offset="0"
   style="stop-color:#FFE3E7"
   id="stop28" />
		<stop
   offset="0.302"
   style="stop-color:#FFADBC"
   id="stop30" />
		<stop
   offset="0.502"
   style="stop-color:#F39CAA"
   id="stop32" />
		<stop
   offset="0.9059"
   style="stop-color:#D4717D"
   id="stop34" />
		<stop
   offset="1"
   style="stop-color:#CC6671"
   id="stop36" />
	</radialGradient>
	<path
   style="clip-rule:evenodd;fill:url(#SVGID_3_);fill-rule:evenodd"
   d="m 29,16.85 c 0.267,-0.866 0.434,-1.816 0.5,-2.85 0,-0.467 -0.033,-0.983 -0.1,-1.55 -0.067,-0.737 -0.2,-1.445 -0.4,-2.125 0.761,2.331 0.761,4.506 0,6.525 z M 20.35,23.9 C 17.984,24.366 15.634,24.216 13.3,23.45 9.567,22.15 6.217,19.566 3.25,15.7 2.75,15.033 2.3,14.384 1.9,13.75 2.008,13.886 2.117,14.036 2.225,14.2 L 2.3,14.3 h 0.05 c 0.133,0.2 0.267,0.417 0.4,0.65 0.533,0.7 1.117,1.416 1.75,2.149 C 3.5,13 3.583,9.567 4.75,6.8 6.317,3.367 9.583,1.167 14.55,0.2 14.25,0.166 13.984,0.117 13.75,0.05 c 3.533,0.133 6.6,1 9.2,2.6 1.934,1.167 3.5,2.733 4.7,4.7 C 27.55,7.25 27.467,7.133 27.4,7 27.099,6.567 26.783,6.167 26.45,5.8 c -1.9,-0.566 -3.7,-0.533 -5.4,0.1 -2.133,0.8 -3.75,2.417 -4.85,4.85 -1.467,3.167 -2.017,5.983 -1.65,8.45 0.334,2.233 1.417,3.866 3.25,4.899 0.2,0 0.384,0 0.55,0 0.067,0 0.134,0 0.2,0 0.033,0 0.101,0 0.2,0 L 19.3,24 c 0.066,0 0.134,0 0.2,0 h 0.1 l 0.176,-0.025 C 19.96,23.947 20.151,23.922 20.35,23.9 Z M 7.65,0.4 C 7.339,0.44 7.031,0.491 6.725,0.55 7.28,0.426 7.854,0.334 8.45,0.275 8.192,0.308 7.925,0.35 7.65,0.4 Z"
   id="path39"
   inkscape:connector-curvature="0" />
</g>
</svg>