<?xml version="1.0" encoding="UTF-8" standalone="no"?>
<!-- Generator: Adobe Illustrator 15.1.0, SVG Export Plug-In . SVG Version: 6.00 Build 0)  -->

<svg
   xmlns:dc="http://purl.org/dc/elements/1.1/"
   xmlns:cc="http://creativecommons.org/ns#"
   xmlns:rdf="http://www.w3.org/1999/02/22-rdf-syntax-ns#"
   xmlns:svg="http://www.w3.org/2000/svg"
   xmlns="http://www.w3.org/2000/svg"
   xmlns:sodipodi="http://sodipodi.sourceforge.net/DTD/sodipodi-0.dtd"
   xmlns:inkscape="http://www.inkscape.org/namespaces/inkscape"
   version="1.1"
   id="flash0.ai"
   x="0px"
   y="0px"
   width="256"
   height="256"
   viewBox="0 0 255.99999 256.00001"
   xml:space="preserve"
   sodipodi:docname="nachos.svg"
   inkscape:version="0.92.4 (5da689c313, 2019-01-14)"><title
   id="title938">Nachos</title><metadata
   id="metadata131"><rdf:RDF><cc:Work
       rdf:about=""><dc:format>image/svg+xml</dc:format><dc:type
         rdf:resource="http://purl.org/dc/dcmitype/StillImage" /><dc:title>Nachos</dc:title><cc:license
         rdf:resource="http://creativecommons.org/publicdomain/zero/1.0/" /><dc:creator><cc:Agent><dc:title>Glitch</dc:title></cc:Agent></dc:creator><dc:source>https://opengameart.org/node/20149</dc:source></cc:Work><cc:License
       rdf:about="http://creativecommons.org/publicdomain/zero/1.0/"><cc:permits
         rdf:resource="http://creativecommons.org/ns#Reproduction" /><cc:permits
         rdf:resource="http://creativecommons.org/ns#Distribution" /><cc:permits
         rdf:resource="http://creativecommons.org/ns#DerivativeWorks" /></cc:License></rdf:RDF></metadata><defs
   id="defs129" /><sodipodi:namedview
   pagecolor="#ffffff"
   bordercolor="#666666"
   borderopacity="1"
   objecttolerance="10"
   gridtolerance="10"
   guidetolerance="10"
   inkscape:pageopacity="0"
   inkscape:pageshadow="2"
   inkscape:window-width="1920"
   inkscape:window-height="1025"
   id="namedview127"
   showgrid="false"
   inkscape:zoom="0.88064887"
   inkscape:cx="345.51694"
   inkscape:cy="-163.53189"
   inkscape:window-x="-8"
   inkscape:window-y="-8"
   inkscape:window-maximized="1"
   inkscape:current-layer="flash0.ai"
   fit-margin-top="0"
   fit-margin-left="0"
   fit-margin-right="0"
   fit-margin-bottom="0" />
<g
   id="g124"
   transform="matrix(6.7628648,0,0,6.7628648,-17.219737,-3.2029586)">
	<path
   style="clip-rule:evenodd;fill:#f2f3f1;fill-rule:evenodd"
   d="m 36.95,19.3 -0.3,0.851 C 36.417,20.783 36.3,21.3 36.3,21.7 c 0,0.7 -0.433,2.033 -1.3,4 l -12.75,6.05 -14.75,-3.1 -3.6,-6 z"
   id="path2"
   inkscape:connector-curvature="0" />
	<path
   style="clip-rule:evenodd;fill:#c2bcb9;fill-rule:evenodd"
   d="m 16.4,21.35 c 0.4,0.233 1.75,1.9 4.05,5 l 0.55,0.15 1.25,5.25 -14.75,-3.1 -3.6,-6 z"
   id="path4"
   inkscape:connector-curvature="0" />
	<path
   style="clip-rule:evenodd;fill:#ffeba6;fill-rule:evenodd"
   d="M 5.05,17.1 C 4.883,16.767 4.75,16.134 4.65,15.201 l -0.1,-1.3 c 3.667,0.934 5.55,1.15 5.65,0.65 0.033,-0.333 0.017,-0.966 -0.05,-1.9 l -0.1,-1.35 7.7,0.5 0.65,-3.6 3.1,0.9 0.25,-2.05 3.1,1.55 3.101,-1 2.3,2.15 L 33.6,9.1 33.451,10.9 35.9,10 l -0.5,4.15 2.449,0.1 2.551,1.05 -4.6,5.15 c -1.566,0.5 -3.116,1.184 -4.649,2.05 -1.267,0.7 -3.15,1.517 -5.65,2.45 -2.667,1 -4.35,1.467 -5.05,1.399 C 19.618,26.283 17.734,25.966 14.801,25.4 11.667,24.8 9.75,24.35 9.05,24.05 8.617,23.85 7.567,23.6 5.9,23.3 4.4,23.033 3.467,22.767 3.1,22.5 2.7,22.167 2.517,21.316 2.55,19.95 L 2.75,18 5.55,19.55 C 5.483,18.417 5.317,17.6 5.05,17.1 Z"
   id="path6"
   inkscape:connector-curvature="0" />
	<path
   style="clip-rule:evenodd;fill:#e3c056;fill-rule:evenodd"
   d="m 25.5,24.55 0.65,0.25 -5.4,2.2 -6.7,-2.2 2.3,-0.35 0.9,-1.45 2,1 c 1.467,0.634 2.434,0.95 2.9,0.95 0.767,0 1.533,-0.816 2.3,-2.45 z"
   id="path8"
   inkscape:connector-curvature="0" />
	<path
   style="clip-rule:evenodd;fill:#e3c056;fill-rule:evenodd"
   d="m 6.25,16.6 c 1.1,0.534 1.934,0.834 2.5,0.9 0.967,0.066 2.133,0.316 3.5,0.75 l -1.7,-4.5 1.25,0.3 c 0.934,0.2 1.717,0.267 2.35,0.2 1.034,-0.067 2.45,-0.833 4.25,-2.3 l 1.15,-2.3 2.35,1.55 -0.4,-2.1 2.85,0.9 0.5,-1.4 0.75,0.45 c 0.601,0.3 1.084,0.45 1.45,0.45 0.601,0 1.233,-0.167 1.9,-0.5 l 1.149,1.4 3.351,0.5 c -1.533,0.533 -2.65,0.967 -3.351,1.3 -0.399,0.2 0.233,0.35 1.9,0.45 0.833,0.033 1.7,0.05 2.6,0.05 v 1.85 L 35.4,15.3 c 0.6,0.5 1.033,0.75 1.3,0.75 h 1.649 L 36.95,19.3 c -1.967,0.767 -3.384,1.184 -4.25,1.25 -0.533,0.066 -1.017,-0.366 -1.45,-1.3 l -0.5,-1.4 2.7,-1.899 c -1.367,-0.934 -2.733,-1.4 -4.101,-1.4 -0.866,0 -1.783,-0.466 -2.75,-1.4 l -1.25,-1.45 -1.3,1.8 -3.95,0.75 2.7,1.15 c 0.601,0.2 1.8,0.033 3.601,-0.5 l -0.5,1.3 c -0.197,0.568 -0.289,0.985 -0.275,1.25 -2.728,-0.72 -4.486,-1.003 -5.275,-0.851 -0.633,0.101 -1.717,0.101 -3.25,0 l -2.05,-0.149 0.4,3.2 4.75,1.05 -8.75,-0.75 0.35,1.35 c 0.3,0.967 0.583,1.584 0.85,1.851 0.267,0.3 1.25,0.649 2.95,1.05 1.233,0.321 2.108,0.514 2.625,0.575 -4.447,-0.321 -7.305,-0.563 -8.575,-0.726 -0.8,-0.1 -2,-0.366 -3.6,-0.8 l -2.15,-0.6 c -0.7,-0.2 -1.05,-0.5 -1.05,-0.9 L 3.1,20.3 v -0.65 l 0.65,0.6 c 0.533,0.434 1.1,0.717 1.7,0.85 L 9.05,21.85 6.2,19.65 4.8,15.8 Z m 19.375,0.85 c 0.851,0.226 1.793,0.492 2.825,0.8 -1.467,-0.1 -2.367,-0.267 -2.7,-0.5 -0.068,-0.058 -0.11,-0.157 -0.125,-0.3 z"
   id="path10"
   inkscape:connector-curvature="0" />
	<path
   style="clip-rule:evenodd;fill:#ab903b;fill-rule:evenodd"
   d="M 2.85,21.75 10.2,23.4 7.6,20.2 c 1.9,1.533 3.066,2.05 3.5,1.55 0.267,-0.333 1.117,0.116 2.55,1.35 0.7,0.634 1.383,1.284 2.05,1.95 l 5.3,1.45 7.85,-3.6 1.1,-1.1 c 0.8,-0.767 1.416,-1.217 1.85,-1.35 0.667,-0.267 2.084,-0.434 4.25,-0.5 L 21,27.9 3.35,22.9 Z"
   id="path12"
   inkscape:connector-curvature="0" />
	<path
   style="clip-rule:evenodd;fill:#ab903b;fill-rule:evenodd"
   d="m 10.2,14.55 0.5,-1.55 2.2,2.8 2.05,1.95 c -1.9,0 -3.067,-0.167 -3.5,-0.5 -0.3,-0.267 -0.667,-1 -1.1,-2.2 z"
   id="path14"
   inkscape:connector-curvature="0" />
	<path
   style="clip-rule:evenodd;fill:#ab903b;fill-rule:evenodd"
   d="m 33.45,15.95 0.85,0.25 c 0.567,0.267 0.934,0.616 1.101,1.05 0.267,0.667 0.783,1.35 1.55,2.05 -1.367,0 -2.351,0.084 -2.95,0.25 -0.434,0.134 -1.184,-0.083 -2.25,-0.649 -1.033,-0.567 -1.366,-0.917 -1,-1.051 0.532,-0.166 1.433,-0.8 2.699,-1.9 z"
   id="path16"
   inkscape:connector-curvature="0" />
	<path
   style="clip-rule:evenodd;fill:#e3c056;fill-rule:evenodd"
   d="m 25.35,15.95 1.2,0.649 c 0.834,0.4 1.384,0.567 1.65,0.5 0.434,-0.1 1.883,0.15 4.35,0.75 l 0.55,2.101 -2.85,1 L 26,23.8 24.85,19.95 c -1.633,0.767 -2.666,1.316 -3.1,1.649 L 19.2,24.15 18.65,21.849 c -0.033,-0.267 -0.433,-0.6 -1.2,-1 l -1.1,-0.55 2.6,-1.8 1.3,0.8 c 0.967,0.467 1.684,0.55 2.15,0.25 0.767,-0.532 1.75,-1.733 2.95,-3.599 z"
   id="path18"
   inkscape:connector-curvature="0" />
	<path
   style="clip-rule:evenodd;fill:#fedc00;fill-rule:evenodd"
   d="m 12.75,15.7 c -0.967,-0.634 -1.433,-1.067 -1.4,-1.3 0.033,-0.267 0.95,-0.15 2.75,0.35 1.933,0.5 3.033,0.6 3.3,0.3 0.2,-0.233 0.284,-0.867 0.25,-1.9 -0.033,-0.9 0.184,-1.467 0.65,-1.7 0.5,-0.267 1.333,-0.333 2.5,-0.2 0.601,0.066 1.434,0.167 2.5,0.3 0.867,0 1.384,-0.983 1.55,-2.95 l 0.8,0.4 c 0.6,0.3 1.066,0.467 1.399,0.5 0.233,0.033 0.417,0.283 0.55,0.75 0.134,0.533 0.367,0.933 0.7,1.2 0.4,0.267 0.867,0.45 1.4,0.55 0.333,0.066 0.467,0.133 0.399,0.2 -0.133,0.167 -0.1,0.383 0.101,0.65 0.267,0.3 0.75,0.6 1.45,0.9 1.033,0.433 2.533,0.65 4.5,0.65 -0.233,0.267 -0.467,0.583 -0.7,0.95 -0.467,0.733 -0.7,1.317 -0.7,1.75 0,0.334 0.217,0.817 0.65,1.45 0.433,0.634 0.649,1.101 0.649,1.4 0,0.434 -0.283,0.583 -0.85,0.45 -0.533,-0.101 -0.934,-0.384 -1.2,-0.851 -0.233,-0.366 -0.667,-0.767 -1.3,-1.2 l -0.9,-0.5 c 0.767,-0.233 1.233,-0.533 1.4,-0.899 0.1,-0.167 -0.184,-0.417 -0.851,-0.75 -0.833,-0.4 -1.366,-0.7 -1.6,-0.9 -0.333,-0.333 -0.783,-0.533 -1.35,-0.6 -0.2,-0.034 -0.65,-0.05 -1.351,-0.05 -0.3,0 -0.85,-0.483 -1.649,-1.45 l -1.051,-1.5 -3.199,3.7 c -0.2,0.333 -0.017,0.633 0.55,0.9 0.533,0.267 1.166,0.367 1.899,0.3 0.7,-0.066 1.4,0.051 2.101,0.351 0.733,0.3 1.316,0.733 1.75,1.3 0.333,0.434 0.85,0.717 1.55,0.85 0.767,0.134 1.233,0.284 1.4,0.45 0.267,0.267 0.033,0.566 -0.7,0.9 -0.9,0.366 -1.483,0.616 -1.75,0.75 -0.267,0.133 -0.3,0.416 -0.101,0.85 0.267,0.601 0.384,1.05 0.351,1.351 0,0.133 0.133,0.733 0.399,1.8 0.2,0.733 0.067,1.2 -0.399,1.399 -0.467,0.233 -0.851,-0.116 -1.15,-1.05 l -0.25,-1.5 -1.647,0.749 -1.301,-4.85 c -0.666,0.366 -1.35,0.783 -2.05,1.25 -1.366,1 -2.1,1.816 -2.2,2.45 -0.033,0.1 -0.033,0.883 0,2.35 0.033,0.767 -0.184,1.15 -0.65,1.15 -0.5,0 -0.767,-0.233 -0.8,-0.7 0.067,-0.667 0.117,-1.217 0.15,-1.65 0.067,-0.533 -0.017,-1.184 -0.25,-1.95 l -0.4,-1 -5.1,-1.899 0.05,1.5 c 0.066,1.1 0.167,1.916 0.3,2.45 0.2,0.666 0.233,1.3 0.1,1.899 -0.133,0.601 -0.417,1 -0.85,1.2 -0.367,0.167 -0.583,-0.167 -0.65,-1 0,-1.1 0,-1.884 0,-2.35 0,-0.567 -0.267,-1.25 -0.8,-2.051 l -0.85,-1.05 c 1.367,-1 2.3,-2.017 2.8,-3.05 C 13.95,16.934 13.65,16.333 12.75,15.7 Z"
   id="path20"
   inkscape:connector-curvature="0" />
	<path
   style="clip-rule:evenodd;fill:#d9bc00;fill-rule:evenodd"
   d="m 14.3,17.1 c -0.267,0.134 -0.483,0.4 -0.65,0.801 -0.066,0.233 -0.083,0.383 -0.05,0.449 0.033,0.034 0.117,0.101 0.25,0.2 l 0.3,0.2 c 0.1,0.066 0.133,0.184 0.1,0.35 -0.033,0.134 -0.3,0.301 -0.8,0.5 -0.633,0.134 -1.083,0.317 -1.35,0.551 L 11.65,20.6 c -0.133,0.067 -0.233,-0.083 -0.3,-0.449 -0.067,-0.301 -0.017,-0.5 0.15,-0.601 0.233,-0.166 0.383,-0.316 0.45,-0.45 0.1,-0.166 0.083,-0.433 -0.05,-0.8 -0.1,-0.333 -0.117,-0.566 -0.05,-0.7 0.1,-0.166 0.333,-0.216 0.7,-0.149 0.467,0.1 0.733,0.133 0.8,0.1 0.2,-0.066 0.417,-0.184 0.65,-0.35 0.14,-0.12 0.232,-0.237 0.275,-0.351 z"
   id="path22"
   inkscape:connector-curvature="0" />
	<path
   style="clip-rule:evenodd;fill:#d9bc00;fill-rule:evenodd"
   d="m 33.1,17.1 c -0.066,0.334 0.084,0.65 0.45,0.95 0.533,0.467 0.834,0.767 0.9,0.9 0.1,0.2 0.3,0.434 0.6,0.7 L 35.5,20 c 0.167,0.167 0.117,0.316 -0.15,0.45 -0.166,0.1 -0.399,0.066 -0.699,-0.101 C 34.417,20.184 34.233,20 34.1,19.8 c -0.333,-0.533 -0.633,-0.85 -0.899,-0.95 -0.267,-0.133 -0.533,-0.333 -0.8,-0.6 -0.334,-0.333 -0.601,-0.566 -0.801,-0.7 0.134,-0.066 0.367,-0.166 0.7,-0.3 0.3,-0.1 0.517,-0.217 0.65,-0.35 z"
   id="path24"
   inkscape:connector-curvature="0" />
	<path
   style="clip-rule:evenodd;fill:#fff464;fill-rule:evenodd"
   d="m 18.4,15.8 1.95,0.8 c -1.2,-0.1 -2.15,-0.017 -2.85,0.25 -0.633,0.233 -1.05,0.384 -1.25,0.45 -0.367,0.066 -0.717,0.05 -1.05,-0.05 -0.3,-0.134 -0.617,-0.434 -0.95,-0.9 -0.333,-0.6 -0.617,-1.083 -0.85,-1.45 -0.233,-0.367 -0.033,-0.383 0.6,-0.05 0.934,0.533 1.55,0.816 1.85,0.85 0.667,0.067 1.517,0.1 2.55,0.1 z"
   id="path26"
   inkscape:connector-curvature="0" />
	<path
   style="clip-rule:evenodd;fill:#fff464;fill-rule:evenodd"
   d="m 19.3,12.45 c 0.067,-0.167 0.634,-0.25 1.7,-0.25 1.1,0 1.866,0.083 2.3,0.25 0.367,0.167 0.101,0.35 -0.8,0.55 -1.434,0.3 -2.2,0.467 -2.3,0.5 -0.467,0.167 -0.767,0.05 -0.9,-0.35 z"
   id="path28"
   inkscape:connector-curvature="0" />
	<path
   style="clip-rule:evenodd;fill:#fff464;fill-rule:evenodd"
   d="m 26.15,10.3 0.25,-0.15 c 0.199,-0.066 0.416,-0.017 0.649,0.15 0.334,0.233 0.417,0.833 0.25,1.8 z"
   id="path30"
   inkscape:connector-curvature="0" />
	<path
   style="clip-rule:evenodd;fill:#fff464;fill-rule:evenodd"
   d="m 20.6,18.4 c 0.433,0 0.6,0.116 0.5,0.35 -0.066,0.233 -0.283,0.417 -0.649,0.55 -1.333,0.566 -2.1,1.117 -2.3,1.65 -0.1,0.233 -0.566,0.149 -1.4,-0.25 -1.133,-0.533 -1.816,-0.834 -2.05,-0.9 -0.333,-0.066 -0.284,-0.116 0.15,-0.149 0.8,-0.101 1.383,-0.267 1.75,-0.5 C 17.3,18.717 18.633,18.467 20.6,18.4 Z"
   id="path32"
   inkscape:connector-curvature="0" />
	<path
   style="clip-rule:evenodd;fill:#fff464;fill-rule:evenodd"
   d="m 25.75,17.75 c 0.333,-0.434 1.017,-0.134 2.05,0.9 0.233,0.233 0.634,0.449 1.2,0.649 0.6,0.233 0.967,0.4 1.1,0.5 0.233,0.167 -0.083,0.25 -0.949,0.25 -1.067,-0.066 -1.733,-0.1 -2,-0.1 -0.301,0 -0.817,-0.15 -1.551,-0.45 l -1,-0.45 z"
   id="path34"
   inkscape:connector-curvature="0" />
	<path
   style="clip-rule:evenodd;fill:#fff464;fill-rule:evenodd"
   d="m 30,13.5 c 0,-0.3 0.3,-0.3 0.9,0 0.5,0.267 0.933,0.566 1.3,0.9 0.166,0.167 0.7,0.25 1.6,0.25 0.967,-0.033 1.584,0.017 1.851,0.15 0.433,0.167 0.083,0.35 -1.051,0.55 -1.133,0.2 -1.982,0.267 -2.55,0.2 C 31.583,15.484 31.116,15.167 30.651,14.6 30.217,14.133 30,13.767 30,13.5 Z"
   id="path36"
   inkscape:connector-curvature="0" />
	<path
   style="clip-rule:evenodd;fill:#fff464;fill-rule:evenodd"
   d="m 12.25,22 1.15,2.3 c 0.534,1.101 0.45,2 -0.25,2.7 -0.3,0.3 -0.5,0.033 -0.6,-0.8 C 12.417,25.433 12.4,24.884 12.5,24.55 12.6,24.217 12.517,23.366 12.25,22 Z"
   id="path38"
   inkscape:connector-curvature="0" />
	<path
   style="clip-rule:evenodd;fill:#e3c056;fill-rule:evenodd"
   d="m 8.5,15.4 c 0.133,-0.367 0.4,-0.333 0.8,0.1 0.4,0.467 0.517,0.833 0.35,1.1 -0.133,0.267 -0.4,0.25 -0.8,-0.05 C 8.483,16.217 8.367,15.833 8.5,15.4 Z"
   id="path40"
   inkscape:connector-curvature="0" />
	<path
   style="clip-rule:evenodd;fill:#e3c056;fill-rule:evenodd"
   d="m 22.65,23 c 0.267,-0.066 0.383,0.1 0.35,0.5 -0.033,0.4 -0.233,0.667 -0.6,0.8 C 22,24.434 21.816,24.283 21.849,23.85 21.884,23.417 22.15,23.134 22.65,23 Z"
   id="path42"
   inkscape:connector-curvature="0" />
	<path
   style="clip-rule:evenodd;fill:#ab903b;fill-rule:evenodd"
   d="m 6.6,20.2 -0.65,-1.95 2.7,1.55 c 0.333,0.167 0.467,0.851 0.4,2.05 z"
   id="path44"
   inkscape:connector-curvature="0" />
	<path
   style="clip-rule:evenodd;fill:#ada8a5;fill-rule:evenodd"
   d="m 4.9,25.05 1.05,0.65 c 0.044,0.061 0.085,0.127 0.125,0.2 0.263,0.072 0.572,0.121 0.925,0.15 0.467,0.033 1.15,0.05 2.05,0.05 0.634,0.034 1.634,0.4 3,1.101 0.733,0.399 1.7,0.934 2.9,1.6 0.533,0.3 1.4,0.334 2.6,0.101 1.4,-0.267 2.2,-0.384 2.4,-0.351 0.767,0.066 1.5,0.533 2.2,1.4 L 22.55,31.6 7.5,28.55 C 6.961,27.382 6.486,26.498 6.075,25.901 5.731,25.793 5.472,25.642 5.3,25.451 Z"
   id="path46"
   inkscape:connector-curvature="0" />
	<path
   style="clip-rule:evenodd;fill:#dcd5d2;fill-rule:evenodd"
   d="m 31.55,27.475 c -0.856,0.589 -1.506,0.896 -1.95,0.926 -0.025,0.002 -0.051,0.002 -0.074,0 z m -2.025,0.925 -6.975,3.2 -0.4,-1.65 c 0.866,-0.867 1.416,-1.517 1.649,-1.95 0.167,-0.233 0.8,-0.434 1.9,-0.6 0.566,-0.067 1.1,-0.117 1.6,-0.15 l 0.55,0.65 c 0.512,0.383 1.071,0.55 1.676,0.5 z m 6.525,-4.75 -0.4,1.95 -4.101,1.875 c 1.138,-0.782 2.638,-2.056 4.501,-3.825 z"
   id="path48"
   inkscape:connector-curvature="0" />
	<path
   style="clip-rule:evenodd;fill:#fff464;fill-rule:evenodd"
   d="m 28.7,22.25 1.4,2.55 c 0.367,0.767 0.25,1.334 -0.35,1.7 -0.267,0.134 -0.4,0 -0.4,-0.4 0,-0.733 0,-1.116 0,-1.149 z"
   id="path50"
   inkscape:connector-curvature="0" />
	<path
   style="clip-rule:evenodd;fill:#9e2929;fill-rule:evenodd"
   d="m 19.3,15.3 c 0.333,-0.566 1.017,-0.617 2.05,-0.15 1.034,0.434 1.384,0.917 1.051,1.45 -0.334,0.5 -1,0.534 -2,0.101 C 19.4,16.267 19.033,15.8 19.3,15.3 Z"
   id="path52"
   inkscape:connector-curvature="0" />
	<path
   style="clip-rule:evenodd;fill:#9e2929;fill-rule:evenodd"
   d="m 8.5,20.8 c 0,-0.7 0.55,-0.983 1.65,-0.85 1.067,0.133 1.6,0.55 1.6,1.25 0,0.733 -0.533,1.05 -1.6,0.95 C 9.05,22.05 8.5,21.6 8.5,20.8 Z"
   id="path54"
   inkscape:connector-curvature="0" />
	<path
   style="clip-rule:evenodd;fill:#9e2929;fill-rule:evenodd"
   d="m 18.65,21.85 c -0.267,-0.733 0.034,-1.333 0.9,-1.8 0.9,-0.5 1.601,-0.416 2.101,0.25 0.465,0.7 0.149,1.266 -0.951,1.7 -1.133,0.467 -1.817,0.417 -2.05,-0.15 z"
   id="path56"
   inkscape:connector-curvature="0" />
	<path
   style="clip-rule:evenodd;fill:#9e2929;fill-rule:evenodd"
   d="m 26,21.6 c 0.066,-0.733 0.6,-1.017 1.6,-0.85 0.967,0.167 1.334,0.667 1.101,1.5 -0.233,0.767 -0.75,1 -1.55,0.7 C 26.316,22.65 25.934,22.2 26,21.6 Z"
   id="path58"
   inkscape:connector-curvature="0" />
	<path
   style="clip-rule:evenodd;fill:#9e2929;fill-rule:evenodd"
   d="m 27.55,13.5 c -0.2,-0.567 0.217,-1.117 1.25,-1.65 1.033,-0.534 1.65,-0.55 1.851,-0.05 0.166,0.534 -0.267,1.067 -1.301,1.6 -1.034,0.567 -1.633,0.6 -1.8,0.1 z"
   id="path60"
   inkscape:connector-curvature="0" />
	<path
   style="clip-rule:evenodd;fill:#9e2929;fill-rule:evenodd"
   d="m 13,13.9 c 0.2,-0.433 0.6,-0.55 1.2,-0.35 0.633,0.2 0.883,0.534 0.75,1 -0.133,0.434 -0.534,0.534 -1.2,0.3 C 13.083,14.583 12.833,14.267 13,13.9 Z"
   id="path62"
   inkscape:connector-curvature="0" />
	<path
   style="clip-rule:evenodd;fill:#9e2929;fill-rule:evenodd"
   d="m 32.7,16.4 c 0.899,-0.233 1.417,-0.051 1.55,0.55 0.134,0.533 -0.2,0.899 -1,1.1 -0.8,0.201 -1.283,0.101 -1.45,-0.3 -0.3,-0.667 0,-1.116 0.9,-1.35 z"
   id="path64"
   inkscape:connector-curvature="0" />
	<path
   style="clip-rule:evenodd;fill:#82ae3c;fill-rule:evenodd"
   d="m 16.5,12.1 0.35,-0.3 -0.2,0.25 C 17.417,12.316 18,12.3 18.4,12 c 0.4,0.633 0.45,1.1 0.15,1.4 -0.267,-0.133 -0.5,-0.117 -0.7,0.05 -0.2,0.2 -0.4,0.267 -0.6,0.2 -0.267,-0.066 -0.483,-0.3 -0.65,-0.7 -0.166,-0.367 -0.2,-0.65 -0.1,-0.85 z"
   id="path66"
   inkscape:connector-curvature="0" />
	<path
   style="clip-rule:evenodd;fill:#82ae3c;fill-rule:evenodd"
   d="m 23.05,11.1 c 0.2,-0.034 0.5,-0.15 0.9,-0.35 0.331,-0.181 0.605,-0.297 0.825,-0.35 0.13,0.172 0.404,0.506 0.824,1 C 25.4,11.5 25.2,11.667 25,11.9 c -0.233,0.3 -0.417,0.5 -0.55,0.6 -0.667,-0.6 -1.134,-1.067 -1.4,-1.4 z"
   id="path68"
   inkscape:connector-curvature="0" />
	<path
   style="clip-rule:evenodd;fill:#82ae3c;fill-rule:evenodd"
   d="m 23.7,16.6 0.1,-0.3 c 0.167,0.167 0.667,0.15 1.5,-0.05 0.601,-0.134 0.867,0.233 0.8,1.1 -0.666,-0.033 -1.333,0.134 -2,0.5 z"
   id="path70"
   inkscape:connector-curvature="0" />
	<path
   style="clip-rule:evenodd;fill:#82ae3c;fill-rule:evenodd"
   d="m 20.45,16.95 0.3,-0.25 c 0.6,0.166 0.967,0.416 1.1,0.75 -0.399,0 -0.85,0.217 -1.35,0.649 -0.433,-0.267 -0.733,-0.6 -0.9,-1 0.267,-0.165 0.55,-0.215 0.85,-0.149 z"
   id="path72"
   inkscape:connector-curvature="0" />
	<path
   style="clip-rule:evenodd;fill:#82ae3c;fill-rule:evenodd"
   d="m 12.1,20.2 v 0.1 c 0.767,-0.267 1.233,-0.383 1.4,-0.35 0.1,0.666 0.05,1.149 -0.15,1.45 -0.233,0.333 -0.684,0.483 -1.35,0.449 0,-0.932 0.033,-1.483 0.1,-1.649 z"
   id="path74"
   inkscape:connector-curvature="0" />
	<path
   style="clip-rule:evenodd;fill:#82ae3c;fill-rule:evenodd"
   d="m 16.75,21.45 v 0.15 c 0.367,-0.066 0.717,0.017 1.05,0.25 0.4,0.267 0.384,0.601 -0.05,1 -0.4,-0.1 -0.733,-0.3 -1,-0.6 -0.3,-0.333 -0.3,-0.6 0,-0.8 z"
   id="path76"
   inkscape:connector-curvature="0" />
	<path
   style="clip-rule:evenodd;fill:#82ae3c;fill-rule:evenodd"
   d="m 26.3,19.575 c 0.225,-0.288 0.475,-0.363 0.75,-0.226 0.334,0.167 0.316,0.483 -0.05,0.95 -0.333,0.4 -0.684,0.533 -1.05,0.4 -0.334,-0.134 -0.434,-0.467 -0.3,-1 0.183,-0.13 0.4,-0.172 0.65,-0.124 z"
   id="path78"
   inkscape:connector-curvature="0" />
	<path
   style="clip-rule:evenodd;fill:#82ae3c;fill-rule:evenodd"
   d="m 31.8,15.05 h -0.25 c 1,0.067 1.584,0.434 1.75,1.101 -0.2,0 -0.6,0.066 -1.2,0.199 -0.466,0.134 -0.8,0.134 -1,0 -0.466,-0.3 -0.583,-0.616 -0.35,-0.95 0.2,-0.334 0.55,-0.45 1.05,-0.35 z"
   id="path80"
   inkscape:connector-curvature="0" />
	<path
   style="clip-rule:evenodd;fill:#82ae3c;fill-rule:evenodd"
   d="m 13,16.05 0.15,-0.1 c -0.133,0.2 -0.167,0.366 -0.1,0.5 0.067,0 0.617,0.133 1.65,0.399 -0.367,0.267 -0.55,0.65 -0.55,1.15 -0.466,-0.033 -0.85,-0.083 -1.15,-0.15 -0.5,-0.1 -0.8,-0.267 -0.9,-0.5 -0.067,-0.199 0.033,-0.483 0.3,-0.85 0.267,-0.332 0.467,-0.482 0.6,-0.449 z"
   id="path82"
   inkscape:connector-curvature="0" />
	<path
   style="clip-rule:evenodd;fill:#82ae3c;fill-rule:evenodd"
   d="m 16.4,14.3 c 0.278,-0.044 0.561,0.006 0.85,0.15 0.4,0.2 0.4,0.483 0,0.85 -0.367,0.267 -0.683,0.217 -0.95,-0.15 -0.278,-0.339 -0.244,-0.623 0.1,-0.85 z"
   id="path84"
   inkscape:connector-curvature="0" />
	<path
   style="clip-rule:evenodd;fill:#82ae3c;fill-rule:evenodd"
   d="M 23.75,12.725 23.7,12.7 c 0.533,-0.2 0.767,-0.117 0.7,0.25 -0.101,0.4 -0.334,0.616 -0.7,0.65 -0.434,0.033 -0.584,-0.15 -0.45,-0.55 0.088,-0.242 0.255,-0.35 0.5,-0.325 z"
   id="path86"
   inkscape:connector-curvature="0" />
	<path
   style="clip-rule:evenodd;fill:#82ae3c;fill-rule:evenodd"
   d="m 26.975,13.5 c 0.431,-0.154 0.788,0.012 1.075,0.5 -0.2,0.5 -0.75,0.75 -1.649,0.75 -0.067,-0.434 -0.017,-0.85 0.149,-1.25 z"
   id="path88"
   inkscape:connector-curvature="0" />
	<path
   style="clip-rule:evenodd;fill:#9e2929;fill-rule:evenodd"
   d="m 20.85,11.3 c 0.133,-0.4 0.6,-0.6 1.4,-0.6 0.833,0.033 1.184,0.316 1.05,0.85 -0.133,0.534 -0.6,0.733 -1.399,0.6 C 21.066,11.983 20.717,11.7 20.85,11.3 Z"
   id="path90"
   inkscape:connector-curvature="0" />
	<path
   style="clip-rule:evenodd;fill:#9e2929;fill-rule:evenodd"
   d="M 7.75,18.4 7.6,18.75 c 0.467,-0.134 0.733,0.05 0.8,0.55 0.067,0.5 -0.1,0.834 -0.5,1 -0.767,0.3 -1.1,0.117 -1,-0.55 C 7,19.116 7.283,18.667 7.75,18.4 Z"
   id="path92"
   inkscape:connector-curvature="0" />
	<path
   style="clip-rule:evenodd;fill:#9e2929;fill-rule:evenodd"
   d="m 28.05,18.5 v 0.15 c 0.367,-0.101 0.684,-0.084 0.95,0.05 0.3,0.133 0.45,0.366 0.45,0.7 -0.733,0.066 -1.283,0.1 -1.65,0.1 -0.1,-0.4 -0.017,-0.733 0.25,-1 z"
   id="path94"
   inkscape:connector-curvature="0" />
	<path
   style="clip-rule:evenodd;fill:#d9bc00;fill-rule:evenodd"
   d="m 24.6,18.4 0.25,-0.15 c -0.199,0.2 -0.25,0.4 -0.149,0.6 0.033,0.101 0.133,0.233 0.3,0.4 0.134,0.267 0.267,0.684 0.4,1.25 0.199,0.634 0.583,1.566 1.149,2.8 0.134,0.467 0.2,0.75 0.2,0.851 0.033,0.333 -0.1,0.55 -0.4,0.649 -0.233,0.101 -0.416,0.033 -0.55,-0.2 -0.033,-0.033 -0.116,-0.25 -0.25,-0.649 -0.5,-1.3 -0.767,-2.316 -0.8,-3.05 H 24.6 c -0.199,-0.434 -0.366,-0.65 -0.5,-0.65 -0.133,0 -0.383,0.15 -0.75,0.45 -0.166,0.133 -0.517,0.35 -1.05,0.649 -0.434,0.233 -0.75,0.483 -0.95,0.75 -0.233,0.334 -0.383,0.667 -0.45,1 -0.033,0.2 -0.05,0.584 -0.05,1.15 0,0.634 -0.117,1.384 -0.35,2.25 -0.066,0.267 -0.183,0.467 -0.35,0.6 -0.233,0.2 -0.4,0.117 -0.5,-0.25 -0.033,-0.1 0,-0.333 0.1,-0.699 0.133,-0.434 0.2,-0.7 0.2,-0.801 -0.033,-0.666 -0.05,-1.15 -0.05,-1.45 0.034,-0.534 0.15,-0.983 0.35,-1.351 0.133,-0.233 0.483,-0.566 1.05,-1 0.267,-0.233 0.601,-0.649 1,-1.25 0.267,-0.233 0.566,-0.649 0.9,-1.25 0.133,-0.267 0.316,-0.483 0.55,-0.649 0.333,-0.2 0.616,-0.2 0.85,0 z"
   id="path96"
   inkscape:connector-curvature="0" />
	<path
   style="clip-rule:evenodd;fill:#d9bc00;fill-rule:evenodd"
   d="m 17.9,12.8 c -0.133,0.034 -0.2,0.15 -0.2,0.35 0.033,0.2 0.1,0.367 0.2,0.5 0.133,0.133 0.3,0.217 0.5,0.25 0.1,0.033 0.284,0.067 0.55,0.1 1.033,0.333 1.35,0.667 0.95,1 -0.1,0.1 -0.267,0.15 -0.5,0.15 -0.233,0 -0.4,0.017 -0.5,0.05 -0.1,0.033 -0.183,0.1 -0.25,0.2 -0.1,0.1 -0.25,0.15 -0.45,0.15 -0.2,0 -0.5,-0.066 -0.9,-0.2 -0.4,-0.167 -0.7,-0.25 -0.9,-0.25 0.633,-0.034 1.017,-0.333 1.15,-0.9 -0.033,-0.367 -0.05,-0.65 -0.05,-0.85 -0.033,-0.367 0.05,-0.583 0.25,-0.65 z"
   id="path98"
   inkscape:connector-curvature="0" />
	<path
   style="clip-rule:evenodd;fill:#d9bc00;fill-rule:evenodd"
   d="m 27.6,10.85 0.351,0.2 c 0.133,0.167 0.383,0.35 0.75,0.55 0.233,0.2 0.184,0.433 -0.15,0.7 -0.366,0.2 -0.649,0.367 -0.85,0.5 -0.3,0.2 -0.434,0.467 -0.4,0.8 -0.434,-0.067 -0.483,-0.45 -0.149,-1.15 0.233,-0.333 0.383,-0.567 0.449,-0.7 C 27.7,11.483 27.7,11.183 27.6,10.85 Z"
   id="path100"
   inkscape:connector-curvature="0" />
	<path
   style="clip-rule:evenodd;fill:#fff464;fill-rule:evenodd"
   d="m 34.45,17.65 h 0.1 c 1.033,1.199 1.384,1.85 1.05,1.949 -0.267,0.101 -0.55,-0.166 -0.85,-0.8 -0.3,-0.599 -0.4,-0.983 -0.3,-1.149 z"
   id="path102"
   inkscape:connector-curvature="0" />
	<path
   style="clip-rule:evenodd;fill:#fff464;fill-rule:evenodd"
   d="m 23.1,17.35 c 0.134,0.101 0.15,0.301 0.051,0.601 -0.2,0.467 -0.551,0.7 -1.051,0.7 -0.11,-0.774 0.04,-1.274 0.45,-1.5 0.334,0.099 0.516,0.165 0.55,0.199 z"
   id="path104"
   inkscape:connector-curvature="0" />
	<path
   style="clip-rule:evenodd;fill:#fff464;fill-rule:evenodd"
   d="m 15.65,17.95 c 0.135,-0.203 0.385,-0.319 0.75,-0.351 0.333,-0.033 0.633,0 0.9,0.101 -0.2,0.233 -0.5,0.45 -0.9,0.649 -0.433,0.233 -0.783,0.317 -1.05,0.25 -0.4,-0.166 -0.4,-0.35 0,-0.55 0.099,-0.04 0.199,-0.073 0.3,-0.099 z"
   id="path106"
   inkscape:connector-curvature="0" />
	<path
   style="clip-rule:evenodd;fill:#bd5a2f;fill-rule:evenodd"
   d="m 26.6,14.95 -0.2,-0.05 0.449,-0.3 c 0.134,0.167 0.301,0.2 0.5,0.1 0.301,-0.167 0.467,-0.25 0.5,-0.25 0.267,-0.034 0.45,0.033 0.551,0.2 0.1,0.133 0.066,0.317 -0.101,0.55 -0.066,0.1 -0.267,0.216 -0.6,0.35 -0.267,0.133 -0.384,0.3 -0.351,0.5 0.034,0.233 0.417,0.566 1.15,1 -0.1,0.4 -0.233,0.584 -0.4,0.55 -0.267,-0.133 -0.5,-0.25 -0.699,-0.35 -0.367,-0.033 -0.634,-0.083 -0.801,-0.15 -0.199,-0.233 -0.366,-0.399 -0.5,-0.5 -0.3,-0.166 -0.483,-0.283 -0.55,-0.35 -0.066,-0.033 -0.066,-0.2 0,-0.5 0.169,-0.6 0.518,-0.867 1.052,-0.8 z"
   id="path108"
   inkscape:connector-curvature="0" />
	<path
   style="clip-rule:evenodd;fill:#bd5a2f;fill-rule:evenodd"
   d="m 32.2,18.05 c 0.133,0.101 0.267,0.267 0.399,0.5 0.2,0.167 0.551,0.334 1.051,0.5 0.366,0.2 0.449,0.533 0.25,1 -0.567,-0.2 -0.983,-0.3 -1.25,-0.3 -0.167,0 -0.351,0.05 -0.551,0.15 -0.199,0.133 -0.366,0.2 -0.499,0.2 -0.3,0.067 -0.483,0.017 -0.55,-0.149 -0.066,-0.233 -0.133,-0.417 -0.2,-0.55 -0.133,-0.167 -0.267,-0.267 -0.399,-0.301 -0.2,0 -0.4,-0.033 -0.601,-0.1 0.067,-0.3 0.317,-0.483 0.75,-0.55 0.208,-0.018 0.399,-0.009 0.575,0.024 0.065,-0.047 0.124,-0.122 0.175,-0.225 0.101,-0.233 0.2,-0.366 0.301,-0.4 0.199,-0.066 0.382,0.001 0.549,0.201 z"
   id="path110"
   inkscape:connector-curvature="0" />
	<path
   style="clip-rule:evenodd;fill:#bd5a2f;fill-rule:evenodd"
   d="M 18.4,16.2 18.025,16.224 18.05,16.2 c 0.1,-0.066 0.217,-0.066 0.35,0 z M 17,16.75 c 0.233,-0.033 0.483,-0.134 0.75,-0.3 l 0.1,-0.101 c 0.154,0.046 0.321,0.013 0.5,-0.1 0.167,-0.066 0.383,-0.233 0.65,-0.5 0,0.033 0.2,0.233 0.6,0.6 0.233,0.2 0.25,0.384 0.05,0.551 -0.033,0.066 -0.167,0.083 -0.4,0.05 -0.233,0 -0.383,0.017 -0.45,0.05 -0.167,0.1 -0.233,0.2 -0.2,0.3 0.033,0.167 0.033,0.283 0,0.351 -0.133,0.333 -0.3,0.449 -0.5,0.35 -0.3,-0.2 -0.567,-0.333 -0.8,-0.4 -0.133,-0.033 -0.45,-0.017 -0.95,0.051 -0.434,0.066 -0.717,0.033 -0.85,-0.101 0.233,-0.401 0.733,-0.667 1.5,-0.801 z"
   id="path112"
   inkscape:connector-curvature="0" />
	<path
   style="clip-rule:evenodd;fill:#bd5a2f;fill-rule:evenodd"
   d="m 14.6,18.65 c 0.233,-0.067 0.433,-0.034 0.6,0.1 -0.034,0.066 -0.15,0.15 -0.35,0.25 -0.167,0.1 -0.267,0.2 -0.3,0.3 0,0.066 0.083,0.167 0.25,0.3 0.134,0.167 0.2,0.3 0.2,0.4 -0.133,-0.033 -0.3,-0.017 -0.5,0.05 -0.267,0.101 -0.433,0.15 -0.5,0.15 -0.467,-0.134 -0.816,-0.217 -1.05,-0.25 -0.5,-0.101 -0.867,-0.066 -1.1,0.1 -0.067,0.033 -0.15,0.15 -0.25,0.351 -0.1,0.133 -0.233,0.216 -0.4,0.25 -0.167,0 -0.3,-0.067 -0.4,-0.2 -0.133,-0.233 -0.233,-0.367 -0.3,-0.4 l -1,-0.25 c -0.4,0.101 -0.733,0.167 -1,0.2 -0.5,0.066 -0.733,-0.1 -0.7,-0.5 0.3,-0.033 0.733,0.033 1.3,0.2 v -0.2 c 0.233,-0.167 0.55,-0.217 0.95,-0.15 0.5,0.101 0.817,0.134 0.95,0.101 0.1,-0.334 0.6,-0.434 1.5,-0.3 0.9,0.166 1.45,0.017 1.65,-0.45 L 14.1,18.85 V 19 c 0.133,-0.167 0.3,-0.283 0.5,-0.35 z"
   id="path114"
   inkscape:connector-curvature="0" />
	<path
   style="clip-rule:evenodd;fill:#bd5a2f;fill-rule:evenodd"
   d="m 20.75,11.05 0.65,-0.225 c -0.428,0.157 -0.562,0.349 -0.4,0.575 0.333,0.333 0.483,0.583 0.45,0.75 -0.2,0.067 -0.434,0.05 -0.7,-0.05 -0.266,-0.1 -0.467,-0.15 -0.6,-0.15 -0.1,0 -0.283,0.116 -0.55,0.35 -0.233,0.167 -0.434,0.217 -0.6,0.15 0.233,-0.2 0.35,-0.417 0.35,-0.65 -0.233,-0.267 -0.333,-0.517 -0.3,-0.75 0.233,-0.1 0.534,-0.15 0.9,-0.15 0.366,0 0.633,0.05 0.8,0.15 z"
   id="path116"
   inkscape:connector-curvature="0" />
	<path
   style="clip-rule:evenodd;fill:#bd5a2f;fill-rule:evenodd"
   d="m 22.1,19.35 c 0.167,-0.033 0.384,-0.1 0.65,-0.199 0.156,-0.039 0.306,-0.048 0.45,-0.025 0.104,0.028 0.203,0.069 0.3,0.125 0.021,0.044 0.021,0.102 0,0.175 0.087,0.061 0.188,0.119 0.3,0.175 0.367,0.2 0.601,0.384 0.7,0.551 l -0.45,0.448 -0.7,0.351 c -0.233,0.1 -0.416,0.2 -0.55,0.3 -0.133,0.2 -0.25,0.333 -0.35,0.4 -0.134,0.166 -0.267,0.267 -0.4,0.3 -0.5,0.133 -0.666,-0.15 -0.5,-0.851 0.2,-0.767 0.117,-1.199 -0.25,-1.3 -0.033,-0.3 0.05,-0.467 0.25,-0.5 0.1,0 0.283,0.016 0.55,0.05 z"
   id="path118"
   inkscape:connector-curvature="0" />
	<path
   style="clip-rule:evenodd;fill:#bd5a2f;fill-rule:evenodd"
   d="m 29.15,10.3 c 0.166,0 0.5,0.184 1,0.55 0.433,0.333 0.716,0.417 0.85,0.25 l -0.05,0.25 c 0.166,0.133 0.45,0.183 0.85,0.15 -0.7,0.566 -1.133,0.85 -1.3,0.85 -0.1,0 -0.25,-0.1 -0.45,-0.3 -0.166,-0.167 -0.35,-0.25 -0.55,-0.25 -0.366,0.1 -0.616,0.15 -0.75,0.15 -0.2,0 -0.417,-0.15 -0.65,-0.45 -0.5,-0.733 -0.716,-1.184 -0.649,-1.35 0.2,0 0.45,0.133 0.75,0.4 0.332,0.1 0.649,0.016 0.949,-0.25 z"
   id="path120"
   inkscape:connector-curvature="0" />
	<path
   style="clip-rule:evenodd;fill:#bd5a2f;fill-rule:evenodd"
   d="m 22.05,13.85 c 0.125,-0.311 0.425,-0.361 0.9,-0.15 0.03,0.015 0.063,0.032 0.1,0.05 -0.01,0.254 -0.094,0.537 -0.25,0.85 -0.633,-0.167 -0.883,-0.417 -0.75,-0.75 z"
   id="path122"
   inkscape:connector-curvature="0" />
</g>
</svg>