<?xml version="1.0" encoding="UTF-8" standalone="no"?>
<!-- Generator: Adobe Illustrator 15.1.0, SVG Export Plug-In . SVG Version: 6.00 Build 0)  -->

<svg
   xmlns:dc="http://purl.org/dc/elements/1.1/"
   xmlns:cc="http://creativecommons.org/ns#"
   xmlns:rdf="http://www.w3.org/1999/02/22-rdf-syntax-ns#"
   xmlns:svg="http://www.w3.org/2000/svg"
   xmlns="http://www.w3.org/2000/svg"
   xmlns:sodipodi="http://sodipodi.sourceforge.net/DTD/sodipodi-0.dtd"
   xmlns:inkscape="http://www.inkscape.org/namespaces/inkscape"
   version="1.1"
   id="flash0.ai"
   x="0px"
   y="0px"
   width="256"
   height="256"
   viewBox="0 0 256 256.00001"
   xml:space="preserve"
   sodipodi:docname="popcorn.svg"
   inkscape:version="0.92.4 (5da689c313, 2019-01-14)"><title
   id="title944">Popcorn</title><metadata
   id="metadata137"><rdf:RDF><cc:Work
       rdf:about=""><dc:format>image/svg+xml</dc:format><dc:type
         rdf:resource="http://purl.org/dc/dcmitype/StillImage" /><dc:title>Popcorn</dc:title><cc:license
         rdf:resource="http://creativecommons.org/publicdomain/zero/1.0/" /><dc:creator><cc:Agent><dc:title>Glitch</dc:title></cc:Agent></dc:creator><dc:source>https://opengameart.org/node/20149</dc:source></cc:Work><cc:License
       rdf:about="http://creativecommons.org/publicdomain/zero/1.0/"><cc:permits
         rdf:resource="http://creativecommons.org/ns#Reproduction" /><cc:permits
         rdf:resource="http://creativecommons.org/ns#Distribution" /><cc:permits
         rdf:resource="http://creativecommons.org/ns#DerivativeWorks" /></cc:License></rdf:RDF></metadata><defs
   id="defs135" /><sodipodi:namedview
   pagecolor="#ffffff"
   bordercolor="#666666"
   borderopacity="1"
   objecttolerance="10"
   gridtolerance="10"
   guidetolerance="10"
   inkscape:pageopacity="0"
   inkscape:pageshadow="2"
   inkscape:window-width="1920"
   inkscape:window-height="1025"
   id="namedview133"
   showgrid="false"
   inkscape:zoom="0.89526398"
   inkscape:cx="11.649044"
   inkscape:cy="125.84322"
   inkscape:window-x="-8"
   inkscape:window-y="-8"
   inkscape:window-maximized="1"
   inkscape:current-layer="flash0.ai"
   fit-margin-top="0"
   fit-margin-left="0"
   fit-margin-right="0"
   fit-margin-bottom="0" />
<g
   id="g130"
   transform="matrix(5.4931701,0,0,5.4931701,18.86523,0.13453572)">
	<path
   style="clip-rule:evenodd;fill:#9c9797;fill-rule:evenodd"
   d="M 36.962,9.794 2.958,8.558 3.03,7.177 C 2.982,6.936 3.007,6.645 3.103,6.306 3.298,5.676 3.685,5.192 4.267,4.853 4.895,4.514 5.696,4.393 6.663,4.49 7.149,4.538 7.561,4.61 7.9,4.708 7.9,4.562 7.948,4.393 8.045,4.198 8.239,3.811 8.552,3.544 8.99,3.399 9.717,3.156 10.636,3.036 11.75,3.036 11.798,2.793 11.944,2.528 12.186,2.237 12.671,1.703 13.422,1.364 14.44,1.219 c 1.598,-0.243 3.002,-0.291 4.213,-0.145 0.146,-0.195 0.364,-0.388 0.655,-0.582 0.531,-0.387 1.09,-0.558 1.671,-0.508 0.872,0.096 1.913,0.871 3.124,2.324 L 24.9,2.019 c 0.678,-0.145 1.309,-0.169 1.89,-0.072 0.872,0.145 1.525,0.823 1.962,2.035 h 2.906 c 0.774,0.096 1.38,0.702 1.816,1.816 h 0.653 c 0.484,0.048 0.994,0.217 1.526,0.508 0.776,0.484 1.211,1.647 1.309,3.488 z"
   id="path2"
   inkscape:connector-curvature="0" />
	<path
   style="clip-rule:evenodd;fill:#e79d9c;fill-rule:evenodd"
   d="M 22.213,30.138 V 15.896 h 0.508 c -0.049,0.873 -0.024,3.368 0.073,7.484 0.097,3.1 -0.098,5.352 -0.581,6.758 z"
   id="path4"
   inkscape:connector-curvature="0" />
	<path
   style="clip-rule:evenodd;fill:#e79d9c;fill-rule:evenodd"
   d="m 25.482,18.075 c -0.049,0.291 -0.024,1.309 0.072,3.053 0.048,1.307 -0.169,2.107 -0.654,2.396 0.05,-0.289 0.05,-1.307 0,-3.051 -0.096,-1.308 0.098,-2.107 0.582,-2.398 z"
   id="path6"
   inkscape:connector-curvature="0" />
	<path
   style="clip-rule:evenodd;fill:#d52d37;fill-rule:evenodd"
   d="m 24.465,35.005 c -0.097,2.18 -0.121,3.464 -0.072,3.852 -0.243,0.241 -0.532,0.702 -0.872,1.379 -0.291,0.438 -0.727,0.34 -1.308,-0.289 v -7.629 c 0.242,0 0.581,-0.024 1.017,-0.074 0.34,-0.048 0.532,-0.217 0.581,-0.508 0.533,0.532 0.75,1.621 0.654,3.269 z"
   id="path8"
   inkscape:connector-curvature="0" />
	<path
   style="clip-rule:evenodd;fill:#dcd5d2;fill-rule:evenodd"
   d="m 24.9,38.856 c 0.63,-0.34 0.993,-1.066 1.09,-2.18 0.339,0 0.558,0.266 0.654,0.799 0.048,0.532 0.194,0.823 0.436,0.871 v 1.6 l -1.598,1.67 c -0.484,0.049 -0.703,-0.291 -0.654,-1.018 0.096,-1.065 0.122,-1.645 0.072,-1.742 z"
   id="path10"
   inkscape:connector-curvature="0" />
	<path
   style="clip-rule:evenodd;fill:#9c9797;fill-rule:evenodd"
   d="M 9.789,5.435 C 9.449,5.531 8.843,5.555 7.972,5.507 7.681,4.732 7.996,4.198 8.915,3.907 9.884,3.618 10.49,3.786 10.731,4.417 10.684,4.949 10.369,5.288 9.789,5.435 Z"
   id="path12"
   inkscape:connector-curvature="0" />
	<path
   style="clip-rule:evenodd;fill:#f2db8b;fill-rule:evenodd"
   d="m 31.803,5.435 c -0.049,0.727 0.023,1.307 0.219,1.742 0,0.195 -0.121,0.438 -0.363,0.727 C 31.464,8.147 31.416,8.438 31.513,8.777 31.076,8.583 30.763,8.462 30.569,8.414 30.278,8.268 30.037,8.39 29.842,8.777 29.599,8.729 29.333,8.534 29.042,8.195 28.752,7.904 28.461,7.736 28.17,7.687 c 0.098,-0.339 0.291,-0.485 0.582,-0.436 0.339,0 0.531,0.145 0.581,0.436 C 29.526,7.639 29.696,7.444 29.842,7.105 29.987,6.766 30.181,6.597 30.423,6.597 29.89,6.161 29.599,5.87 29.551,5.724 29.405,5.435 29.697,5.168 30.423,4.925 c 0.34,0.097 0.509,-0.072 0.509,-0.508 0.63,0.291 0.921,0.63 0.871,1.018 z"
   id="path14"
   inkscape:connector-curvature="0" />
	<path
   style="clip-rule:evenodd;fill:#f2db8b;fill-rule:evenodd"
   d="m 17.781,2.745 c 0.532,0.534 0.654,1.284 0.363,2.252 -0.146,0.485 -0.436,1.212 -0.873,2.18 C 16.594,7.081 16.328,6.79 16.472,6.306 16.618,5.822 16.52,5.556 16.181,5.507 V 4.417 C 15.165,4.32 14.607,4.489 14.511,4.925 13.59,5.652 12.404,6.112 10.95,6.306 9.449,6.402 8.456,6.5 7.972,6.597 H 7.39 v -1.09 h 0.582 c 0.871,0.048 1.477,0.024 1.816,-0.072 0.58,-0.146 0.896,-0.485 0.943,-1.018 0.291,-0.678 1.285,-1.042 2.98,-1.09 1.937,-0.048 3.123,-0.243 3.559,-0.582 z"
   id="path16"
   inkscape:connector-curvature="0" />
	<path
   style="clip-rule:evenodd;fill:#f2db8b;fill-rule:evenodd"
   d="m 26.572,4.417 c -0.146,0.532 0.048,0.993 0.581,1.381 0.484,0.339 0.653,0.799 0.509,1.379 C 27.031,7.227 26.62,7.009 26.427,6.525 26.233,5.846 26.088,5.313 25.99,4.925 25.022,5.361 24.368,5.628 24.029,5.724 23.497,5.87 22.696,5.798 21.631,5.507 c 0.242,0.436 0.678,0.993 1.309,1.67 0.339,0.582 0.096,1.114 -0.727,1.6 0.145,0.484 0.459,0.484 0.944,0 0.581,-0.678 1.162,-0.849 1.743,-0.51 0.242,0.727 0.073,1.26 -0.508,1.6 -0.484,0.291 -0.484,0.654 0,1.09 0.822,0.048 1.356,-0.315 1.598,-1.09 0.242,0 0.485,0.217 0.727,0.654 0.194,0.387 0.509,0.532 0.945,0.436 -0.049,0.291 -0.146,0.58 -0.291,0.871 -0.097,0.243 0,0.51 0.291,0.799 0.29,-0.048 0.508,-0.289 0.653,-0.727 0.193,-0.532 0.34,-0.847 0.437,-0.943 0.29,0 0.605,0.241 0.944,0.727 0.29,0.387 0.703,0.508 1.235,0.363 0,0.145 -0.097,0.315 -0.291,0.508 -0.146,0.194 -0.218,0.388 -0.218,0.582 -1.212,0.145 -2.107,0.315 -2.688,0.508 -0.823,0.339 -1.574,0.897 -2.252,1.672 -0.049,-0.388 -0.437,-0.436 -1.163,-0.146 -0.822,0.438 -1.356,0.679 -1.599,0.727 h -1.09 c -0.049,-0.58 0.146,-0.943 0.582,-1.09 -0.484,-0.387 -0.8,-0.702 -0.945,-0.943 -0.29,-0.485 -0.34,-1.09 -0.145,-1.816 -0.631,-0.194 -1.114,0 -1.453,0.58 -0.185,0.254 -0.221,0.423 -0.109,0.51 -0.586,0.141 -1.059,0.552 -1.417,1.234 -0.582,1.066 -0.315,1.768 0.799,2.107 -0.097,0.194 -0.363,0.387 -0.799,0.582 -0.291,0.241 -0.412,0.58 -0.363,1.016 -0.194,0.05 -0.436,0.243 -0.727,0.582 -0.291,0.291 -0.582,0.46 -0.873,0.508 -0.532,-0.484 -0.919,-0.847 -1.162,-1.09 -0.387,-0.436 -0.556,-0.968 -0.508,-1.598 -0.339,0.339 -0.703,0.508 -1.09,0.508 -0.485,0.146 -0.654,0.51 -0.51,1.09 -0.774,-0.241 -1.138,-0.774 -1.09,-1.598 v -0.582 c -0.387,-0.387 -0.58,-0.75 -0.58,-1.09 0.484,-0.145 0.799,0 0.943,0.438 0.05,0.048 0.098,0.459 0.146,1.234 0.58,-0.63 1.381,-0.896 2.396,-0.799 0.825,0.096 1.309,-0.194 1.453,-0.873 0.582,0.146 0.727,0.438 0.438,0.873 -0.438,0.58 -0.582,1.018 -0.438,1.307 0.921,-0.145 1.381,-0.508 1.381,-1.09 -0.193,-0.871 -0.291,-1.598 -0.291,-2.18 -0.339,0.291 -0.604,0.388 -0.799,0.291 -0.241,-0.096 -0.339,-0.387 -0.291,-0.871 h 1.09 c 0.05,-0.582 -0.121,-1.042 -0.508,-1.381 -0.048,-0.048 -0.436,-0.315 -1.162,-0.799 0.048,-0.291 0.241,-0.558 0.58,-0.799 0.291,-0.291 0.461,-0.558 0.51,-0.801 0.678,0.388 1.72,0.51 3.124,0.363 0.759,-0.091 1.353,-0.03 1.78,0.182 C 21.134,9.345 20.977,8.656 21.12,7.833 21.362,6.574 21.168,5.605 20.538,4.927 20.054,5.073 19.885,5.437 20.03,6.017 19.399,5.776 19.108,5.437 19.158,4.999 19.207,4.322 19.135,3.765 18.94,3.329 c 0.63,0.775 1.285,1.065 1.961,0.871 0.437,-0.145 1.235,-0.436 2.398,-0.871 0,0.25 -0.109,0.517 -0.327,0.799 0.235,-0.153 0.538,-0.129 0.908,0.072 0.532,0.291 0.872,0.17 1.017,-0.363 0.582,0 0.945,0.024 1.09,0.072 0.342,0.048 0.536,0.217 0.585,0.508 z"
   id="path18"
   inkscape:connector-curvature="0" />
	<path
   style="clip-rule:evenodd;fill:#f9eebc;fill-rule:evenodd"
   d="M 24.9,3.835 C 24.755,4.369 24.416,4.489 23.883,4.198 23.513,3.997 23.21,3.972 22.975,4.126 23.193,3.844 23.302,3.577 23.302,3.327 22.139,3.763 21.34,4.054 20.904,4.198 20.227,4.392 19.573,4.102 18.943,3.327 c 0.195,0.436 0.267,0.993 0.218,1.67 -0.05,0.438 0.241,0.776 0.872,1.018 -0.146,-0.58 0.023,-0.943 0.508,-1.09 0.63,0.678 0.824,1.647 0.582,2.906 -0.144,0.823 0.014,1.513 0.472,2.07 C 21.167,9.69 20.574,9.629 19.815,9.719 18.411,9.865 17.37,9.743 16.691,9.356 c -0.048,0.243 -0.219,0.51 -0.51,0.801 -0.339,0.241 -0.532,0.508 -0.58,0.799 0.727,0.484 1.114,0.75 1.162,0.799 0.387,0.339 0.558,0.799 0.508,1.381 h -1.09 c 0,-0.194 -0.121,-0.339 -0.363,-0.436 -0.339,0 -0.58,-0.024 -0.727,-0.074 v -2.18 h 0.51 c -0.048,-0.289 -0.412,-0.58 -1.09,-0.871 -0.534,-0.194 -0.703,-0.63 -0.51,-1.309 -1.937,1.26 -3.22,2.519 -3.85,3.779 C 9.617,11.657 9.182,11.367 8.842,11.172 8.31,10.833 7.656,10.761 6.881,10.955 c 0.339,0.436 0.871,0.799 1.598,1.09 0,0.241 -0.121,0.387 -0.363,0.436 -0.339,0.048 -0.58,0.097 -0.727,0.145 0,-0.193 -0.121,-0.339 -0.363,-0.436 -0.339,-0.048 -0.58,-0.096 -0.727,-0.145 0.339,-1.162 0.339,-1.987 0,-2.471 C 5.669,8.944 5.137,8.315 4.701,7.685 4.701,7.151 5.088,6.862 5.863,6.812 6.736,6.717 7.246,6.282 7.39,5.507 v 1.09 C 7.051,7.129 6.882,7.687 6.882,8.267 7.56,9.72 8.141,10.059 8.626,9.285 9.062,8.51 8.843,7.615 7.972,6.597 8.456,6.5 9.449,6.402 10.951,6.306 c 1.453,-0.194 2.64,-0.654 3.561,-1.381 0.968,0.291 1.162,0.51 0.58,0.654 -0.919,0.194 -1.477,0.339 -1.67,0.436 0.096,0.63 0.63,0.849 1.598,0.654 0.921,-0.243 1.309,-0.63 1.162,-1.162 0.339,0.048 0.438,0.315 0.291,0.799 -0.145,0.484 0.122,0.775 0.799,0.871 0.438,-0.968 0.727,-1.694 0.873,-2.18 0.291,-0.968 0.169,-1.718 -0.363,-2.252 h -0.51 v -1.09 c 2.519,0.436 4.53,0.436 6.032,0 0.339,0.048 0.558,0.46 0.653,1.236 0.096,0.727 0.411,1.041 0.943,0.944 z"
   id="path20"
   inkscape:connector-curvature="0" />
	<path
   style="clip-rule:evenodd;fill:#f9eebc;fill-rule:evenodd"
   d="m 30.423,4.925 c -0.727,0.243 -1.018,0.51 -0.872,0.799 0.048,0.146 0.339,0.438 0.872,0.873 -0.242,0 -0.437,0.169 -0.581,0.508 -0.146,0.339 -0.315,0.534 -0.509,0.582 -0.05,-0.291 -0.242,-0.436 -0.581,-0.436 -0.291,-0.05 -0.484,0.096 -0.582,0.436 0.291,0.048 0.582,0.217 0.872,0.508 0.291,0.339 0.557,0.534 0.8,0.582 0.145,0.436 0.508,0.63 1.09,0.58 -0.34,0.727 -0.994,0.994 -1.962,0.801 -0.776,-0.195 -1.212,0.072 -1.308,0.799 -0.437,0.096 -0.751,-0.048 -0.945,-0.436 -0.241,-0.438 -0.484,-0.654 -0.727,-0.654 -0.241,0.775 -0.775,1.138 -1.598,1.09 -0.484,-0.436 -0.484,-0.799 0,-1.09 0.581,-0.339 0.75,-0.873 0.508,-1.6 -0.581,-0.339 -1.162,-0.168 -1.743,0.51 -0.485,0.484 -0.8,0.484 -0.944,0 0.822,-0.485 1.065,-1.018 0.727,-1.6 -0.631,-0.677 -1.066,-1.234 -1.309,-1.67 1.065,0.291 1.866,0.363 2.398,0.217 0.339,-0.096 0.993,-0.363 1.961,-0.799 0.098,0.388 0.242,0.921 0.437,1.6 0.193,0.484 0.604,0.702 1.235,0.652 C 27.807,6.597 27.638,6.137 27.153,5.798 26.62,5.41 26.426,4.949 26.572,4.417 c 0.436,0.339 1.09,0.387 1.961,0.145 0.824,-0.242 1.453,-0.121 1.89,0.363 z"
   id="path22"
   inkscape:connector-curvature="0" />
	<path
   style="clip-rule:evenodd;fill:#dcba5d;fill-rule:evenodd"
   d="m 35.872,8.776 v 1.67 c -0.291,0 -0.605,0.219 -0.944,0.654 -0.291,0.436 -0.703,0.582 -1.235,0.436 0,-0.919 -0.314,-1.114 -0.944,-0.58 -0.922,0.775 -1.526,1.138 -1.816,1.09 -0.532,0.145 -0.945,0.024 -1.235,-0.363 -0.339,-0.485 -0.654,-0.727 -0.944,-0.727 -0.097,0.096 -0.243,0.412 -0.437,0.943 -0.146,0.438 -0.363,0.679 -0.653,0.727 -0.291,-0.289 -0.388,-0.556 -0.291,-0.799 0.146,-0.291 0.242,-0.58 0.291,-0.871 0.096,-0.727 0.531,-0.994 1.308,-0.799 0.968,0.193 1.622,-0.074 1.962,-0.801 -0.582,0.05 -0.945,-0.145 -1.09,-0.58 0.194,-0.388 0.436,-0.51 0.727,-0.363 0.194,0.048 0.508,0.169 0.944,0.363 -0.098,-0.339 -0.05,-0.63 0.146,-0.873 0.242,-0.289 0.363,-0.532 0.363,-0.727 0.29,-0.096 0.483,0.074 0.581,0.51 -0.339,0.387 -0.8,1.042 -1.381,1.961 -0.533,0.873 -0.993,1.501 -1.38,1.889 1.404,-0.048 2.131,-0.774 2.18,-2.18 0.581,0.388 1.138,0.558 1.671,0.51 0.049,-0.291 -0.05,-0.654 -0.291,-1.09 -0.194,-0.388 -0.29,-0.751 -0.29,-1.09 0.774,-0.388 1.332,-0.436 1.671,-0.146 0.238,0.147 0.602,0.558 1.087,1.236 z"
   id="path24"
   inkscape:connector-curvature="0" />
	<path
   style="clip-rule:evenodd;fill:#dcba5d;fill-rule:evenodd"
   d="M 6.3,12.046 C 5.525,11.028 4.993,9.939 4.702,8.776 4.606,8.921 4.291,9.067 3.757,9.212 3.322,9.356 3.079,9.575 3.031,9.866 2.499,9.818 2.304,9.381 2.451,8.557 2.596,7.879 2.79,7.419 3.031,7.176 c 0.534,0.339 1.09,0.51 1.672,0.51 0.435,0.63 0.967,1.259 1.597,1.889 0.34,0.484 0.34,1.309 0,2.471 z"
   id="path26"
   inkscape:connector-curvature="0" />
	<path
   style="clip-rule:evenodd;fill:#fefffd;fill-rule:evenodd"
   d="M 7.972,6.597 C 8.843,7.615 9.062,8.51 8.626,9.285 8.141,10.059 7.561,9.72 6.882,8.267 c 0,-0.58 0.169,-1.138 0.508,-1.67 z"
   id="path28"
   inkscape:connector-curvature="0" />
	<path
   style="clip-rule:evenodd;fill:#9c9797;fill-rule:evenodd"
   d="m 1.578,14.589 c 0.873,2.906 1.357,5.158 1.453,6.756 0.485,-0.096 0.678,-0.459 0.582,-1.09 0.291,0.05 0.459,0.267 0.508,0.654 0,0.194 0,0.534 0,1.018 -0.63,0.291 -0.702,1.018 -0.217,2.18 0.484,1.211 0.387,1.938 -0.291,2.18 -0.097,-1.309 -0.921,-4.578 -2.471,-9.809 -1.21,-4.02 -1.477,-6.951 -0.799,-8.791 0.049,1.84 0.46,4.14 1.235,6.902 z"
   id="path30"
   inkscape:connector-curvature="0" />
	<path
   style="clip-rule:evenodd;fill:#f2db8b;fill-rule:evenodd"
   d="m 33.111,7.687 c 0,0.339 0.096,0.702 0.29,1.09 0.241,0.436 0.34,0.799 0.291,1.09 -0.533,0.048 -1.09,-0.122 -1.671,-0.51 -0.049,1.405 -0.775,2.132 -2.18,2.18 0.387,-0.387 0.847,-1.016 1.38,-1.889 0.581,-0.919 1.042,-1.574 1.381,-1.961 z"
   id="path32"
   inkscape:connector-curvature="0" />
	<path
   style="clip-rule:evenodd;fill:#f2db8b;fill-rule:evenodd"
   d="m 12.912,10.446 c -1.065,1.164 -1.792,2.059 -2.18,2.689 -0.58,-0.388 -1.138,-0.558 -1.67,-0.51 C 9.11,12.141 9.038,11.851 8.843,11.754 8.65,11.61 8.528,11.707 8.48,12.046 7.753,11.755 7.221,11.392 6.882,10.956 c 0.775,-0.194 1.429,-0.122 1.961,0.217 0.339,0.195 0.775,0.485 1.309,0.873 0.63,-1.26 1.913,-2.519 3.85,-3.779 -0.193,0.679 -0.024,1.114 0.51,1.309 0.678,0.291 1.042,0.582 1.09,0.871 h -0.51 c -0.58,0.727 -0.871,1.478 -0.871,2.254 0.048,0.871 0.508,1.379 1.381,1.525 -0.823,0.823 -1.575,0.727 -2.252,-0.291 -0.631,-1.018 -0.777,-2.18 -0.438,-3.489 z"
   id="path34"
   inkscape:connector-curvature="0" />
	<path
   style="clip-rule:evenodd;fill:#b5b7b5;fill-rule:evenodd"
   d="M 3.031,7.177 C 2.79,7.419 2.595,7.879 2.451,8.558 2.305,9.381 2.499,9.818 3.031,9.867 3.079,9.576 3.322,9.357 3.758,9.213 4.292,9.068 4.607,8.922 4.703,8.777 c 0.291,1.162 0.823,2.252 1.598,3.27 0.146,0.048 0.388,0.096 0.727,0.145 0.243,0.097 0.363,0.243 0.363,0.436 -1.259,0.921 -1.283,3.972 -0.072,9.156 1.55,6.78 2.324,10.824 2.324,12.133 -0.048,0.484 -0.048,1.332 0,2.543 C 9.547,37.283 9.159,37.356 8.481,36.679 7.416,30.769 6.592,26.336 6.01,23.382 4.994,18.1 4,13.79 3.031,10.446 c -1.114,0.727 -1.234,2.375 -0.363,4.941 0.921,2.762 1.236,4.383 0.945,4.867 0.096,0.63 -0.097,0.994 -0.582,1.09 C 2.935,19.746 2.451,17.494 1.578,14.588 0.803,11.826 0.392,9.526 0.344,7.686 0.537,7.686 0.659,7.564 0.707,7.323 0.755,6.984 0.803,6.741 0.852,6.596 c 0.291,0.048 0.751,0.048 1.381,0 0.483,0.049 0.749,0.242 0.798,0.581 z"
   id="path36"
   inkscape:connector-curvature="0" />
	<path
   style="clip-rule:evenodd;fill:#b5b7b5;fill-rule:evenodd"
   d="m 4.121,21.927 c 0.582,2.228 1.865,7.871 3.852,16.93 C 7.876,39.534 7.61,39.584 7.174,39.002 6.736,38.372 6.64,37.791 6.883,37.258 6.883,37.113 6.761,37.186 6.52,37.477 6.229,37.768 6.084,37.865 6.084,37.768 V 36.967 C 6.423,36.58 6.349,36.507 5.865,36.75 5.526,36.943 5.502,36.919 5.793,36.678 5.696,35.273 5.357,33.505 4.775,31.373 4.097,29.145 3.709,27.449 3.613,26.287 4.291,26.045 4.388,25.318 3.904,24.107 3.418,22.944 3.491,22.218 4.121,21.927 Z"
   id="path38"
   inkscape:connector-curvature="0" />
	<path
   style="clip-rule:evenodd;fill:#9c9797;fill-rule:evenodd"
   d="m 9.642,36.458 c -0.048,-1.211 -0.048,-2.059 0,-2.543 0.582,1.309 1.114,3.875 1.6,7.701 C 10.419,41.859 9.933,41.544 9.789,40.673 9.595,39.559 9.353,38.953 9.062,38.857 9.11,38.566 9.014,38.203 8.771,37.767 8.577,37.379 8.48,37.016 8.48,36.677 c 0.678,0.677 1.066,0.604 1.162,-0.219 z"
   id="path40"
   inkscape:connector-curvature="0" />
	<path
   style="clip-rule:evenodd;fill:#dcd5d2;fill-rule:evenodd"
   d="M 9.062,15.315 C 8.965,14.879 8.723,14.418 8.335,13.934 7.801,13.256 7.486,12.82 7.39,12.625 7.536,12.577 7.778,12.529 8.117,12.48 8.36,12.432 8.48,12.286 8.48,12.044 c 0.048,-0.339 0.17,-0.436 0.363,-0.291 0.194,0.097 0.267,0.387 0.219,0.871 -0.388,0.921 -0.17,1.429 0.654,1.527 0.968,0.145 1.477,0.363 1.525,0.652 0,0.339 0.193,0.703 0.58,1.09 -0.58,-0.436 -1.016,-0.75 -1.307,-0.943 -0.484,-0.241 -0.968,-0.12 -1.452,0.365 z"
   id="path42"
   inkscape:connector-curvature="0" />
	<path
   style="clip-rule:evenodd;fill:#f2f3f1;fill-rule:evenodd"
   d="m 36.962,10.956 c -0.776,2.76 -1.695,7.144 -2.761,13.15 -0.388,3.536 -0.922,6.079 -1.599,7.629 -0.339,0.048 -0.581,0.097 -0.727,0.145 -0.242,0.05 -0.363,0.194 -0.363,0.438 -0.339,-0.05 -0.533,-0.315 -0.581,-0.801 0.048,-0.629 0.048,-1.09 0,-1.379 v -1.672 c 1.308,-6.104 2.034,-11.213 2.18,-15.33 0.29,-0.048 0.459,-0.243 0.508,-0.582 0.05,-0.436 0.073,-0.775 0.073,-1.018 0.532,0.146 0.944,0 1.235,-0.436 0.339,-0.436 0.653,-0.654 0.944,-0.654 v -1.67 c 0.581,-0.921 1.235,-1.09 1.962,-0.51 0.727,0.534 1.162,0.703 1.308,0.51 0.581,0.387 0.751,1.162 0.509,2.324 -0.243,0.969 -0.606,1.647 -1.09,2.035 v -2.689 c -0.437,0 -0.775,0.024 -1.018,0.074 -0.339,0.001 -0.531,0.145 -0.58,0.436 z"
   id="path44"
   inkscape:connector-curvature="0" />
	<path
   style="clip-rule:evenodd;fill:#d52d37;fill-rule:evenodd"
   d="m 32.603,31.735 c 0.677,-1.55 1.211,-4.093 1.599,-7.629 1.356,-1.066 2.397,-3.125 3.124,-6.176 0.727,-3.197 0.604,-5.521 -0.363,-6.975 0.049,-0.291 0.241,-0.436 0.581,-0.436 0.242,-0.05 0.581,-0.074 1.018,-0.074 v 2.689 c -0.484,2.083 -1.357,6.32 -2.616,12.715 -1.065,5.327 -2.011,9.493 -2.833,12.496 -0.291,-0.097 -0.437,-0.58 -0.437,-1.453 -0.048,-0.823 -0.267,-1.259 -0.653,-1.307 -0.097,-0.534 0.023,-1.164 0.363,-1.891 0.289,-0.627 0.362,-1.28 0.217,-1.959 z"
   id="path46"
   inkscape:connector-curvature="0" />
	<path
   style="clip-rule:evenodd;fill:#e76d73;fill-rule:evenodd"
   d="m 36.962,10.956 c 0.968,1.453 1.09,3.777 0.363,6.975 -0.727,3.051 -1.768,5.11 -3.124,6.176 1.066,-6.007 1.985,-10.391 2.761,-13.151 z"
   id="path48"
   inkscape:connector-curvature="0" />
	<path
   style="clip-rule:evenodd;fill:#f9eebc;fill-rule:evenodd"
   d="m 30.132,13.862 c 0.193,-0.339 0.291,-0.582 0.291,-0.727 0,-0.194 0.072,-0.388 0.218,-0.582 0.194,-0.193 0.291,-0.363 0.291,-0.508 0.29,0.048 0.895,-0.315 1.816,-1.09 0.63,-0.534 0.944,-0.339 0.944,0.58 0,0.243 -0.023,0.582 -0.073,1.018 -0.049,0.339 -0.218,0.534 -0.508,0.582 v -1.09 c -0.679,0.048 -1.235,0.315 -1.672,0.799 -0.049,0 -0.388,0.46 -1.017,1.381 -0.29,-0.096 -0.386,-0.218 -0.29,-0.363 z"
   id="path50"
   inkscape:connector-curvature="0" />
	<path
   style="clip-rule:evenodd;fill:#f2f3f1;fill-rule:evenodd"
   d="m 25.482,15.315 c 0.678,-0.775 1.429,-1.333 2.252,-1.672 0.581,-0.193 1.477,-0.363 2.688,-0.508 0,0.145 -0.098,0.387 -0.291,0.727 -0.096,0.145 0,0.267 0.291,0.363 -1.065,5.377 -1.623,10.123 -1.671,14.24 0,0.339 -0.146,0.848 -0.437,1.525 -0.242,0.533 -0.29,1.114 -0.146,1.744 -0.049,0.339 -0.169,1.501 -0.363,3.488 -0.097,1.453 -0.34,2.493 -0.727,3.123 -0.241,-0.048 -0.388,-0.339 -0.436,-0.871 -0.097,-0.533 -0.315,-0.799 -0.654,-0.799 -0.097,1.113 -0.46,1.84 -1.09,2.18 V 23.524 c 0.485,-0.289 0.702,-1.09 0.654,-2.396 -0.097,-1.744 -0.121,-2.762 -0.072,-3.053 0,-0.628 0,-1.09 0,-1.379 -0.049,-0.485 -0.243,-0.751 -0.582,-0.801 -0.046,-0.289 0.148,-0.483 0.584,-0.58 z"
   id="path52"
   inkscape:connector-curvature="0" />
	<path
   style="clip-rule:evenodd;fill:#d52d37;fill-rule:evenodd"
   d="m 28.752,28.466 c 0.483,0.242 0.969,0.048 1.453,-0.582 0.339,-0.483 0.581,-0.46 0.727,0.074 -0.243,0.048 -0.509,0.411 -0.8,1.09 -0.242,0.532 -0.702,0.702 -1.38,0.508 0.387,0.388 0.558,0.823 0.508,1.309 -0.097,0.532 -0.46,0.823 -1.09,0.871 -0.145,-0.63 -0.097,-1.211 0.146,-1.744 0.29,-0.679 0.436,-1.187 0.436,-1.526 z"
   id="path54"
   inkscape:connector-curvature="0" />
	<path
   style="clip-rule:evenodd;fill:#e76d73;fill-rule:evenodd"
   d="m 30.423,14.226 c 0.629,-0.921 0.968,-1.381 1.017,-1.381 0.437,-0.484 0.993,-0.75 1.672,-0.799 v 1.09 c -0.146,4.117 -0.872,9.227 -2.18,15.33 v -0.508 c -0.146,-0.534 -0.388,-0.558 -0.727,-0.074 -0.484,0.63 -0.97,0.824 -1.453,0.582 0.048,-4.117 0.605,-8.863 1.671,-14.24 z"
   id="path56"
   inkscape:connector-curvature="0" />
	<path
   style="clip-rule:evenodd;fill:#b5b7b5;fill-rule:evenodd"
   d="m 11.822,16.478 c -0.484,0.339 -0.556,1.09 -0.217,2.252 0.387,1.405 0.459,2.471 0.217,3.197 -0.048,0.921 -0.145,1.55 -0.289,1.889 -0.243,0.582 -0.703,0.849 -1.381,0.799 0,-1.162 -0.363,-4.261 -1.09,-9.299 0.484,-0.485 0.968,-0.606 1.453,-0.363 0.291,0.193 0.727,0.508 1.307,0.943 z"
   id="path58"
   inkscape:connector-curvature="0" />
	<path
   style="clip-rule:evenodd;fill:#e76d73;fill-rule:evenodd"
   d="m 25.482,18.075 c -0.484,0.291 -0.679,1.09 -0.582,2.398 0.05,1.744 0.05,2.762 0,3.051 v 15.332 h -0.508 c -0.049,-0.388 -0.024,-1.672 0.072,-3.852 0.096,-1.647 -0.121,-2.737 -0.654,-3.27 -0.049,0.291 -0.241,0.46 -0.581,0.508 -0.436,0.05 -0.774,0.074 -1.017,0.074 v -2.18 c 0.483,-1.405 0.678,-3.657 0.581,-6.758 -0.098,-4.117 -0.122,-6.611 -0.073,-7.484 0.242,-0.048 0.776,-0.289 1.599,-0.727 0.727,-0.289 1.114,-0.241 1.163,0.146 -0.437,0.096 -0.631,0.291 -0.582,0.58 0.339,0.05 0.533,0.315 0.582,0.801 0,0.291 0,0.753 0,1.381 z"
   id="path60"
   inkscape:connector-curvature="0" />
	<path
   style="clip-rule:evenodd;fill:#f2f3f1;fill-rule:evenodd"
   d="m 18.943,16.478 c 0.387,0.243 0.75,0.775 1.09,1.598 0.436,-0.048 0.774,-0.339 1.017,-0.871 0.241,-0.63 0.437,-1.066 0.581,-1.309 h 0.582 v 19.109 c -0.484,-0.048 -0.703,0.315 -0.654,1.09 0.096,1.018 0.122,1.574 0.072,1.672 -0.29,-0.05 -0.436,-0.243 -0.436,-0.582 0,-0.484 -0.024,-0.848 -0.072,-1.09 -0.291,0.048 -0.46,0.267 -0.509,0.654 -0.05,0.193 -0.073,0.532 -0.073,1.018 -0.484,0 -0.653,-0.63 -0.508,-1.891 0.145,-1.259 -0.049,-1.913 -0.582,-1.961 v -1.09 c 0,-5.57 -0.363,-10.292 -1.09,-14.168 0.05,-0.291 -0.145,-0.484 -0.58,-0.582 -0.048,-0.436 0.072,-0.774 0.363,-1.016 0.436,-0.194 0.702,-0.387 0.799,-0.581 z"
   id="path62"
   inkscape:connector-curvature="0" />
	<path
   style="clip-rule:evenodd;fill:#dcba5d;fill-rule:evenodd"
   d="m 21.268,13.862 c 0.146,0.241 0.461,0.556 0.945,0.943 -0.437,0.146 -0.631,0.51 -0.582,1.09 -0.145,0.243 -0.34,0.679 -0.581,1.309 -0.242,0.532 -0.581,0.823 -1.017,0.871 -0.34,-0.823 -0.703,-1.355 -1.09,-1.598 -1.114,-0.339 -1.381,-1.042 -0.799,-2.107 0.357,-0.683 0.83,-1.094 1.417,-1.234 -0.111,-0.087 -0.075,-0.255 0.109,-0.51 0.339,-0.58 0.822,-0.774 1.453,-0.58 -0.195,0.726 -0.145,1.331 0.145,1.816 z"
   id="path64"
   inkscape:connector-curvature="0" />
	<path
   style="clip-rule:evenodd;fill:#d52d37;fill-rule:evenodd"
   d="m 16.181,19.165 c 0.291,-0.048 0.582,-0.217 0.873,-0.508 0.291,-0.339 0.532,-0.532 0.727,-0.582 0.436,0.098 0.63,0.291 0.58,0.582 -1.501,0.921 -2.105,3.633 -1.816,8.137 0.291,4.506 1.26,6.516 2.907,6.031 v 1.09 c -0.097,2.906 0.098,4.917 0.582,6.031 v 2.76 c -1.163,0.097 -1.914,0.46 -2.252,1.09 -1.018,-7.798 -1.55,-15.646 -1.6,-23.541 v -1.09 z"
   id="path66"
   inkscape:connector-curvature="0" />
	<path
   style="clip-rule:evenodd;fill:#9c9797;fill-rule:evenodd"
   d="m 13.421,16.985 c 0.387,0 0.75,-0.168 1.09,-0.508 -0.048,0.63 0.121,1.162 0.508,1.598 0.243,0.243 0.63,0.606 1.162,1.09 v 1.09 c -0.532,0.388 -0.847,1.357 -0.943,2.906 -0.097,1.647 -0.339,2.689 -0.727,3.125 -0.436,-0.679 -0.606,-2.228 -0.51,-4.65 0.099,-2.373 -0.096,-3.924 -0.58,-4.651 z"
   id="path68"
   inkscape:connector-curvature="0" />
	<path
   style="clip-rule:evenodd;fill:#7f7576;fill-rule:evenodd"
   d="m 13.275,37.04 c -0.289,-0.679 -0.241,-0.993 0.146,-0.945 0.775,2.471 1.138,5.038 1.09,7.701 -0.436,0.049 -0.775,-0.072 -1.018,-0.363 -0.194,-0.339 -0.387,-0.58 -0.582,-0.727 0,-0.388 -0.145,-1.162 -0.436,-2.324 -0.241,-0.921 -0.291,-1.792 -0.145,-2.615 0.921,0.192 1.236,-0.05 0.945,-0.727 z"
   id="path70"
   inkscape:connector-curvature="0" />
	<path
   style="clip-rule:evenodd;fill:#dcd5d2;fill-rule:evenodd"
   d="m 30.932,30.138 c 0.048,0.289 0.048,0.75 0,1.379 0.048,0.485 0.242,0.751 0.581,0.801 0,-0.243 0.121,-0.388 0.363,-0.438 0.146,-0.048 0.388,-0.097 0.727,-0.145 0.146,0.679 0.072,1.332 -0.218,1.961 -0.34,0.727 -0.46,1.356 -0.363,1.891 -0.049,0.339 -0.243,1.113 -0.582,2.324 -0.193,1.065 0,1.744 0.582,2.035 -0.097,0.532 -0.532,0.919 -1.309,1.162 -0.871,0.193 -1.525,0.363 -1.961,0.508 0.63,-1.018 1.041,-2.882 1.234,-5.594 0.243,-2.955 0.558,-4.917 0.946,-5.884 z"
   id="path72"
   inkscape:connector-curvature="0" />
	<path
   style="clip-rule:evenodd;fill:#a90d14;fill-rule:evenodd"
   d="m 30.932,30.138 c -0.388,0.968 -0.703,2.93 -0.945,5.885 -0.193,2.712 -0.604,4.576 -1.234,5.594 -0.388,0.339 -0.751,0.51 -1.09,0.51 -0.34,-0.05 -0.532,-0.315 -0.582,-0.801 0.05,-0.629 0.05,-1.09 0,-1.379 v -1.6 c 0.387,-0.63 0.63,-1.67 0.727,-3.123 0.194,-1.987 0.314,-3.149 0.363,-3.488 0.63,-0.048 0.993,-0.339 1.09,-0.871 0.05,-0.485 -0.121,-0.921 -0.508,-1.309 0.678,0.194 1.138,0.024 1.38,-0.508 0.291,-0.679 0.557,-1.042 0.8,-1.09 v 2.18 z"
   id="path74"
   inkscape:connector-curvature="0" />
	<path
   style="clip-rule:evenodd;fill:#a90d14;fill-rule:evenodd"
   d="m 32.021,39.946 c -0.582,-0.291 -0.775,-0.97 -0.582,-2.035 0.339,-1.211 0.533,-1.985 0.582,-2.324 0.387,0.048 0.605,0.483 0.653,1.307 0,0.873 0.146,1.356 0.437,1.453 0.243,1.114 -0.121,1.647 -1.09,1.599 z"
   id="path76"
   inkscape:connector-curvature="0" />
	<path
   style="clip-rule:evenodd;fill:#9c9797;fill-rule:evenodd"
   d="m 24.828,40.599 c -0.049,0.727 0.17,1.066 0.654,1.018 l 1.598,-1.67 c 0.05,0.289 0.05,0.75 0,1.379 0.05,0.485 0.242,0.751 0.582,0.801 0.048,0.289 -0.146,0.483 -0.582,0.58 -0.581,-0.048 -0.944,0.122 -1.09,0.51 -0.34,-0.05 -0.629,0.023 -0.871,0.217 -0.34,0.243 -0.582,0.363 -0.727,0.363 V 38.858 H 24.9 c 0.05,0.095 0.024,0.675 -0.072,1.741 z"
   id="path78"
   inkscape:connector-curvature="0" />
	<path
   style="clip-rule:evenodd;fill:#7f7576;fill-rule:evenodd"
   d="m 6.882,37.257 1.162,1.6 H 7.972 C 7.875,39.534 7.609,39.584 7.173,39.002 6.736,38.371 6.64,37.79 6.882,37.257 Z"
   id="path80"
   inkscape:connector-curvature="0" />
	<path
   style="clip-rule:evenodd;fill:#fefffd;fill-rule:evenodd"
   d="m 16.181,5.507 c 0.146,0.532 -0.241,0.919 -1.162,1.162 -0.968,0.194 -1.501,-0.024 -1.598,-0.654 0.193,-0.096 0.75,-0.241 1.67,-0.436 0.582,-0.145 0.388,-0.363 -0.58,-0.654 0.096,-0.436 0.654,-0.604 1.67,-0.508 z"
   id="path82"
   inkscape:connector-curvature="0" />
	<path
   style="clip-rule:evenodd;fill:#a90d14;fill-rule:evenodd"
   d="m 11.242,31.228 c 0.339,3.003 0.702,5.183 1.09,6.539 -0.146,0.823 -0.097,1.694 0.145,2.615 0.291,1.162 0.436,1.937 0.436,2.324 -0.436,0.049 -0.774,-0.072 -1.016,-0.363 -0.388,-0.483 -0.606,-0.727 -0.654,-0.727 -0.485,-3.826 -1.018,-6.393 -1.6,-7.701 0,-1.309 -0.774,-5.353 -2.324,-12.133 -1.21,-5.184 -1.187,-8.235 0.072,-9.156 0.097,0.195 0.412,0.63 0.945,1.309 0.387,0.484 0.63,0.945 0.727,1.381 0.727,5.038 1.09,8.137 1.09,9.299 0.338,1.308 0.701,3.512 1.089,6.613 z"
   id="path84"
   inkscape:connector-curvature="0" />
	<path
   style="clip-rule:evenodd;fill:#dcba5d;fill-rule:evenodd"
   d="m 15.091,12.626 c 0.146,0.05 0.388,0.074 0.727,0.074 0.243,0.096 0.363,0.241 0.363,0.436 -0.048,0.484 0.05,0.775 0.291,0.871 0.194,0.097 0.46,0 0.799,-0.291 0,0.582 0.098,1.309 0.291,2.18 0,0.582 -0.459,0.945 -1.381,1.09 -0.145,-0.289 0,-0.727 0.438,-1.307 0.289,-0.436 0.145,-0.727 -0.438,-0.873 -0.145,0.679 -0.628,0.969 -1.453,0.873 -1.016,-0.097 -1.816,0.169 -2.396,0.799 -0.048,-0.775 -0.097,-1.187 -0.146,-1.234 -0.145,-0.438 -0.459,-0.582 -0.943,-0.438 -0.048,-0.289 -0.558,-0.508 -1.525,-0.652 -0.825,-0.098 -1.042,-0.606 -0.654,-1.527 0.532,-0.048 1.09,0.122 1.67,0.51 0.388,-0.63 1.114,-1.525 2.18,-2.689 -0.339,1.309 -0.193,2.471 0.438,3.488 0.677,1.018 1.429,1.114 2.252,0.291 -0.873,-0.146 -1.333,-0.654 -1.381,-1.525 0,-0.776 0.291,-1.527 0.871,-2.254 v 2.178 z"
   id="path86"
   inkscape:connector-curvature="0" />
	<path
   style="clip-rule:evenodd;fill:#a90d14;fill-rule:evenodd"
   d="m 13.421,16.985 c 0.484,0.727 0.678,2.278 0.58,4.65 -0.096,2.423 0.074,3.972 0.51,4.65 -0.048,2.228 0.145,5.401 0.58,9.518 0.438,4.021 0.606,7.218 0.51,9.592 h -0.51 c 0,-0.438 -0.024,-0.776 -0.072,-1.018 -0.048,-0.339 -0.217,-0.533 -0.508,-0.582 0.048,-2.663 -0.315,-5.23 -1.09,-7.701 0.193,-1.453 0.072,-3.705 -0.363,-6.758 -0.582,-3.486 -0.994,-5.957 -1.236,-7.41 0.243,-0.727 0.17,-1.792 -0.217,-3.197 -0.339,-1.162 -0.267,-1.913 0.217,-2.252 -0.048,0.823 0.315,1.356 1.09,1.598 -0.145,-0.58 0.024,-0.943 0.509,-1.09 z"
   id="path88"
   inkscape:connector-curvature="0" />
	<path
   style="clip-rule:evenodd;fill:#e76d73;fill-rule:evenodd"
   d="m 18.361,18.657 c 0.727,3.875 1.09,8.598 1.09,14.168 -1.646,0.484 -2.616,-1.525 -2.907,-6.031 -0.289,-4.504 0.316,-7.216 1.817,-8.137 z"
   id="path90"
   inkscape:connector-curvature="0" />
	<path
   style="clip-rule:evenodd;fill:#9c9797;fill-rule:evenodd"
   d="m 10.152,24.614 c 0.678,0.05 1.138,-0.217 1.381,-0.799 0.145,-0.339 0.241,-0.968 0.289,-1.889 0.243,1.453 0.654,3.924 1.236,7.41 0.436,3.053 0.556,5.305 0.363,6.758 -0.388,-0.048 -0.436,0.267 -0.146,0.945 0.291,0.677 -0.024,0.919 -0.943,0.727 -0.388,-1.356 -0.751,-3.536 -1.09,-6.539 -0.388,-3.1 -0.751,-5.304 -1.09,-6.613 z"
   id="path92"
   inkscape:connector-curvature="0" />
	<path
   style="clip-rule:evenodd;fill:#7f7576;fill-rule:evenodd"
   d="m 16.181,20.255 c 0.05,7.896 0.582,15.743 1.6,23.541 v 2.18 h 1.162 v 0.51 c -0.63,0.145 -1.234,0.12 -1.816,-0.074 -0.727,-0.289 -1.234,-0.436 -1.525,-0.436 v -0.58 c 0.096,-2.374 -0.072,-5.571 -0.51,-9.592 -0.436,-4.116 -0.628,-7.29 -0.58,-9.518 0.387,-0.436 0.63,-1.478 0.727,-3.125 0.095,-1.549 0.41,-2.518 0.942,-2.906 z"
   id="path94"
   inkscape:connector-curvature="0" />
	<path
   style="clip-rule:evenodd;fill:#dcd5d2;fill-rule:evenodd"
   d="m 22.213,35.005 v 3.852 c -0.146,0.048 -0.412,0.339 -0.8,0.871 -0.29,0.388 -0.75,0.46 -1.38,0.219 -0.484,-1.114 -0.679,-3.125 -0.582,-6.031 0.533,0.048 0.727,0.702 0.582,1.961 -0.146,1.261 0.023,1.891 0.508,1.891 0,-0.485 0.023,-0.824 0.073,-1.018 0.049,-0.388 0.218,-0.606 0.509,-0.654 0.048,0.242 0.072,0.605 0.072,1.09 0,0.339 0.146,0.532 0.436,0.582 0.05,-0.098 0.023,-0.654 -0.072,-1.672 -0.049,-0.776 0.17,-1.139 0.654,-1.091 z"
   id="path96"
   inkscape:connector-curvature="0" />
	<path
   style="clip-rule:evenodd;fill:#a90d14;fill-rule:evenodd"
   d="m 24.393,38.856 v 4.939 c -0.291,-0.048 -0.582,0.024 -0.872,0.219 -0.339,0.193 -0.605,0.291 -0.8,0.291 -0.484,-0.146 -0.677,-0.751 -0.581,-1.816 0.097,-1.503 0.121,-2.351 0.073,-2.543 0.581,0.629 1.017,0.727 1.308,0.289 0.339,-0.676 0.628,-1.137 0.872,-1.379 z"
   id="path98"
   inkscape:connector-curvature="0" />
	<path
   style="clip-rule:evenodd;fill:#b5b7b5;fill-rule:evenodd"
   d="m 22.213,39.946 c 0.048,0.192 0.023,1.04 -0.073,2.543 -0.096,1.065 0.097,1.67 0.581,1.816 -0.193,0.339 -0.581,0.604 -1.162,0.799 -0.679,0.097 -1.187,0.193 -1.525,0.291 v -5.449 c 0.63,0.241 1.09,0.169 1.38,-0.219 0.388,-0.532 0.654,-0.823 0.8,-0.871 v 1.09 z"
   id="path100"
   inkscape:connector-curvature="0" />
	<path
   style="clip-rule:evenodd;fill:#6e4242;fill-rule:evenodd"
   d="m 8.916,39.655 c 0.098,-0.194 0.146,-0.46 0.146,-0.799 0.291,0.097 0.532,0.702 0.727,1.816 0.145,0.871 0.63,1.187 1.453,0.943 0.048,0 0.267,0.243 0.654,0.727 0.241,0.291 0.58,0.412 1.016,0.363 0.195,0.146 0.388,0.388 0.582,0.727 0.243,0.291 0.582,0.412 1.018,0.363 0.291,0.049 0.459,0.243 0.508,0.582 0.048,0.241 0.072,0.58 0.072,1.018 -0.727,0.192 -1.307,0.048 -1.742,-0.438 -0.534,-0.483 -1.042,-0.702 -1.527,-0.652 L 8.734,39.8 c 0.058,0.01 0.118,-0.038 0.182,-0.145 z"
   id="path102"
   inkscape:connector-curvature="0" />
	<path
   style="clip-rule:evenodd;fill:#a90d14;fill-rule:evenodd"
   d="M 3.613,20.255 C 3.904,19.771 3.589,18.15 2.668,15.388 1.797,12.821 1.918,11.173 3.031,10.447 4,13.79 4.994,18.1 6.009,23.38 c 0.582,2.954 1.405,7.387 2.471,13.297 0,0.339 0.097,0.702 0.291,1.09 0.243,0.436 0.339,0.799 0.291,1.09 0,0.339 -0.048,0.604 -0.146,0.799 -0.145,0.241 -0.289,0.169 -0.436,-0.219 0,-0.436 -0.169,-0.63 -0.508,-0.58 -1.987,-9.059 -3.27,-14.702 -3.852,-16.93 0,-0.484 0,-0.823 0,-1.018 C 4.072,20.522 3.904,20.305 3.613,20.255 Z"
   id="path104"
   inkscape:connector-curvature="0" />
	<path
   style="clip-rule:evenodd;fill:#a90d14;fill-rule:evenodd"
   d="m 8.408,37.911 c 0,0.727 0.412,1.09 1.234,1.09 0.291,0 0.703,0.436 1.236,1.309 0.727,1.162 1.356,2.009 1.889,2.543 0.63,0.629 1.234,0.896 1.816,0.799 0.339,-0.097 0.969,-0.243 1.889,-0.436 1.066,0 1.696,-0.363 1.889,-1.09 l 4.215,1.09 h 3.996 l -8.356,3.27 c -2.471,-0.63 -4.117,-1.212 -4.941,-1.744 l -6.539,-4.215 -0.508,-4.65 1.09,0.727 c 0.726,0.533 1.09,0.968 1.09,1.307 z"
   id="path106"
   inkscape:connector-curvature="0" />
	<path
   style="clip-rule:evenodd;fill:#fefffd;fill-rule:evenodd"
   d="m 20.396,6.087 0.508,0.582 c -0.34,1.259 -0.92,1.792 -1.743,1.598 -0.29,-1.501 0.121,-2.228 1.235,-2.18 z"
   id="path108"
   inkscape:connector-curvature="0" />
	<path
   style="clip-rule:evenodd;fill:#fefffd;fill-rule:evenodd"
   d="m 21.85,2.673 0.363,0.145 c -0.146,0.776 -0.582,1.066 -1.309,0.873 -0.097,-0.388 -0.097,-0.799 0,-1.236 0.195,-0.049 0.509,0.024 0.946,0.218 z"
   id="path110"
   inkscape:connector-curvature="0" />
	<path
   style="clip-rule:evenodd;fill:#fefffd;fill-rule:evenodd"
   d="M 25.99,6.087 26.572,6.45 C 27.008,7.08 26.983,7.564 26.499,7.903 26.014,8.291 25.482,8.17 24.9,7.54 24.368,6.912 24.247,6.475 24.537,6.233 24.779,5.991 25.264,5.942 25.99,6.087 Z"
   id="path112"
   inkscape:connector-curvature="0" />
	<path
   style="clip-rule:evenodd;fill:#dcba5d;fill-rule:evenodd"
   d="m 29.26,8.267 0.219,-0.145 c 0.387,0.243 0.483,0.823 0.29,1.744 -0.581,0.145 -0.944,-0.024 -1.09,-0.51 -0.096,-0.483 0.096,-0.847 0.581,-1.089 z"
   id="path114"
   inkscape:connector-curvature="0" />
	<path
   style="clip-rule:evenodd;fill:#dcba5d;fill-rule:evenodd"
   d="m 25.264,11.755 h 0.219 c 0.483,0.194 0.727,0.558 0.727,1.09 0,0.484 -0.146,0.945 -0.437,1.381 -1.356,0.193 -2.011,-0.194 -1.962,-1.162 0,-0.97 0.485,-1.406 1.453,-1.309 z"
   id="path116"
   inkscape:connector-curvature="0" />
	<path
   style="clip-rule:evenodd;fill:#dcba5d;fill-rule:evenodd"
   d="m 21.486,7.759 v 0.363 c 0,0.582 -0.073,1.477 -0.219,2.688 -0.484,0.098 -0.92,0.074 -1.308,-0.072 -0.29,-0.58 -0.267,-1.234 0.073,-1.961 0.34,-0.727 0.823,-1.067 1.454,-1.018 z"
   id="path118"
   inkscape:connector-curvature="0" />
	<path
   style="clip-rule:evenodd;fill:#dcba5d;fill-rule:evenodd"
   d="m 12.185,7.54 0.582,0.363 C 12.864,7.71 12.961,7.59 13.058,7.54 c 0.096,-0.096 0.291,-0.096 0.58,0 0.098,0.485 0.098,0.969 0,1.453 -0.532,0.098 -1.065,0.098 -1.598,0 -0.096,-0.58 -0.048,-1.065 0.145,-1.453 z"
   id="path120"
   inkscape:connector-curvature="0" />
	<path
   style="clip-rule:evenodd;fill:#fefffd;fill-rule:evenodd"
   d="M 20.76,1.364 V 0.856 c 0.339,-0.048 0.581,0.072 0.727,0.363 0.096,0.291 0.096,0.606 0,0.945 C 21.292,2.696 20.736,3.011 19.815,3.107 18.604,3.155 18.193,2.744 18.58,1.873 19.016,1.051 19.742,0.88 20.76,1.364 Z"
   id="path122"
   inkscape:connector-curvature="0" />
	<path
   style="clip-rule:evenodd;fill:#fefffd;fill-rule:evenodd"
   d="m 11.458,5.071 h 0.074 c 0.484,0.241 0.677,0.677 0.58,1.307 -0.145,0.63 -0.484,0.969 -1.018,1.018 C 9.98,7.444 9.617,6.912 10.004,5.798 10.393,4.634 10.878,4.393 11.458,5.071 Z"
   id="path124"
   inkscape:connector-curvature="0" />
	<path
   style="clip-rule:evenodd;fill:#fefffd;fill-rule:evenodd"
   d="m 29.188,4.634 0.363,-0.289 c 0.485,-0.05 0.678,0.193 0.581,0.727 C 30.036,5.556 29.769,5.846 29.333,5.943 28.8,5.991 28.484,5.749 28.389,5.216 28.34,4.684 28.606,4.489 29.188,4.634 Z"
   id="path126"
   inkscape:connector-curvature="0" />
	<path
   style="clip-rule:evenodd;fill:#fefffd;fill-rule:evenodd"
   d="m 22.794,10.884 h -0.509 c 0.387,0.339 0.459,0.871 0.218,1.598 -0.29,0.775 -0.702,0.945 -1.235,0.508 -0.241,-0.193 -0.388,-0.604 -0.436,-1.234 -0.049,-0.63 0.048,-1.066 0.291,-1.309 0.29,-0.289 0.653,-0.387 1.09,-0.289 0.435,0.047 0.63,0.288 0.581,0.726 z"
   id="path128"
   inkscape:connector-curvature="0" />
</g>
</svg>