<?xml version="1.0" encoding="UTF-8" standalone="no"?>
<!-- Generator: Adobe Illustrator 15.1.0, SVG Export Plug-In . SVG Version: 6.00 Build 0)  -->

<svg
   xmlns:dc="http://purl.org/dc/elements/1.1/"
   xmlns:cc="http://creativecommons.org/ns#"
   xmlns:rdf="http://www.w3.org/1999/02/22-rdf-syntax-ns#"
   xmlns:svg="http://www.w3.org/2000/svg"
   xmlns="http://www.w3.org/2000/svg"
   xmlns:xlink="http://www.w3.org/1999/xlink"
   xmlns:sodipodi="http://sodipodi.sourceforge.net/DTD/sodipodi-0.dtd"
   xmlns:inkscape="http://www.inkscape.org/namespaces/inkscape"
   version="1.1"
   id="flash0.ai"
   x="0px"
   y="0px"
   width="256"
   height="256"
   viewBox="0 0 255.99999 256.00002"
   xml:space="preserve"
   sodipodi:docname="steak_cooked_01.svg"
   inkscape:version="0.92.4 (5da689c313, 2019-01-14)"><title
   id="title1095">Steak</title><metadata
   id="metadata288"><rdf:RDF><cc:Work
       rdf:about=""><dc:format>image/svg+xml</dc:format><dc:type
         rdf:resource="http://purl.org/dc/dcmitype/StillImage" /><dc:title>Steak</dc:title><cc:license
         rdf:resource="http://creativecommons.org/publicdomain/zero/1.0/" /><dc:creator><cc:Agent><dc:title>Glitch</dc:title></cc:Agent></dc:creator><dc:source>https://opengameart.org/node/20149</dc:source></cc:Work><cc:License
       rdf:about="http://creativecommons.org/publicdomain/zero/1.0/"><cc:permits
         rdf:resource="http://creativecommons.org/ns#Reproduction" /><cc:permits
         rdf:resource="http://creativecommons.org/ns#Distribution" /><cc:permits
         rdf:resource="http://creativecommons.org/ns#DerivativeWorks" /></cc:License></rdf:RDF></metadata><defs
   id="defs286" /><sodipodi:namedview
   pagecolor="#ffffff"
   bordercolor="#666666"
   borderopacity="1"
   objecttolerance="10"
   gridtolerance="10"
   guidetolerance="10"
   inkscape:pageopacity="0"
   inkscape:pageshadow="2"
   inkscape:window-width="1920"
   inkscape:window-height="1025"
   id="namedview284"
   showgrid="false"
   inkscape:zoom="0.75904115"
   inkscape:cx="97.727223"
   inkscape:cy="-118.0032"
   inkscape:window-x="-8"
   inkscape:window-y="-8"
   inkscape:window-maximized="1"
   inkscape:current-layer="flash0.ai"
   fit-margin-top="0"
   fit-margin-left="0"
   fit-margin-right="0"
   fit-margin-bottom="0" />
<symbol
   id="flash0.ai_x5F_7_x2F_Layer_2_x2F__x3C_Path_x3E__x5F_1"
   viewBox="-0.028 -1.005 1.034 1.005"
   transform="translate(-20.470998,224.562)">
	<g
   id="Layer_1_16_">
		<path
   style="clip-rule:evenodd;fill:#bd7a4a;fill-rule:evenodd"
   d="M 0.7,0 C 0.933,0 1.033,-0.183 1,-0.55 0.967,-0.883 0.75,-1.033 0.35,-1 -0.017,-0.933 -0.117,-0.75 0.05,-0.45 0.217,-0.15 0.433,0 0.7,0 Z"
   id="path2"
   inkscape:connector-curvature="0" />
	</g>
</symbol>
<symbol
   id="flash0.ai_x5F_7_x2F_Layer_2_x2F__x3C_Path_x3E__x5F_10"
   viewBox="0.02 -1.2 4.972 1.207"
   transform="translate(-20.470998,224.562)">
	<g
   id="Layer_1_7_">
		<path
   style="clip-rule:evenodd;fill:#bd7a4a;fill-rule:evenodd"
   d="M 4.4,-0.25 C 4.9,-0.45 5.083,-0.6 4.95,-0.7 4.783,-0.8 4.4,-0.917 3.8,-1.05 3.2,-1.15 2.717,-1.2 2.35,-1.2 c -0.367,0 -0.8,0.1 -1.3,0.3 -0.466,0.2 -0.8,0.417 -1,0.65 -0.133,0.167 0.183,0.233 0.95,0.2 1.2,0 1.933,0.017 2.2,0.05 0.3,0.033 0.7,-0.05 1.2,-0.25 z"
   id="path6"
   inkscape:connector-curvature="0" />
	</g>
</symbol>
<symbol
   id="flash0.ai_x5F_7_x2F_Layer_2_x2F__x3C_Path_x3E__x5F_11"
   viewBox="-0.034 -1.232 5.416 1.243"
   transform="translate(-20.470998,224.562)">
	<g
   id="Layer_1_6_">
		<path
   style="clip-rule:evenodd;fill:#bd7a4a;fill-rule:evenodd"
   d="M 4.05,-0.3 C 4.783,-0.567 5.2,-0.733 5.3,-0.8 5.533,-0.967 5.267,-1.084 4.5,-1.15 c -2.433,-0.2 -3.917,-0.033 -4.45,0.5 -0.267,0.3 0.1,0.5 1.1,0.6 C 2.217,0.083 3.183,0 4.05,-0.3 Z"
   id="path10"
   inkscape:connector-curvature="0" />
	</g>
</symbol>
<symbol
   id="flash0.ai_x5F_7_x2F_Layer_2_x2F__x3C_Path_x3E__x5F_12"
   viewBox="-0.029 -1.104 1.236 1.108"
   transform="translate(-20.470998,224.562)">
	<g
   id="Layer_1_5_">
		<path
   style="clip-rule:evenodd;fill:#bd7a4a;fill-rule:evenodd"
   d="m 1.15,-0.55 c -0.133,-0.4 -0.4,-0.583 -0.8,-0.55 -0.4,0.033 -0.483,0.217 -0.25,0.55 0.2,0.3 0.45,0.483 0.75,0.55 0.333,0.033 0.433,-0.15 0.3,-0.55 z"
   id="path14"
   inkscape:connector-curvature="0" />
	</g>
</symbol>
<symbol
   id="flash0.ai_x5F_7_x2F_Layer_2_x2F__x3C_Path_x3E__x5F_13"
   viewBox="-0.063 -1.275 3.451 1.325"
   transform="translate(-20.470998,224.562)">
	<g
   id="Layer_1_4_">
		<path
   style="clip-rule:evenodd;fill:#bd7a4a;fill-rule:evenodd"
   d="M 2.8,-0.1 C 3.6,-0.3 3.583,-0.6 2.75,-1 c -0.8,-0.367 -1.567,-0.367 -2.3,0 -0.7,0.367 -0.684,0.667 0.05,0.9 0.767,0.2 1.533,0.2 2.3,0 z"
   id="path18"
   inkscape:connector-curvature="0" />
	</g>
</symbol>
<symbol
   id="flash0.ai_x5F_7_x2F_Layer_2_x2F__x3C_Path_x3E__x5F_14"
   viewBox="-0.05 -1.168 2.338 1.208"
   transform="translate(-20.470998,224.562)">
	<g
   id="Layer_1_3_">
		<path
   style="clip-rule:evenodd;fill:#bd7a4a;fill-rule:evenodd"
   d="M 1.95,-0.25 C 2.417,-0.517 2.4,-0.767 1.9,-1 1.4,-1.267 0.883,-1.217 0.35,-0.85 c -0.533,0.367 -0.533,0.633 0,0.8 0.533,0.167 1.067,0.1 1.6,-0.2 z"
   id="path22"
   inkscape:connector-curvature="0" />
	</g>
</symbol>
<symbol
   id="flash0.ai_x5F_7_x2F_Layer_2_x2F__x3C_Path_x3E__x5F_15"
   viewBox="-0.002 -1.7 4.449 1.708"
   transform="translate(-20.470998,224.562)">
	<g
   id="Layer_1_2_">
		<path
   style="clip-rule:evenodd;fill:#bd7a4a;fill-rule:evenodd"
   d="M 3.5,-0.2 C 4.333,-0.533 4.617,-0.867 4.35,-1.2 4.083,-1.533 3.6,-1.7 2.9,-1.7 2.367,-1.7 1.75,-1.533 1.05,-1.2 0.417,-0.9 0.067,-0.633 0,-0.4 -0.033,-0.167 0.4,-0.033 1.3,0 2.233,0.033 2.967,-0.033 3.5,-0.2 Z"
   id="path26"
   inkscape:connector-curvature="0" />
	</g>
</symbol>
<symbol
   id="flash0.ai_x5F_7_x2F_Layer_2_x2F__x3C_Path_x3E__x5F_2"
   viewBox="0.006 -1.075 3.39 1.1"
   transform="translate(-20.470998,224.562)">
	<g
   id="Layer_1_15_">
		<path
   style="clip-rule:evenodd;fill:#bd7a4a;fill-rule:evenodd"
   d="M 2.8,0 C 3.5,0 3.584,-0.233 3.05,-0.7 2.783,-0.767 2.533,-0.867 2.3,-1 2.1,-1.1 1.75,-1.1 1.25,-1 0.75,-0.867 0.367,-0.667 0.1,-0.4 -0.133,-0.133 0.067,0 0.7,0 1.067,0.033 1.767,0.033 2.8,0 Z"
   id="path30"
   inkscape:connector-curvature="0" />
	</g>
</symbol>
<symbol
   id="flash0.ai_x5F_7_x2F_Layer_2_x2F__x3C_Path_x3E__x5F_3"
   viewBox="0.007 -0.645 1.882 0.645"
   transform="translate(-20.470998,224.562)">
	<g
   id="Layer_1_14_">
		<path
   style="clip-rule:evenodd;fill:#bd7a4a;fill-rule:evenodd"
   d="M 1.65,-0.25 C 1.283,-0.417 1.017,-0.533 0.85,-0.6 0.517,-0.7 0.25,-0.633 0.05,-0.4 -0.117,-0.133 0.2,0 1,0 1.9,0 2.117,-0.083 1.65,-0.25 Z"
   id="path34"
   inkscape:connector-curvature="0" />
	</g>
</symbol>
<symbol
   id="flash0.ai_x5F_7_x2F_Layer_2_x2F__x3C_Path_x3E__x5F_4"
   viewBox="0.007 -0.554 2.562 0.516"
   transform="translate(-20.470998,224.562)">
	<g
   id="Layer_1_13_">
		<path
   style="clip-rule:evenodd;fill:#bd7a4a;fill-rule:evenodd"
   d="m 2.2,-0.1 c 0.633,-0.033 0.45,-0.15 -0.55,-0.35 -0.867,-0.167 -1.4,-0.133 -1.6,0.1 -0.233,0.3 0.483,0.383 2.15,0.25 z"
   id="path38"
   inkscape:connector-curvature="0" />
	</g>
</symbol>
<symbol
   id="flash0.ai_x5F_7_x2F_Layer_2_x2F__x3C_Path_x3E__x5F_5"
   viewBox="-0.018 -0.412 2.257 0.427"
   transform="translate(-20.470998,224.562)">
	<g
   id="Layer_1_12_">
		<path
   style="clip-rule:evenodd;fill:#bd7a4a;fill-rule:evenodd"
   d="m 2.05,-0.1 c 0.367,-0.167 0.2,-0.267 -0.5,-0.3 -0.7,-0.033 -1.183,0 -1.45,0.1 -0.267,0.1 -0.083,0.183 0.55,0.25 0.6,0.1 1.067,0.083 1.4,-0.05 z"
   id="path42"
   inkscape:connector-curvature="0" />
	</g>
</symbol>
<symbol
   id="flash0.ai_x5F_7_x2F_Layer_2_x2F__x3C_Path_x3E__x5F_6"
   viewBox="0.014 -1.129 3.097 1.129"
   transform="translate(-20.470998,224.562)">
	<g
   id="Layer_1_11_">
		<path
   style="clip-rule:evenodd;fill:#bd7a4a;fill-rule:evenodd"
   d="M 2.35,0 C 2.917,0 3.167,-0.167 3.1,-0.5 3,-0.867 2.65,-1.067 2.05,-1.1 1.55,-1.167 1.167,-1.117 0.9,-0.95 0.633,-0.683 0.383,-0.483 0.15,-0.35 -0.317,-0.117 0.417,0 2.35,0 Z"
   id="path46"
   inkscape:connector-curvature="0" />
	</g>
</symbol>
<symbol
   id="flash0.ai_x5F_7_x2F_Layer_2_x2F__x3C_Path_x3E__x5F_7"
   viewBox="-0.013 -0.912 2.767 0.882"
   transform="translate(-20.470998,224.562)">
	<g
   id="Layer_1_10_">
		<path
   style="clip-rule:evenodd;fill:#bd7a4a;fill-rule:evenodd"
   d="M 2.35,-0.15 C 2.717,-0.183 2.833,-0.3 2.7,-0.5 2.533,-0.733 2.183,-0.867 1.65,-0.9 1.15,-0.933 0.8,-0.9 0.6,-0.8 0.433,-0.733 0.25,-0.567 0.05,-0.3 -0.25,0 0.517,0.05 2.35,-0.15 Z"
   id="path50"
   inkscape:connector-curvature="0" />
	</g>
</symbol>
<symbol
   id="flash0.ai_x5F_7_x2F_Layer_2_x2F__x3C_Path_x3E__x5F_8"
   viewBox="-0.052 -0.773 2.674 0.795"
   transform="translate(-20.470998,224.562)">
	<g
   id="Layer_1_9_">
		<path
   style="clip-rule:evenodd;fill:#bd7a4a;fill-rule:evenodd"
   d="M 1.75,0 C 2.55,-0.167 2.8,-0.35 2.5,-0.55 2.133,-0.783 1.383,-0.833 0.25,-0.7 c -0.433,0.067 -0.4,0.217 0.1,0.45 0.5,0.233 0.967,0.317 1.4,0.25 z"
   id="path54"
   inkscape:connector-curvature="0" />
	</g>
</symbol>
<symbol
   id="flash0.ai_x5F_7_x2F_Layer_2_x2F__x3C_Path_x3E__x5F_9"
   viewBox="0.002 -1.506 2.943 1.506"
   transform="translate(-20.470998,224.562)">
	<g
   id="Layer_1_8_">
		<path
   style="clip-rule:evenodd;fill:#bd7a4a;fill-rule:evenodd"
   d="M 2.4,-0.25 C 2.867,-0.383 3.033,-0.617 2.9,-0.95 2.733,-1.283 2.3,-1.467 1.6,-1.5 0.967,-1.533 0.567,-1.417 0.4,-1.15 0.3,-0.817 0.183,-0.55 0.05,-0.35 -0.117,-0.117 0.15,0 0.85,0 1.45,-0.033 1.967,-0.117 2.4,-0.25 Z"
   id="path58"
   inkscape:connector-curvature="0" />
	</g>
</symbol>
<g
   id="g131"
   transform="matrix(8.6425992,0,0,8.6425992,-176.92265,-79.038985)">
	
		<linearGradient
   id="SVGID_1_"
   gradientUnits="userSpaceOnUse"
   x1="-0.020500001"
   y1="13.6147"
   x2="52.179501"
   y2="13.6147"
   gradientTransform="matrix(0.78,-3.735626e-4,-3.560014e-4,0.78,15.0499,16.4998)">
		<stop
   offset="0.0235"
   style="stop-color:#A0A1A3"
   id="stop62" />
		<stop
   offset="1"
   style="stop-color:#78797A"
   id="stop64" />
	</linearGradient>
	
	
		<linearGradient
   id="SVGID_2_"
   gradientUnits="userSpaceOnUse"
   x1="-54.253399"
   y1="-5.7294998"
   x2="2.5878"
   y2="-5.7294998"
   gradientTransform="matrix(-0.7546,-0.1974,0.1974,-0.7546,15.0501,16.5005)">
		<stop
   offset="0"
   style="stop-color:#CCCCCC"
   id="stop69" />
		<stop
   offset="1"
   style="stop-color:#FFFFFF"
   id="stop71" />
	</linearGradient>
	
	
		<linearGradient
   id="SVGID_3_"
   gradientUnits="userSpaceOnUse"
   x1="2.2681"
   y1="12.334"
   x2="50.118099"
   y2="12.334"
   gradientTransform="matrix(0.78,4.075228e-4,4.259963e-4,0.78,15.0498,16.5)">
		<stop
   offset="0"
   style="stop-color:#CCCCCC"
   id="stop76" />
		<stop
   offset="1"
   style="stop-color:#FFFFFF"
   id="stop78" />
	</linearGradient>
	
	
	<path
   style="clip-rule:evenodd;fill:#542f15;fill-rule:evenodd"
   d="m 49.447,19.191 c 0.598,0.728 0.78,1.56 0.546,2.495 -0.129,0.469 -0.312,0.858 -0.546,1.17 l -2.184,0.391 c -0.729,0.13 -1.703,0.507 -2.925,1.131 -1.065,0.546 -2.093,1.157 -3.081,1.833 -0.624,0.416 -1.378,1.209 -2.262,2.379 -0.91,1.196 -1.534,1.924 -1.872,2.184 -0.494,0.391 -1.378,0.611 -2.652,0.664 -1.612,0 -2.86,0 -3.744,0 -3.25,0 -5.538,-0.261 -6.864,-0.78 -1.04,-0.416 -1.716,-0.702 -2.028,-0.858 -0.702,-0.416 -1.118,-0.91 -1.248,-1.481 -0.104,-0.546 -0.13,-1.404 -0.078,-2.574 l 0.078,-1.6 1.833,-1.287 c 5.46,-0.884 10.01,-1.755 13.65,-2.612 l 6.278,-1.014 c 4.292,-0.574 6.658,-0.587 7.099,-0.041 z"
   id="path85"
   inkscape:connector-curvature="0" />
	<path
   style="clip-rule:evenodd;fill:#915224;fill-rule:evenodd"
   d="m 21.758,25.197 c -0.364,0.286 -0.507,1.001 -0.429,2.145 0.078,1.353 0.65,2.275 1.716,2.77 l 1.482,0.741 -0.663,-0.195 c -1.04,-0.416 -1.716,-0.702 -2.028,-0.858 -0.702,-0.416 -1.118,-0.91 -1.248,-1.481 -0.156,-0.91 -0.156,-2.263 0,-4.057 z"
   id="path87"
   inkscape:connector-curvature="0" />
	<path
   style="clip-rule:evenodd;fill:#422511;fill-rule:evenodd"
   d="m 49.214,20.322 c 0.468,0.546 0.402,1.417 -0.195,2.612 l -1.755,0.313 c -0.729,0.13 -1.703,0.507 -2.925,1.131 -1.065,0.546 -2.093,1.157 -3.081,1.833 -0.624,0.416 -1.378,1.209 -2.262,2.379 -0.91,1.196 -1.534,1.924 -1.872,2.184 -0.494,0.391 -1.353,0.611 -2.574,0.664 0.494,-0.234 0.858,-0.599 1.092,-1.093 0.208,-0.468 0.26,-0.923 0.156,-1.364 -0.312,-1.586 -0.416,-2.535 -0.312,-2.848 l 0.662,-1.911 c 6.63,-2.938 10.179,-4.433 10.647,-4.484 0.572,-0.052 0.975,-0.065 1.209,-0.039 0.495,0.051 0.898,0.259 1.21,0.623 z"
   id="path89"
   inkscape:connector-curvature="0" />
	<path
   style="clip-rule:evenodd;fill:#613412;fill-rule:evenodd"
   d="m 47.147,17.358 c 2.287,0.832 3.016,1.625 2.184,2.379 -0.521,0.468 -1.534,0.818 -3.042,1.053 -2.028,0.312 -3.445,0.611 -4.251,0.896 -1.196,0.416 -2.405,1.248 -3.627,2.496 l -2.613,2.574 c -0.78,0.598 -2.275,0.937 -4.485,1.015 -2.236,0.077 -4.68,-0.131 -7.332,-0.625 -2.444,-0.441 -3.575,-1.416 -3.393,-2.925 0.13,-1.117 0.832,-2.223 2.106,-3.314 0.754,-0.65 2.314,-1.287 4.68,-1.911 1.3,-0.364 3.159,-0.819 5.578,-1.365 2.001,-0.521 3.991,-0.819 5.967,-0.897 3.066,-0.494 5.81,-0.286 8.228,0.624 z"
   id="path91"
   inkscape:connector-curvature="0" />
	<path
   style="clip-rule:evenodd;fill:#915224;fill-rule:evenodd"
   d="m 38.411,17.358 c 2.756,-0.39 5.174,-0.364 7.254,0.078 1.924,0.442 2.535,0.949 1.832,1.521 -0.441,0.39 -1.352,0.767 -2.729,1.131 -1.82,0.521 -3.159,0.962 -4.017,1.326 -1.015,0.442 -2.016,1.144 -3.003,2.105 -1.274,1.223 -1.989,1.886 -2.146,1.989 -0.676,0.468 -2.002,0.729 -3.978,0.78 -1.976,0.052 -4.16,-0.104 -6.552,-0.468 -2.106,-0.338 -3.094,-1.118 -2.964,-2.34 0.078,-0.962 0.676,-1.873 1.794,-2.73 0.65,-0.521 1.846,-0.962 3.588,-1.326 0.988,-0.208 2.457,-0.494 4.407,-0.857 2.471,-0.572 4.642,-0.975 6.514,-1.209 z"
   id="path93"
   inkscape:connector-curvature="0" />
	<path
   style="clip-rule:evenodd;fill:#613412;fill-rule:evenodd"
   d="m 41.336,21.336 -0.975,0.585 c -3.771,-0.078 -6.787,-0.117 -9.048,-0.117 -2.236,0 -5.265,0.104 -9.087,0.313 l -0.585,1.521 c 2.782,-0.13 5.057,-0.155 6.825,-0.078 1.768,0.078 4.953,0.039 9.555,-0.116 l -0.507,0.624 h -2.808 c -2.782,0 -5.122,0.025 -7.02,0.077 h -6.163 c 1.326,2.133 1.326,2.354 0,0.663 -1.166,-1.457 -0.457,-2.854 2.126,-4.192 -0.166,0.128 -0.355,0.29 -0.566,0.487 l -0.585,0.507 c 1.898,-0.182 3.653,-0.285 5.265,-0.312 1.587,-0.053 6.111,-0.04 13.573,0.038 z m 6.552,-3.315 0.39,0.39 c -0.676,0 -2.47,-0.078 -5.382,-0.234 -2.002,-0.13 -4.342,-0.182 -7.02,-0.155 -2.444,0.025 -3.835,0.077 -4.173,0.155 l -3.626,0.897 2.847,0.078 c 1.092,0 6.383,0.194 15.873,0.585 l -1.248,0.312 c -1.977,-0.182 -4.784,-0.312 -8.424,-0.39 -3.61,-0.078 -7.309,-0.104 -11.096,-0.078 0.279,-0.104 0.572,-0.209 0.877,-0.313 2.08,-0.701 4.966,-1.247 8.658,-1.637 z"
   id="path95"
   inkscape:connector-curvature="0" />
	<path
   style="clip-rule:evenodd;fill:#613412;fill-rule:evenodd"
   d="m 47.849,19.542 c -0.182,0.468 -0.598,0.741 -1.248,0.819 -0.49,0.074 -0.932,0.146 -1.326,0.214 0.377,-0.197 0.883,-0.478 1.521,-0.838 -1.17,-1.17 -2.041,-1.885 -2.613,-2.146 l -1.404,-0.858 h 0.624 l 1.443,0.819 c 1.04,0.598 1.717,1.014 2.028,1.248 0.468,0.391 0.793,0.638 0.975,0.742 z m -4.486,1.481 -4.952,-3.977 0.507,-0.313 1.481,1.092 c 1.066,0.78 1.794,1.352 2.185,1.716 0.703,0.638 1.223,1.06 1.56,1.268 -0.271,0.06 -0.492,0.119 -0.663,0.176 -0.04,0.011 -0.079,0.025 -0.118,0.038 z m 0.781,-0.213 c 0.313,-0.074 0.689,-0.152 1.131,-0.234 -0.424,0.233 -0.671,0.356 -0.741,0.371 -0.068,0.028 -0.198,-0.017 -0.39,-0.137 z m -5.226,2.632 c -1.976,1.794 -3.017,2.729 -3.12,2.808 -0.806,0.546 -1.885,0.845 -3.237,0.896 -1.201,0.047 -2.333,0.021 -3.393,-0.078 l 4.173,-0.467 c -1.248,-0.988 -2.327,-1.898 -3.237,-2.73 l -4.68,-4.134 0.507,-0.156 4.602,3.705 c 0.702,0.624 2.119,1.599 4.251,2.925 l 2.262,-1.56 c -1.248,-1.431 -2.223,-2.51 -2.925,-3.237 -0.807,-0.832 -1.846,-1.703 -3.12,-2.613 l -0.507,-0.233 0.78,-0.273 3.627,2.729 c 0.91,0.729 1.885,1.729 2.925,3.004 l 2.027,-1.834 -5.147,-4.68 0.585,-0.117 3.782,2.925 c 0.65,0.52 1.313,0.949 1.989,1.286 l 2.301,-0.585 c -1.743,0.52 -3.225,1.326 -4.445,2.419 z m -12.714,1.287 c 0.373,0.448 1.101,1.202 2.184,2.263 -0.441,-0.05 -0.871,-0.114 -1.287,-0.195 -1.3,-1.586 -2.171,-2.69 -2.613,-3.314 l -1.677,-2.263 0.312,-0.39 z"
   id="path97"
   inkscape:connector-curvature="0" />
	
		<use
   xlink:href="#flash0.ai_x5F_7_x2F_Layer_2_x2F__x3C_Path_x3E__x5F_15"
   width="4.4489999"
   height="1.7079999"
   x="-0.0020000001"
   y="-1.7"
   transform="matrix(0.78,0,0,-0.78,42.667579,199.45816)"
   style="overflow:visible;opacity:0.53130002;enable-background:new"
   id="use99" />
	
		<use
   xlink:href="#flash0.ai_x5F_7_x2F_Layer_2_x2F__x3C_Path_x3E__x5F_14"
   width="2.3380001"
   height="1.2079999"
   x="-0.050000001"
   y="-1.168"
   transform="matrix(0.78,0,0,-0.78,39.067479,199.40836)"
   style="overflow:visible;opacity:0.53130002;enable-background:new"
   id="use101" />
	
		<use
   xlink:href="#flash0.ai_x5F_7_x2F_Layer_2_x2F__x3C_Path_x3E__x5F_13"
   width="3.451"
   height="1.325"
   x="-0.063000001"
   y="-1.275"
   transform="matrix(0.78,0,0,-0.78,41.067479,197.05876)"
   style="overflow:visible;opacity:0.53130002;enable-background:new"
   id="use103" />
	
		<use
   xlink:href="#flash0.ai_x5F_7_x2F_Layer_2_x2F__x3C_Path_x3E__x5F_12"
   width="1.2359999"
   height="1.108"
   x="-0.028999999"
   y="-1.104"
   transform="matrix(0.78,0,0,-0.78,40.517179,195.30876)"
   style="overflow:visible;opacity:0.53130002;enable-background:new"
   id="use105" />
	
		<use
   xlink:href="#flash0.ai_x5F_7_x2F_Layer_2_x2F__x3C_Path_x3E__x5F_11"
   width="5.4159999"
   height="1.243"
   x="-0.034000002"
   y="-1.232"
   transform="matrix(0.78,0,0,-0.78,43.667579,194.80876)"
   style="overflow:visible;opacity:0.53130002;enable-background:new"
   id="use107" />
	
		<use
   xlink:href="#flash0.ai_x5F_7_x2F_Layer_2_x2F__x3C_Path_x3E__x5F_10"
   width="4.9720001"
   height="1.207"
   x="0.02"
   y="-1.2"
   transform="matrix(0.78,0,0,-0.78,46.117279,197.25796)"
   style="overflow:visible;opacity:0.53130002;enable-background:new"
   id="use109" />
	
		<use
   xlink:href="#flash0.ai_x5F_7_x2F_Layer_2_x2F__x3C_Path_x3E__x5F_9"
   width="2.9430001"
   height="1.506"
   x="0.0020000001"
   y="-1.506"
   transform="matrix(0.78,0,0,-0.78,50.367279,194.80876)"
   style="overflow:visible;opacity:0.53130002;enable-background:new"
   id="use111" />
	
		<use
   xlink:href="#flash0.ai_x5F_7_x2F_Layer_2_x2F__x3C_Path_x3E__x5F_8"
   width="2.674"
   height="0.79500002"
   x="-0.052000001"
   y="-0.773"
   transform="matrix(0.78,0,0,-0.78,49.067479,193.50796)"
   style="overflow:visible;opacity:0.53130002;enable-background:new"
   id="use113" />
	
		<use
   xlink:href="#flash0.ai_x5F_7_x2F_Layer_2_x2F__x3C_Path_x3E__x5F_7"
   width="2.767"
   height="0.88200003"
   x="-0.013"
   y="-0.912"
   transform="matrix(0.78,0,0,-0.78,53.316979,193.30876)"
   style="overflow:visible;opacity:0.53130002;enable-background:new"
   id="use115" />
	
		<use
   xlink:href="#flash0.ai_x5F_7_x2F_Layer_2_x2F__x3C_Path_x3E__x5F_6"
   width="3.0969999"
   height="1.1289999"
   x="0.014"
   y="-1.1289999"
   transform="matrix(0.78,0,0,-0.78,57.967379,193.45816)"
   style="overflow:visible;opacity:0.53130002;enable-background:new"
   id="use117" />
	
		<use
   xlink:href="#flash0.ai_x5F_7_x2F_Layer_2_x2F__x3C_Path_x3E__x5F_5"
   width="2.257"
   height="0.42699999"
   x="-0.017999999"
   y="-0.412"
   transform="matrix(0.78,0,0,-0.78,56.767179,192.30826)"
   style="overflow:visible;opacity:0.53130002;enable-background:new"
   id="use119" />
	
		<use
   xlink:href="#flash0.ai_x5F_7_x2F_Layer_2_x2F__x3C_Path_x3E__x5F_4"
   width="2.562"
   height="0.51599997"
   x="0.0070000002"
   y="-0.55400002"
   transform="matrix(0.78,0,0,-0.78,55.517179,195.10856)"
   style="overflow:visible;opacity:0.53130002;enable-background:new"
   id="use121" />
	
		<use
   xlink:href="#flash0.ai_x5F_7_x2F_Layer_2_x2F__x3C_Path_x3E__x5F_3"
   width="1.882"
   height="0.64499998"
   x="0.0070000002"
   y="-0.64499998"
   transform="matrix(0.78,0,0,-0.78,52.617779,197.15836)"
   style="overflow:visible;opacity:0.53130002;enable-background:new"
   id="use123" />
	
		<use
   xlink:href="#flash0.ai_x5F_7_x2F_Layer_2_x2F__x3C_Path_x3E__x5F_2"
   width="3.3900001"
   height="1.1"
   x="0.0060000001"
   y="-1.075"
   transform="matrix(0.78,0,0,-0.78,48.967379,199.55876)"
   style="overflow:visible;opacity:0.53130002;enable-background:new"
   id="use125" />
	
		<use
   xlink:href="#flash0.ai_x5F_7_x2F_Layer_2_x2F__x3C_Path_x3E__x5F_1"
   width="1.034"
   height="1.005"
   x="-0.028000001"
   y="-1.005"
   transform="matrix(0.78,0,0,-0.78,38.517179,197.55876)"
   style="overflow:visible;opacity:0.53130002;enable-background:new"
   id="use127" />
	<path
   style="clip-rule:evenodd;fill:#613412;fill-rule:evenodd"
   d="m 31.664,28.239 c -0.104,-0.182 0.195,-0.3 0.897,-0.352 0.702,-0.052 1.222,0.026 1.56,0.234 0.416,0.234 0.598,0.624 0.545,1.17 -0.026,0.494 -0.234,0.923 -0.624,1.287 -0.468,0.468 -1.157,0.559 -2.067,0.273 0.052,-0.131 0.117,-0.261 0.195,-0.391 0.182,-0.312 0.351,-0.533 0.507,-0.663 0.156,-0.13 0.065,-0.39 -0.273,-0.78 -0.415,-0.414 -0.662,-0.674 -0.74,-0.778 z"
   id="path129"
   inkscape:connector-curvature="0" />
</g>



</svg>