<?xml version="1.0" encoding="UTF-8" standalone="no"?>
<!-- Generator: Adobe Illustrator 15.1.0, SVG Export Plug-In . SVG Version: 6.00 Build 0)  -->

<svg
   xmlns:dc="http://purl.org/dc/elements/1.1/"
   xmlns:cc="http://creativecommons.org/ns#"
   xmlns:rdf="http://www.w3.org/1999/02/22-rdf-syntax-ns#"
   xmlns:svg="http://www.w3.org/2000/svg"
   xmlns="http://www.w3.org/2000/svg"
   xmlns:sodipodi="http://sodipodi.sourceforge.net/DTD/sodipodi-0.dtd"
   xmlns:inkscape="http://www.inkscape.org/namespaces/inkscape"
   version="1.1"
   id="flash0.ai"
   x="0px"
   y="0px"
   width="256"
   height="256"
   viewBox="0 0 256.00001 256.00001"
   xml:space="preserve"
   sodipodi:docname="meat.svg"
   inkscape:version="0.92.4 (5da689c313, 2019-01-14)"
   inkscape:export-xdpi="10.5"
   inkscape:export-ydpi="10.5"><title
   id="title826">Meat</title><metadata
   id="metadata19"><rdf:RDF><cc:Work
       rdf:about=""><dc:format>image/svg+xml</dc:format><dc:type
         rdf:resource="http://purl.org/dc/dcmitype/StillImage" /><dc:title>Meat</dc:title><cc:license
         rdf:resource="http://creativecommons.org/publicdomain/zero/1.0/" /><dc:creator><cc:Agent><dc:title>Glitch</dc:title></cc:Agent></dc:creator><dc:source>https://opengameart.org/node/20149</dc:source></cc:Work><cc:License
       rdf:about="http://creativecommons.org/publicdomain/zero/1.0/"><cc:permits
         rdf:resource="http://creativecommons.org/ns#Reproduction" /><cc:permits
         rdf:resource="http://creativecommons.org/ns#Distribution" /><cc:permits
         rdf:resource="http://creativecommons.org/ns#DerivativeWorks" /></cc:License></rdf:RDF></metadata><defs
   id="defs17" /><sodipodi:namedview
   pagecolor="#ffffff"
   bordercolor="#666666"
   borderopacity="1"
   objecttolerance="10"
   gridtolerance="10"
   guidetolerance="10"
   inkscape:pageopacity="0"
   inkscape:pageshadow="2"
   inkscape:window-width="1920"
   inkscape:window-height="1025"
   id="namedview15"
   showgrid="false"
   inkscape:zoom="0.81178426"
   inkscape:cx="-219.58719"
   inkscape:cy="284.10894"
   inkscape:window-x="-8"
   inkscape:window-y="-8"
   inkscape:window-maximized="1"
   inkscape:current-layer="flash0.ai"
   fit-margin-top="0"
   fit-margin-left="0"
   fit-margin-right="0"
   fit-margin-bottom="0" />
<g
   id="g12"
   transform="matrix(5.7839678,0,0,5.7839678,0.12384448,51.182982)">
	<path
   style="clip-rule:evenodd;fill:#dea190;fill-rule:evenodd"
   d="m 37.508,5.145 c 1.755,1.545 2.775,2.435 3.063,2.671 2.2,1.964 3.378,4.294 3.535,6.991 -0.026,0.183 -0.184,0.55 -0.472,1.1 -1.439,2.461 -3.613,3.94 -6.52,4.438 1.807,-1.205 3.09,-2.146 3.85,-2.828 2.461,-2.094 2.553,-4.346 0.274,-6.755 C 39.3,8.667 37.232,7.057 35.032,5.931 34.666,5.695 34.456,5.46 34.404,5.224 33.907,4.019 33.527,2.893 33.264,1.847 34.549,2.71 35.963,3.81 37.508,5.145 Z"
   id="path2"
   inkscape:connector-curvature="0" />
	<path
   style="clip-rule:evenodd;fill:#b4353b;fill-rule:evenodd"
   d="m 36.723,15.356 c 1.989,0.55 3.168,0.785 3.534,0.707 0.367,0 0.629,-0.183 0.786,-0.55 C 41.33,15.199 40.48,14.819 38.49,14.374 37.154,14.007 34.523,13.025 30.595,11.429 27.086,9.91 24.494,8.077 22.818,5.93 23.394,6.034 23.957,5.904 24.507,5.537 24.821,5.328 25.057,5.144 25.214,4.988 L 25.607,4.752 C 25.659,4.648 25.882,4.425 26.275,4.085 L 26.746,3.692 C 27.401,2.775 28.225,2.056 29.221,1.532 29.221,1.27 29.09,1.126 28.828,1.1 27.309,1.021 25.804,1.323 24.311,2.003 l -2.16,0.904 c -0.209,0.104 -0.419,0.261 -0.628,0.471 0,0.053 -0.052,0.079 -0.157,0.079 v 0.157 c 0,0.209 -0.026,0.34 -0.079,0.393 -0.262,0.733 -0.825,1.139 -1.688,1.217 -0.341,0.104 -0.93,0.209 -1.768,0.314 -0.288,0 -0.642,-0.052 -1.061,-0.157 L 16.456,5.224 7.501,8.837 C 8.287,9.36 10.146,9.256 13.078,8.523 16.036,7.79 17.7,7.332 18.066,7.148 l 1.021,-0.471 c 3.954,2.278 7.764,4.32 11.429,6.127 1.599,0.916 3.667,1.767 6.207,2.552 z M 33.266,1.846 c 0.263,1.047 0.643,2.173 1.14,3.377 0.052,0.236 0.262,0.471 0.628,0.707 2.2,1.126 4.269,2.736 6.206,4.831 2.278,2.409 2.187,4.661 -0.274,6.755 -0.76,0.682 -2.043,1.623 -3.85,2.828 L 35.191,20.5 c -0.733,0 -1.858,-0.052 -3.377,-0.156 -5.027,-0.55 -9.635,-2.187 -13.825,-4.909 -2.173,0.549 -4.399,0.706 -6.677,0.471 C 8.458,15.565 6.036,14.61 4.046,13.038 2.422,11.94 2.16,10.591 3.26,8.994 5.669,8.339 7.816,7.384 9.701,6.127 10.67,5.524 12.228,5.067 14.374,4.752 16.626,4.438 17.988,4.006 18.459,3.456 19.061,2.933 20.004,2.317 21.287,1.61 c 1.152,-0.603 3.051,-1.113 5.695,-1.532 2.304,-0.313 4.399,0.276 6.284,1.768 z"
   id="path4"
   inkscape:connector-curvature="0" />
	<path
   style="clip-rule:evenodd;fill:#e0d0bd;fill-rule:evenodd"
   d="m 38.49,14.375 c 1.989,0.445 2.84,0.825 2.553,1.139 -0.157,0.367 -0.419,0.55 -0.786,0.55 -0.366,0.078 -1.545,-0.157 -3.534,-0.707 -2.54,-0.786 -4.608,-1.636 -6.206,-2.553 C 26.852,10.997 23.042,8.955 19.088,6.677 L 18.067,7.148 C 17.7,7.332 16.037,7.79 13.079,8.523 10.146,9.256 8.287,9.36 7.501,8.837 l 8.955,-3.613 0.314,0.157 c 0.419,0.104 0.772,0.157 1.061,0.157 0.838,-0.104 1.427,-0.209 1.768,-0.314 0.864,-0.079 1.427,-0.484 1.688,-1.217 0.052,-0.053 0.079,-0.184 0.079,-0.393 V 3.456 c 0.105,0 0.157,-0.026 0.157,-0.079 0.209,-0.209 0.419,-0.366 0.628,-0.471 l 2.16,-0.904 c 1.493,-0.681 2.998,-0.982 4.517,-0.903 0.262,0.026 0.393,0.17 0.393,0.432 -0.995,0.524 -1.82,1.244 -2.475,2.16 l -0.471,0.393 c -0.393,0.34 -0.616,0.563 -0.668,0.667 l -0.393,0.236 c -0.157,0.157 -0.393,0.34 -0.707,0.549 -0.55,0.367 -1.113,0.498 -1.689,0.393 1.676,2.147 4.268,3.98 7.777,5.499 3.928,1.598 6.559,2.58 7.895,2.947 z"
   id="path6"
   inkscape:connector-curvature="0" />
	<path
   style="clip-rule:evenodd;fill:#dea190;fill-rule:evenodd"
   d="m 4.045,13.039 c 1.99,1.571 4.412,2.527 7.266,2.868 2.278,0.235 4.504,0.078 6.677,-0.471 4.189,2.723 8.797,4.359 13.825,4.909 -1.126,-0.053 -2.631,-0.184 -4.517,-0.393 -2.775,-0.263 -5.289,-0.563 -7.541,-0.903 L 12.764,17.831 C 10.408,17.333 8.208,16.783 6.166,16.181 3.495,15.501 1.583,14.021 0.431,11.744 V 11.508 C 0.589,10.068 1.531,9.23 3.259,8.994 2.16,10.591 2.422,11.94 4.045,13.039 Z"
   id="path8"
   inkscape:connector-curvature="0" />
	<path
   style="clip-rule:evenodd;fill:#c49681;fill-rule:evenodd"
   d="m 31.813,20.345 c 1.519,0.104 2.644,0.156 3.377,0.156 l 1.925,-0.156 c 2.906,-0.498 5.08,-1.977 6.52,-4.438 0.288,-0.55 0.445,-0.917 0.472,-1.1 0.288,2.226 0.104,4.557 -0.55,6.991 -0.628,2.173 -2.016,3.535 -4.163,4.085 -2.252,0.523 -4.517,0.746 -6.795,0.667 -1.754,-0.052 -4.32,-0.078 -7.698,-0.078 -2.409,0.157 -4.857,0.013 -7.345,-0.432 -2.488,-0.42 -5.08,-1.113 -7.776,-2.082 L 2.278,20.974 C 1.65,20.685 1.192,20.188 0.903,19.481 -0.144,17.02 -0.302,14.441 0.431,11.744 c 1.152,2.277 3.064,3.757 5.735,4.437 2.042,0.603 4.242,1.152 6.598,1.65 l 6.991,1.218 c 2.252,0.34 4.766,0.641 7.541,0.903 1.886,0.209 3.391,0.34 4.517,0.393 z"
   id="path10"
   inkscape:connector-curvature="0" />
</g>
</svg>