<?xml version="1.0" encoding="UTF-8" standalone="no"?>
<!-- Generator: Adobe Illustrator 15.1.0, SVG Export Plug-In . SVG Version: 6.00 Build 0)  -->

<svg
   xmlns:dc="http://purl.org/dc/elements/1.1/"
   xmlns:cc="http://creativecommons.org/ns#"
   xmlns:rdf="http://www.w3.org/1999/02/22-rdf-syntax-ns#"
   xmlns:svg="http://www.w3.org/2000/svg"
   xmlns="http://www.w3.org/2000/svg"
   xmlns:sodipodi="http://sodipodi.sourceforge.net/DTD/sodipodi-0.dtd"
   xmlns:inkscape="http://www.inkscape.org/namespaces/inkscape"
   version="1.1"
   id="flash0.ai"
   x="0px"
   y="0px"
   width="256"
   height="256"
   viewBox="0 0 256 255.99999"
   xml:space="preserve"
   sodipodi:docname="waffle.svg"
   inkscape:version="0.92.4 (5da689c313, 2019-01-14)"
   inkscape:export-xdpi="10.5"
   inkscape:export-ydpi="10.5"><title
   id="title889">Waffle</title><metadata
   id="metadata79"><rdf:RDF><cc:Work
       rdf:about=""><dc:format>image/svg+xml</dc:format><dc:type
         rdf:resource="http://purl.org/dc/dcmitype/StillImage" /><dc:title>Waffle</dc:title><cc:license
         rdf:resource="http://creativecommons.org/publicdomain/zero/1.0/" /><dc:creator><cc:Agent><dc:title>Glitch</dc:title></cc:Agent></dc:creator><dc:source>https://opengameart.org/node/20149</dc:source></cc:Work><cc:License
       rdf:about="http://creativecommons.org/publicdomain/zero/1.0/"><cc:permits
         rdf:resource="http://creativecommons.org/ns#Reproduction" /><cc:permits
         rdf:resource="http://creativecommons.org/ns#Distribution" /><cc:permits
         rdf:resource="http://creativecommons.org/ns#DerivativeWorks" /></cc:License></rdf:RDF></metadata><defs
   id="defs77" /><sodipodi:namedview
   pagecolor="#ffffff"
   bordercolor="#666666"
   borderopacity="1"
   objecttolerance="10"
   gridtolerance="10"
   guidetolerance="10"
   inkscape:pageopacity="0"
   inkscape:pageshadow="2"
   inkscape:window-width="1920"
   inkscape:window-height="1025"
   id="namedview75"
   showgrid="false"
   inkscape:zoom="2.9980276"
   inkscape:cx="133.68021"
   inkscape:cy="78.944211"
   inkscape:window-x="-8"
   inkscape:window-y="-8"
   inkscape:window-maximized="1"
   inkscape:current-layer="flash0.ai"
   fit-margin-top="0"
   fit-margin-left="0"
   fit-margin-right="0"
   fit-margin-bottom="0" />



















<g
   id="g884"
   transform="matrix(5.9823183,0,0,5.9823183,-0.086419,39.714434)"><path
     id="path2"
     d="m 42.55,10.7 c 0.033,0.033 0.101,0.783 0.2,2.25 0.033,1.133 -0.5,2.3 -1.6,3.5 -0.434,0.466 -1.934,1.767 -4.5,3.899 -3.134,2.634 -6.567,5.267 -10.301,7.9 -1.366,0.967 -2.866,1.283 -4.5,0.95 -1.3,-0.267 -2.967,-1.05 -5,-2.351 -0.7,-0.466 -3.5,-2.216 -8.4,-5.25 C 4.283,19 1.9,17.434 1.3,16.9 0.6,16.267 0.183,15.383 0.05,14.25 -0.05,13.217 0.067,12.367 0.4,11.7 0.7,11.133 1.55,10.367 2.95,9.4 4.183,8.567 5.4,7.85 6.6,7.25 c 0.667,-0.3 2.7,-1.433 6.1,-3.4 3.233,-1.9 5.183,-2.983 5.85,-3.25 1.1,-0.467 2.2,-0.667 3.3,-0.6 0.867,0.067 1.55,0.267 2.05,0.6 0.267,0.167 2.117,1 5.55,2.5 3.8,1.7 6.7,3.083 8.7,4.15 2.466,1.333 3.933,2.483 4.4,3.45 z"
     style="clip-rule:evenodd;fill:#f0b543;fill-rule:evenodd"
     inkscape:connector-curvature="0" /><path
     id="path4"
     d="m 42.75,13.4 c 0.033,1.133 -0.5,2.283 -1.6,3.45 -0.4,0.4 -1.9,1.667 -4.5,3.8 -3,2.466 -6.434,5.066 -10.301,7.8 -1.366,0.967 -2.866,1.283 -4.5,0.95 -1.3,-0.267 -2.967,-1.051 -5,-2.351 -0.567,-0.366 -3.367,-2.1 -8.4,-5.2 -4.167,-2.533 -6.55,-4.066 -7.15,-4.6 -0.7,-0.633 -1.117,-1.5 -1.25,-2.6 -0.1,-1 0.017,-1.833 0.35,-2.5 0.033,0.5 0.267,0.95 0.7,1.35 0.467,0.433 1.4,1.033 2.8,1.8 0.7,0.4 3.617,2.101 8.75,5.101 4.2,2.5 6.617,3.866 7.25,4.1 1.4,0.634 2.233,0.967 2.5,1 1.067,0.167 2.333,-0.134 3.8,-0.9 2.434,-1.3 6.05,-4.017 10.85,-8.149 0.967,-0.8 2.233,-1.817 3.8,-3.05 1.101,-0.933 1.684,-1.667 1.75,-2.2 0.167,0.333 0.233,0.7 0.2,1.1 z"
     style="clip-rule:evenodd;fill:#dea435;fill-rule:evenodd"
     inkscape:connector-curvature="0" /><path
     id="path6"
     d="M 8.45,21.85 C 4.283,19.317 1.9,17.784 1.3,17.25 0.6,16.617 0.183,15.75 0.05,14.65 c -0.1,-1 0.017,-1.833 0.35,-2.5 0.033,0.5 0.267,0.95 0.7,1.35 0.467,0.433 1.4,1.033 2.8,1.8 0.7,0.4 3.617,2.101 8.75,5.101 4.2,2.5 6.617,3.866 7.25,4.1 0.3,0.134 0.717,0.333 1.25,0.6 0.5,0.2 0.95,0.334 1.35,0.4 0,2.033 0.133,3.366 0.4,4 L 22.2,29.451 22.15,29.401 21.5,29.3 21.45,29.25 c -0.534,-0.1 -1.25,-0.366 -2.15,-0.8 l -0.15,-0.101 -0.55,-0.3 -0.25,-0.1 -1.5,-0.9 C 16.283,26.684 13.483,24.95 8.45,21.85 Z"
     style="clip-rule:evenodd;fill:#f5c658;fill-rule:evenodd"
     inkscape:connector-curvature="0" /><g
     id="g40">
	<path
   inkscape:connector-curvature="0"
   id="path8"
   d="M 9.05,10.8 C 9.484,11.167 9.1,11.75 7.9,12.55 6.767,13.383 5.917,13.75 5.35,13.65 4.783,13.55 3.967,13.183 2.9,12.55 2.334,12.25 2.15,11.867 2.35,11.4 2.517,11 2.916,10.584 3.55,10.15 4.683,9.35 5.583,9 6.25,9.1 6.617,9.167 7.133,9.433 7.8,9.9 c 0.333,0.233 0.75,0.533 1.25,0.9 z"
   style="clip-rule:evenodd;fill:#d49e33;fill-rule:evenodd" />
	<path
   inkscape:connector-curvature="0"
   id="path10"
   d="m 11.1,5.95 c 0.6,-0.1 1.483,0.233 2.65,1 0.833,0.566 1.033,1 0.6,1.3 -0.434,0.367 -1.383,0.967 -2.85,1.8 -0.333,0.2 -0.683,0.25 -1.05,0.15 -0.1,-0.034 -0.367,-0.184 -0.8,-0.45 l -2,-1.1 C 7.517,8.583 7.433,8.483 7.4,8.35 7.4,8.183 7.467,8.033 7.6,7.9 7.833,7.7 8.383,7.35 9.25,6.85 10.217,6.283 10.833,5.983 11.1,5.95 Z"
   style="clip-rule:evenodd;fill:#d49e33;fill-rule:evenodd" />
	<path
   inkscape:connector-curvature="0"
   id="path12"
   d="m 19.7,4.65 c -0.034,0.2 -0.35,0.5 -0.95,0.9 C 17.983,6.017 17.467,6.334 17.2,6.5 16.4,7.033 15.817,7.233 15.45,7.1 L 12.95,5.75 C 12.617,5.517 12.467,5.3 12.5,5.1 L 12.6,4.9 15.7,3 c 0.267,-0.133 0.583,-0.167 0.95,-0.1 0.2,0.033 0.4,0.083 0.6,0.15 l 0.65,0.3 c 1.233,0.6 1.833,1.033 1.8,1.3 z"
   style="clip-rule:evenodd;fill:#d49e33;fill-rule:evenodd" />
	<path
   inkscape:connector-curvature="0"
   id="path14"
   d="m 19.05,2.95 c -0.9,-0.5 -1.233,-0.833 -1,-1 0.9,-0.534 2.017,-0.9 3.35,-1.1 0.633,-0.1 1.417,0.066 2.35,0.5 0.2,0.1 0.4,0.183 0.6,0.25 0.1,0.066 0.05,0.183 -0.15,0.35 -1.467,1.2 -2.317,1.867 -2.55,2 -0.333,0.133 -1.2,-0.2 -2.6,-1 z"
   style="clip-rule:evenodd;fill:#d49e33;fill-rule:evenodd" />
	<path
   inkscape:connector-curvature="0"
   id="path16"
   d="M 7.15,15.35 C 6.717,14.983 6.75,14.567 7.25,14.1 7.917,13.633 8.333,13.317 8.5,13.15 8.833,12.883 9.217,12.633 9.65,12.4 c 0.5,-0.267 0.833,-0.383 1,-0.35 0.833,0.233 1.633,0.567 2.4,1 0.733,0.4 1.233,0.767 1.5,1.1 0.434,0.467 -0.216,1.217 -1.95,2.25 -1.133,0.734 -1.9,1.034 -2.3,0.9 C 9.733,17.2 8.683,16.55 7.15,15.35 Z"
   style="clip-rule:evenodd;fill:#d49e33;fill-rule:evenodd" />
	<path
   inkscape:connector-curvature="0"
   id="path18"
   d="m 12,11.2 c -0.133,-0.233 -0.083,-0.483 0.15,-0.75 0.2,-0.167 0.4,-0.3 0.6,-0.4 l 1,-0.7 c 0.7,-0.467 1.2,-0.75 1.5,-0.85 0.333,-0.1 0.7,-0.083 1.1,0.05 0.267,0.067 0.8,0.317 1.6,0.75 0.7,0.367 1.216,0.75 1.55,1.15 0.3,0.4 0.367,0.7 0.2,0.9 -0.5,0.5 -1.35,1.117 -2.55,1.85 -0.566,0.333 -1.017,0.466 -1.35,0.4 C 15.767,13.567 15.5,13.433 15,13.2 14.667,13.1 14.133,12.8 13.4,12.3 12.6,11.8 12.133,11.433 12,11.2 Z"
   style="clip-rule:evenodd;fill:#d49e33;fill-rule:evenodd" />
	<path
   inkscape:connector-curvature="0"
   id="path20"
   d="m 23.85,6.65 c 0.6,0.333 0.883,0.633 0.85,0.9 0,0.1 -0.133,0.284 -0.4,0.55 C 23.533,8.733 22.7,9.3 21.8,9.8 21.3,10.1 20.567,9.933 19.6,9.3 18.033,8.5 17.183,7.984 17.05,7.75 16.95,7.583 17.2,7.283 17.8,6.85 18.234,6.517 18.65,6.25 19.05,6.05 19.917,5.717 20.5,5.533 20.8,5.5 c 0.7,-0.067 1.717,0.317 3.05,1.15 z"
   style="clip-rule:evenodd;fill:#d49e33;fill-rule:evenodd" />
	<path
   inkscape:connector-curvature="0"
   id="path22"
   d="m 25.95,2.7 c 0.1,0.033 0.717,0.283 1.85,0.75 1.4,0.667 1.851,1.167 1.351,1.5 -0.367,0.3 -0.684,0.55 -0.95,0.75 -0.467,0.4 -0.934,0.7 -1.4,0.9 -0.6,0.267 -1.933,-0.267 -4,-1.6 -0.233,-0.167 -0.333,-0.383 -0.3,-0.65 0.033,-0.267 0.15,-0.467 0.35,-0.6 l 1.6,-1 C 24.817,2.517 25.316,2.5 25.95,2.7 Z"
   style="clip-rule:evenodd;fill:#d49e33;fill-rule:evenodd" />
	<path
   inkscape:connector-curvature="0"
   id="path24"
   d="m 18.6,16.3 c 0.233,0.133 0.683,0.383 1.35,0.75 0.566,0.367 0.867,0.667 0.9,0.9 0,0.233 -0.333,0.6 -1,1.1 -0.833,0.601 -1.4,1.017 -1.7,1.25 -0.733,0.533 -1.4,0.684 -2,0.45 C 15.517,20.417 14.4,19.7 12.8,18.6 12.367,18.3 12.283,18 12.55,17.701 c 0.267,-0.3 0.817,-0.733 1.65,-1.3 0.9,-0.667 1.517,-1.017 1.85,-1.05 0.533,-0.034 1.383,0.282 2.55,0.949 z"
   style="clip-rule:evenodd;fill:#d49e33;fill-rule:evenodd" />
	<path
   inkscape:connector-curvature="0"
   id="path26"
   d="m 25.8,13.9 c 0.134,0.2 -0.1,0.533 -0.7,1 -0.133,0.1 -0.667,0.467 -1.6,1.1 -1.033,0.633 -1.85,0.817 -2.45,0.55 -1.1,-0.466 -2.133,-1.1 -3.1,-1.9 -0.333,-0.267 -0.45,-0.517 -0.35,-0.75 0.066,-0.133 0.25,-0.333 0.55,-0.6 0.567,-0.566 1.317,-1.117 2.25,-1.65 0.7,-0.433 1.583,-0.333 2.65,0.3 1.667,0.9 2.584,1.55 2.75,1.95 z"
   style="clip-rule:evenodd;fill:#d49e33;fill-rule:evenodd" />
	<path
   inkscape:connector-curvature="0"
   id="path28"
   d="m 28.35,12.2 c -0.866,0.566 -1.833,0.6 -2.899,0.1 -0.667,-0.3 -1.2,-0.55 -1.6,-0.75 -0.767,-0.4 -1.167,-0.716 -1.2,-0.95 -0.066,-0.233 0.217,-0.6 0.85,-1.1 0.533,-0.433 1.017,-0.75 1.45,-0.95 0.934,-0.466 1.717,-0.583 2.35,-0.35 1.601,0.667 2.65,1.183 3.15,1.55 0.532,0.4 -0.168,1.217 -2.101,2.45 z"
   style="clip-rule:evenodd;fill:#d49e33;fill-rule:evenodd" />
	<path
   inkscape:connector-curvature="0"
   id="path30"
   d="M 27.85,7.35 C 27.55,7.117 28.1,6.55 29.5,5.65 30.233,5.183 31.066,5.1 32,5.4 c 0.467,0.167 1.033,0.434 1.7,0.8 0.399,0.167 0.717,0.4 0.95,0.7 0.199,0.333 0.199,0.6 0,0.8 -1,0.9 -1.684,1.45 -2.051,1.65 C 32.166,9.617 31.332,9.4 30.099,8.7 28.733,7.933 27.983,7.483 27.85,7.35 Z"
   style="clip-rule:evenodd;fill:#d49e33;fill-rule:evenodd" />
	<path
   inkscape:connector-curvature="0"
   id="path32"
   d="m 39.9,12.1 c -0.4,0.4 -0.983,0.467 -1.75,0.2 -0.267,-0.1 -0.884,-0.417 -1.851,-0.95 -1.5,-0.833 -2.2,-1.383 -2.1,-1.65 0.066,-0.233 0.434,-0.617 1.1,-1.15 0.667,-0.533 1.117,-0.8 1.351,-0.8 0.566,0 1.649,0.517 3.25,1.55 1.1,0.7 1.1,1.633 0,2.8 z"
   style="clip-rule:evenodd;fill:#d49e33;fill-rule:evenodd" />
	<path
   inkscape:connector-curvature="0"
   id="path34"
   d="m 31.9,11 c 0.533,-0.133 1.416,0.117 2.649,0.75 1,0.5 1.8,1 2.4,1.5 0.399,0.333 0.217,0.85 -0.55,1.55 -0.634,0.633 -1.351,1.133 -2.15,1.5 -0.566,0.267 -1.066,0.317 -1.5,0.15 -0.033,-0.034 -0.384,-0.267 -1.05,-0.7 -1.867,-1.133 -2.834,-1.817 -2.9,-2.05 -0.033,-0.2 0.417,-0.7 1.351,-1.5 0.9,-0.733 1.484,-1.133 1.75,-1.2 z"
   style="clip-rule:evenodd;fill:#d49e33;fill-rule:evenodd" />
	<path
   inkscape:connector-curvature="0"
   id="path36"
   d="m 29.3,20.25 c -0.833,0.467 -1.666,0.366 -2.5,-0.3 -2,-1.033 -3.1,-1.733 -3.3,-2.101 -0.133,-0.233 0,-0.566 0.4,-1 0.233,-0.233 0.467,-0.434 0.7,-0.6 l 1.2,-0.8 c 0.467,-0.434 1.15,-0.567 2.05,-0.4 0.434,0.1 0.817,0.233 1.15,0.4 l 0.65,0.4 c 1.466,0.733 2.267,1.35 2.399,1.85 0.101,0.468 -0.816,1.318 -2.749,2.551 z"
   style="clip-rule:evenodd;fill:#d49e33;fill-rule:evenodd" />
	<path
   inkscape:connector-curvature="0"
   id="path38"
   d="m 25.4,20.3 c 0.333,0.167 0.616,0.45 0.85,0.851 0.267,0.5 0.25,0.899 -0.05,1.199 -0.4,0.367 -0.934,0.684 -1.6,0.95 -0.733,0.267 -1.4,0.4 -2,0.4 -0.533,0 -1.184,-0.267 -1.95,-0.8 -0.667,-0.434 -1.117,-0.834 -1.35,-1.2 -0.167,-0.267 0.117,-0.717 0.85,-1.351 0.567,-0.5 1.1,-0.899 1.6,-1.199 0.567,-0.3 1.35,-0.15 2.35,0.45 l 0.4,0.15 z"
   style="clip-rule:evenodd;fill:#d49e33;fill-rule:evenodd" />
</g><path
     id="path42"
     d="m 2.3,11.75 c -0.033,-0.467 0.383,-1 1.25,-1.6 C 4.683,9.35 5.583,9 6.25,9.1 6.617,9.167 7.133,9.433 7.8,9.9 c 0.333,0.233 0.75,0.533 1.25,0.9 0.233,0.233 0.167,0.567 -0.2,1 C 8.783,11.7 8.733,11.633 8.7,11.6 7.367,10.567 6.433,10 5.9,9.9 5.3,9.8 4.4,10.15 3.2,10.95 c -0.4,0.3 -0.7,0.567 -0.9,0.8 z"
     style="clip-rule:evenodd;fill:#b58325;fill-rule:evenodd"
     inkscape:connector-curvature="0" /><path
     id="path44"
     d="m 13.75,6.95 c 0.833,0.566 1.033,1 0.6,1.3 L 14.1,8.4 C 13.467,7.633 12.95,7.167 12.55,7 11.55,6.6 10.6,6.7 9.7,7.3 8.667,7.967 8.017,8.433 7.75,8.7 L 7.65,8.65 C 7.517,8.583 7.433,8.483 7.4,8.35 7.4,8.183 7.467,8.033 7.6,7.9 7.833,7.7 8.383,7.35 9.25,6.85 c 0.967,-0.567 1.583,-0.867 1.85,-0.9 0.6,-0.1 1.483,0.233 2.65,1 z"
     style="clip-rule:evenodd;fill:#b58325;fill-rule:evenodd"
     inkscape:connector-curvature="0" /><path
     id="path46"
     d="m 19.7,4.65 c 0,0.133 -0.133,0.283 -0.4,0.45 L 17.6,4.2 C 16.6,3.666 15.717,3.617 14.95,4.05 L 12.65,5.5 C 12.517,5.333 12.467,5.183 12.5,5.05 L 12.6,4.9 15.7,3 c 0.267,-0.133 0.583,-0.167 0.95,-0.1 0.2,0.033 0.4,0.083 0.6,0.15 l 0.65,0.3 c 1.233,0.6 1.833,1.033 1.8,1.3 z"
     style="clip-rule:evenodd;fill:#b58325;fill-rule:evenodd"
     inkscape:connector-curvature="0" /><path
     id="path48"
     d="M 24.2,1.95 23.9,2.2 C 22.567,1.7 21.5,1.516 20.7,1.65 20.133,1.717 19.333,2.017 18.3,2.55 17.967,2.317 17.883,2.117 18.05,1.95 c 0.9,-0.534 2.017,-0.9 3.35,-1.1 0.633,-0.1 1.417,0.066 2.35,0.5 0.2,0.1 0.4,0.183 0.6,0.25 0.1,0.067 0.05,0.183 -0.15,0.35 z"
     style="clip-rule:evenodd;fill:#b58325;fill-rule:evenodd"
     inkscape:connector-curvature="0" /><path
     id="path50"
     d="M 10.1,13.15 C 10,13.183 9.517,13.433 8.65,13.9 8.15,14.167 7.7,14.683 7.3,15.45 L 7.15,15.35 C 6.717,14.983 6.75,14.567 7.25,14.1 7.917,13.633 8.333,13.317 8.5,13.15 8.833,12.883 9.217,12.633 9.65,12.4 c 0.5,-0.267 0.833,-0.383 1,-0.35 0.833,0.233 1.633,0.567 2.4,1 0.733,0.4 1.233,0.767 1.5,1.1 0.2,0.267 0.117,0.583 -0.25,0.95 v -0.05 c -0.033,-0.267 -1.05,-0.9 -3.05,-1.9 -0.333,-0.167 -0.717,-0.167 -1.15,0 z"
     style="clip-rule:evenodd;fill:#b58325;fill-rule:evenodd"
     inkscape:connector-curvature="0" /><path
     id="path52"
     d="m 12.75,10.05 1,-0.7 c 0.7,-0.467 1.2,-0.75 1.5,-0.85 0.333,-0.1 0.7,-0.083 1.1,0.05 0.267,0.067 0.8,0.317 1.6,0.75 0.7,0.367 1.216,0.75 1.55,1.15 0.3,0.4 0.367,0.7 0.2,0.9 L 19.05,11.9 C 18.95,11.367 18.867,11.033 18.8,10.9 18.734,10.633 18.4,10.334 17.8,10 17.234,9.7 16.75,9.5 16.35,9.4 15.517,9.233 14.783,9.383 14.15,9.85 l -1.9,1.6 L 12,11.2 c -0.133,-0.233 -0.083,-0.483 0.15,-0.75 0.2,-0.167 0.4,-0.3 0.6,-0.4 z"
     style="clip-rule:evenodd;fill:#b58325;fill-rule:evenodd"
     inkscape:connector-curvature="0" /><path
     id="path54"
     d="m 23.85,6.65 c 0.533,0.3 0.816,0.583 0.85,0.85 0,0.133 -0.1,0.3 -0.3,0.5 C 23.967,7.633 23.433,7.267 22.8,6.9 22.4,6.7 21.9,6.567 21.3,6.5 20.633,6.433 20.067,6.483 19.6,6.65 19,6.85 18.25,7.3 17.35,8 l -0.3,-0.25 c -0.1,-0.167 0.15,-0.467 0.75,-0.9 0.434,-0.333 0.85,-0.6 1.25,-0.8 0.867,-0.333 1.45,-0.517 1.75,-0.55 0.7,-0.067 1.717,0.317 3.05,1.15 z"
     style="clip-rule:evenodd;fill:#b58325;fill-rule:evenodd"
     inkscape:connector-curvature="0" /><path
     id="path56"
     d="m 27.8,3.45 c 1.4,0.667 1.851,1.167 1.351,1.5 C 28.25,4.417 27.384,4 26.55,3.7 25.616,3.367 24.8,3.367 24.1,3.7 c -0.4,0.167 -0.9,0.517 -1.5,1.05 -0.2,-0.367 -0.117,-0.7 0.25,-1 l 1.6,-1 c 0.367,-0.233 0.866,-0.25 1.5,-0.05 0.1,0.033 0.717,0.283 1.85,0.75 z"
     style="clip-rule:evenodd;fill:#b58325;fill-rule:evenodd"
     inkscape:connector-curvature="0" /><path
     id="path58"
     d="m 20.85,17.95 c 0,0.133 -0.133,0.333 -0.4,0.6 -0.767,-0.7 -1.5,-1.166 -2.2,-1.399 -0.8,-0.234 -1.367,-0.367 -1.7,-0.4 -0.6,-0.067 -1.133,0.05 -1.6,0.35 -0.633,0.367 -1.3,0.9 -2,1.601 L 12.8,18.6 c -0.433,-0.3 -0.517,-0.6 -0.25,-0.899 0.267,-0.3 0.817,-0.733 1.65,-1.3 0.9,-0.667 1.517,-1.017 1.85,-1.05 0.534,-0.033 1.383,0.283 2.55,0.95 0.233,0.133 0.683,0.383 1.35,0.75 0.567,0.366 0.867,0.666 0.9,0.899 z"
     style="clip-rule:evenodd;fill:#b58325;fill-rule:evenodd"
     inkscape:connector-curvature="0" /><path
     id="path60"
     d="m 23.05,11.95 c 1.667,0.9 2.584,1.55 2.75,1.95 0.134,0.233 -0.116,0.583 -0.75,1.05 l -1,-1.05 c -0.4,-0.4 -0.933,-0.75 -1.6,-1.05 -0.733,-0.3 -1.284,-0.383 -1.65,-0.25 -0.333,0.1 -1.283,0.783 -2.85,2.05 -0.333,-0.267 -0.45,-0.517 -0.35,-0.75 0.066,-0.133 0.25,-0.333 0.55,-0.6 0.567,-0.566 1.317,-1.117 2.25,-1.65 0.7,-0.433 1.583,-0.333 2.65,0.3 z"
     style="clip-rule:evenodd;fill:#b58325;fill-rule:evenodd"
     inkscape:connector-curvature="0" /><path
     id="path62"
     d="M 30.15,10.9 C 29.45,10.2 28.849,9.733 28.349,9.5 27.15,9 26.134,8.933 25.3,9.3 24.734,9.5 23.95,10.067 22.95,11 22.75,10.8 22.65,10.667 22.65,10.6 22.584,10.367 22.867,10 23.5,9.5 24.033,9.067 24.517,8.75 24.95,8.55 25.884,8.084 26.667,7.967 27.3,8.2 c 1.601,0.667 2.65,1.183 3.15,1.55 0.333,0.233 0.234,0.617 -0.3,1.15 z"
     style="clip-rule:evenodd;fill:#b58325;fill-rule:evenodd"
     inkscape:connector-curvature="0" /><path
     id="path64"
     d="m 33.7,6.2 c 0.399,0.167 0.717,0.4 0.95,0.7 0.199,0.333 0.199,0.6 0,0.8 L 34.3,8 C 34.234,7.6 34.134,7.35 34,7.25 33.733,7.05 33.25,6.8 32.55,6.5 31.717,6.167 31.1,6.017 30.7,6.05 30.2,6.084 29.417,6.633 28.349,7.7 l -0.5,-0.35 c -0.3,-0.233 0.25,-0.8 1.65,-1.7 C 30.233,5.183 31.066,5.1 32,5.4 c 0.467,0.167 1.033,0.433 1.7,0.8 z"
     style="clip-rule:evenodd;fill:#b58325;fill-rule:evenodd"
     inkscape:connector-curvature="0" /><path
     id="path66"
     d="m 25.4,20.3 c 0.333,0.167 0.616,0.45 0.85,0.851 0.267,0.5 0.25,0.899 -0.05,1.199 -0.134,-0.466 -0.767,-1.033 -1.9,-1.699 -0.4,-0.233 -0.85,-0.384 -1.35,-0.45 C 22.416,20.135 22,20.184 21.7,20.35 21.2,20.651 20.516,21.234 19.65,22.1 L 19.3,21.7 c -0.167,-0.267 0.117,-0.717 0.85,-1.351 0.567,-0.5 1.1,-0.899 1.6,-1.199 0.567,-0.3 1.35,-0.15 2.35,0.45 l 0.4,0.15 z"
     style="clip-rule:evenodd;fill:#b58325;fill-rule:evenodd"
     inkscape:connector-curvature="0" /><path
     id="path68"
     d="m 29.45,16.9 c -0.5,-0.333 -1.05,-0.55 -1.65,-0.65 -0.666,-0.167 -1.217,-0.15 -1.649,0.05 -0.534,0.233 -1.25,0.9 -2.15,2 -0.267,-0.166 -0.433,-0.316 -0.5,-0.45 -0.133,-0.233 0,-0.566 0.4,-1 0.233,-0.233 0.467,-0.434 0.7,-0.6 l 1.2,-0.8 c 0.467,-0.434 1.15,-0.567 2.05,-0.4 0.434,0.1 0.817,0.233 1.15,0.4 l 0.65,0.4 c 1.466,0.733 2.267,1.35 2.399,1.85 0.033,0.233 -0.083,0.483 -0.35,0.75 -0.066,-0.134 -0.367,-0.367 -0.9,-0.7 z"
     style="clip-rule:evenodd;fill:#b58325;fill-rule:evenodd"
     inkscape:connector-curvature="0" /><path
     id="path70"
     d="m 31.9,11 c 0.533,-0.133 1.416,0.117 2.649,0.75 1,0.5 1.8,1 2.4,1.5 0.366,0.3 0.217,0.783 -0.45,1.45 -0.033,-0.233 -0.8,-0.833 -2.3,-1.8 -1.167,-0.767 -2.017,-0.95 -2.55,-0.55 l -2.2,1.95 c -0.4,-0.267 -0.617,-0.466 -0.65,-0.6 -0.033,-0.2 0.417,-0.7 1.351,-1.5 0.9,-0.733 1.484,-1.133 1.75,-1.2 z"
     style="clip-rule:evenodd;fill:#b58325;fill-rule:evenodd"
     inkscape:connector-curvature="0" /><path
     id="path72"
     d="M 40.35,11.5 C 39.951,10.7 39.651,10.2 39.451,10 39.151,9.7 38.635,9.4 37.901,9.1 37.168,8.767 36.701,8.666 36.501,8.8 l -1.85,1.55 c -0.334,-0.267 -0.483,-0.483 -0.45,-0.65 0.066,-0.233 0.434,-0.617 1.1,-1.15 0.667,-0.533 1.117,-0.8 1.351,-0.8 0.566,0 1.649,0.517 3.25,1.55 0.898,0.567 1.048,1.3 0.448,2.2 z"
     style="clip-rule:evenodd;fill:#b58325;fill-rule:evenodd"
     inkscape:connector-curvature="0" /></g>
</svg>